<?xml version="1.0" encoding="utf-8" standalone="no"?>
<!DOCTYPE svg PUBLIC "-//W3C//DTD SVG 1.1//EN"
  "http://www.w3.org/Graphics/SVG/1.1/DTD/svg11.dtd">
<!-- Created with matplotlib (http://matplotlib.org/) -->
<svg height="331pt" version="1.1" viewBox="0 0 400 331" width="400pt" xmlns="http://www.w3.org/2000/svg" xmlns:xlink="http://www.w3.org/1999/xlink">
 <defs>
  <style type="text/css">
*{stroke-linecap:butt;stroke-linejoin:round;}
  </style>
 </defs>
 <g id="figure_1">
  <g id="patch_1">
   <path d="M 0 331.02825 
L 400.066875 331.02825 
L 400.066875 0 
L 0 0 
z
" style="fill:#ffffff;"/>
  </g>
  <g id="axes_1">
   <g id="patch_2">
    <path d="M 33.403125 300.672 
L 390.523125 300.672 
L 390.523125 34.56 
L 33.403125 34.56 
z
" style="fill:#ffffff;"/>
   </g>
   <g id="matplotlib.axis_1">
    <g id="xtick_1">
     <g id="line2d_1">
      <defs>
       <path d="M 0 0 
L 0 3.5 
" id="m98c52d60ca" style="stroke:#000000;stroke-width:0.8;"/>
      </defs>
      <g>
       <use style="stroke:#000000;stroke-width:0.8;" x="33.403125" xlink:href="#m98c52d60ca" y="300.672"/>
      </g>
     </g>
     <g id="text_1">
      <!-- 0 -->
      <defs>
       <path d="M 31.78125 66.40625 
Q 24.171875 66.40625 20.328125 58.90625 
Q 16.5 51.421875 16.5 36.375 
Q 16.5 21.390625 20.328125 13.890625 
Q 24.171875 6.390625 31.78125 6.390625 
Q 39.453125 6.390625 43.28125 13.890625 
Q 47.125 21.390625 47.125 36.375 
Q 47.125 51.421875 43.28125 58.90625 
Q 39.453125 66.40625 31.78125 66.40625 
z
M 31.78125 74.21875 
Q 44.046875 74.21875 50.515625 64.515625 
Q 56.984375 54.828125 56.984375 36.375 
Q 56.984375 17.96875 50.515625 8.265625 
Q 44.046875 -1.421875 31.78125 -1.421875 
Q 19.53125 -1.421875 13.0625 8.265625 
Q 6.59375 17.96875 6.59375 36.375 
Q 6.59375 54.828125 13.0625 64.515625 
Q 19.53125 74.21875 31.78125 74.21875 
z
" id="DejaVuSans-30"/>
      </defs>
      <g transform="translate(30.221875 315.270437)scale(0.1 -0.1)">
       <use xlink:href="#DejaVuSans-30"/>
      </g>
     </g>
    </g>
    <g id="xtick_2">
     <g id="line2d_2">
      <g>
       <use style="stroke:#000000;stroke-width:0.8;" x="92.923125" xlink:href="#m98c52d60ca" y="300.672"/>
      </g>
     </g>
     <g id="text_2">
      <!-- 50 -->
      <defs>
       <path d="M 10.796875 72.90625 
L 49.515625 72.90625 
L 49.515625 64.59375 
L 19.828125 64.59375 
L 19.828125 46.734375 
Q 21.96875 47.46875 24.109375 47.828125 
Q 26.265625 48.1875 28.421875 48.1875 
Q 40.625 48.1875 47.75 41.5 
Q 54.890625 34.8125 54.890625 23.390625 
Q 54.890625 11.625 47.5625 5.09375 
Q 40.234375 -1.421875 26.90625 -1.421875 
Q 22.3125 -1.421875 17.546875 -0.640625 
Q 12.796875 0.140625 7.71875 1.703125 
L 7.71875 11.625 
Q 12.109375 9.234375 16.796875 8.0625 
Q 21.484375 6.890625 26.703125 6.890625 
Q 35.15625 6.890625 40.078125 11.328125 
Q 45.015625 15.765625 45.015625 23.390625 
Q 45.015625 31 40.078125 35.4375 
Q 35.15625 39.890625 26.703125 39.890625 
Q 22.75 39.890625 18.8125 39.015625 
Q 14.890625 38.140625 10.796875 36.28125 
z
" id="DejaVuSans-35"/>
      </defs>
      <g transform="translate(86.560625 315.270437)scale(0.1 -0.1)">
       <use xlink:href="#DejaVuSans-35"/>
       <use x="63.623047" xlink:href="#DejaVuSans-30"/>
      </g>
     </g>
    </g>
    <g id="xtick_3">
     <g id="line2d_3">
      <g>
       <use style="stroke:#000000;stroke-width:0.8;" x="152.443125" xlink:href="#m98c52d60ca" y="300.672"/>
      </g>
     </g>
     <g id="text_3">
      <!-- 100 -->
      <defs>
       <path d="M 12.40625 8.296875 
L 28.515625 8.296875 
L 28.515625 63.921875 
L 10.984375 60.40625 
L 10.984375 69.390625 
L 28.421875 72.90625 
L 38.28125 72.90625 
L 38.28125 8.296875 
L 54.390625 8.296875 
L 54.390625 0 
L 12.40625 0 
z
" id="DejaVuSans-31"/>
      </defs>
      <g transform="translate(142.899375 315.270437)scale(0.1 -0.1)">
       <use xlink:href="#DejaVuSans-31"/>
       <use x="63.623047" xlink:href="#DejaVuSans-30"/>
       <use x="127.246094" xlink:href="#DejaVuSans-30"/>
      </g>
     </g>
    </g>
    <g id="xtick_4">
     <g id="line2d_4">
      <g>
       <use style="stroke:#000000;stroke-width:0.8;" x="211.963125" xlink:href="#m98c52d60ca" y="300.672"/>
      </g>
     </g>
     <g id="text_4">
      <!-- 150 -->
      <g transform="translate(202.419375 315.270437)scale(0.1 -0.1)">
       <use xlink:href="#DejaVuSans-31"/>
       <use x="63.623047" xlink:href="#DejaVuSans-35"/>
       <use x="127.246094" xlink:href="#DejaVuSans-30"/>
      </g>
     </g>
    </g>
    <g id="xtick_5">
     <g id="line2d_5">
      <g>
       <use style="stroke:#000000;stroke-width:0.8;" x="271.483125" xlink:href="#m98c52d60ca" y="300.672"/>
      </g>
     </g>
     <g id="text_5">
      <!-- 200 -->
      <defs>
       <path d="M 19.1875 8.296875 
L 53.609375 8.296875 
L 53.609375 0 
L 7.328125 0 
L 7.328125 8.296875 
Q 12.9375 14.109375 22.625 23.890625 
Q 32.328125 33.6875 34.8125 36.53125 
Q 39.546875 41.84375 41.421875 45.53125 
Q 43.3125 49.21875 43.3125 52.78125 
Q 43.3125 58.59375 39.234375 62.25 
Q 35.15625 65.921875 28.609375 65.921875 
Q 23.96875 65.921875 18.8125 64.3125 
Q 13.671875 62.703125 7.8125 59.421875 
L 7.8125 69.390625 
Q 13.765625 71.78125 18.9375 73 
Q 24.125 74.21875 28.421875 74.21875 
Q 39.75 74.21875 46.484375 68.546875 
Q 53.21875 62.890625 53.21875 53.421875 
Q 53.21875 48.921875 51.53125 44.890625 
Q 49.859375 40.875 45.40625 35.40625 
Q 44.1875 33.984375 37.640625 27.21875 
Q 31.109375 20.453125 19.1875 8.296875 
z
" id="DejaVuSans-32"/>
      </defs>
      <g transform="translate(261.939375 315.270437)scale(0.1 -0.1)">
       <use xlink:href="#DejaVuSans-32"/>
       <use x="63.623047" xlink:href="#DejaVuSans-30"/>
       <use x="127.246094" xlink:href="#DejaVuSans-30"/>
      </g>
     </g>
    </g>
    <g id="xtick_6">
     <g id="line2d_6">
      <g>
       <use style="stroke:#000000;stroke-width:0.8;" x="331.003125" xlink:href="#m98c52d60ca" y="300.672"/>
      </g>
     </g>
     <g id="text_6">
      <!-- 250 -->
      <g transform="translate(321.459375 315.270437)scale(0.1 -0.1)">
       <use xlink:href="#DejaVuSans-32"/>
       <use x="63.623047" xlink:href="#DejaVuSans-35"/>
       <use x="127.246094" xlink:href="#DejaVuSans-30"/>
      </g>
     </g>
    </g>
    <g id="xtick_7">
     <g id="line2d_7">
      <g>
       <use style="stroke:#000000;stroke-width:0.8;" x="390.523125" xlink:href="#m98c52d60ca" y="300.672"/>
      </g>
     </g>
     <g id="text_7">
      <!-- 300 -->
      <defs>
       <path d="M 40.578125 39.3125 
Q 47.65625 37.796875 51.625 33 
Q 55.609375 28.21875 55.609375 21.1875 
Q 55.609375 10.40625 48.1875 4.484375 
Q 40.765625 -1.421875 27.09375 -1.421875 
Q 22.515625 -1.421875 17.65625 -0.515625 
Q 12.796875 0.390625 7.625 2.203125 
L 7.625 11.71875 
Q 11.71875 9.328125 16.59375 8.109375 
Q 21.484375 6.890625 26.8125 6.890625 
Q 36.078125 6.890625 40.9375 10.546875 
Q 45.796875 14.203125 45.796875 21.1875 
Q 45.796875 27.640625 41.28125 31.265625 
Q 36.765625 34.90625 28.71875 34.90625 
L 20.21875 34.90625 
L 20.21875 43.015625 
L 29.109375 43.015625 
Q 36.375 43.015625 40.234375 45.921875 
Q 44.09375 48.828125 44.09375 54.296875 
Q 44.09375 59.90625 40.109375 62.90625 
Q 36.140625 65.921875 28.71875 65.921875 
Q 24.65625 65.921875 20.015625 65.03125 
Q 15.375 64.15625 9.8125 62.3125 
L 9.8125 71.09375 
Q 15.4375 72.65625 20.34375 73.4375 
Q 25.25 74.21875 29.59375 74.21875 
Q 40.828125 74.21875 47.359375 69.109375 
Q 53.90625 64.015625 53.90625 55.328125 
Q 53.90625 49.265625 50.4375 45.09375 
Q 46.96875 40.921875 40.578125 39.3125 
z
" id="DejaVuSans-33"/>
      </defs>
      <g transform="translate(380.979375 315.270437)scale(0.1 -0.1)">
       <use xlink:href="#DejaVuSans-33"/>
       <use x="63.623047" xlink:href="#DejaVuSans-30"/>
       <use x="127.246094" xlink:href="#DejaVuSans-30"/>
      </g>
     </g>
    </g>
    <g id="xtick_8">
     <g id="line2d_8">
      <defs>
       <path d="M 0 0 
L 0 2 
" id="m026c39d701" style="stroke:#000000;stroke-width:0.6;"/>
      </defs>
      <g>
       <use style="stroke:#000000;stroke-width:0.6;" x="33.403125" xlink:href="#m026c39d701" y="300.672"/>
      </g>
     </g>
    </g>
    <g id="xtick_9">
     <g id="line2d_9">
      <g>
       <use style="stroke:#000000;stroke-width:0.6;" x="45.307125" xlink:href="#m026c39d701" y="300.672"/>
      </g>
     </g>
    </g>
    <g id="xtick_10">
     <g id="line2d_10">
      <g>
       <use style="stroke:#000000;stroke-width:0.6;" x="57.211125" xlink:href="#m026c39d701" y="300.672"/>
      </g>
     </g>
    </g>
    <g id="xtick_11">
     <g id="line2d_11">
      <g>
       <use style="stroke:#000000;stroke-width:0.6;" x="69.115125" xlink:href="#m026c39d701" y="300.672"/>
      </g>
     </g>
    </g>
    <g id="xtick_12">
     <g id="line2d_12">
      <g>
       <use style="stroke:#000000;stroke-width:0.6;" x="81.019125" xlink:href="#m026c39d701" y="300.672"/>
      </g>
     </g>
    </g>
    <g id="xtick_13">
     <g id="line2d_13">
      <g>
       <use style="stroke:#000000;stroke-width:0.6;" x="92.923125" xlink:href="#m026c39d701" y="300.672"/>
      </g>
     </g>
    </g>
    <g id="xtick_14">
     <g id="line2d_14">
      <g>
       <use style="stroke:#000000;stroke-width:0.6;" x="104.827125" xlink:href="#m026c39d701" y="300.672"/>
      </g>
     </g>
    </g>
    <g id="xtick_15">
     <g id="line2d_15">
      <g>
       <use style="stroke:#000000;stroke-width:0.6;" x="116.731125" xlink:href="#m026c39d701" y="300.672"/>
      </g>
     </g>
    </g>
    <g id="xtick_16">
     <g id="line2d_16">
      <g>
       <use style="stroke:#000000;stroke-width:0.6;" x="128.635125" xlink:href="#m026c39d701" y="300.672"/>
      </g>
     </g>
    </g>
    <g id="xtick_17">
     <g id="line2d_17">
      <g>
       <use style="stroke:#000000;stroke-width:0.6;" x="140.539125" xlink:href="#m026c39d701" y="300.672"/>
      </g>
     </g>
    </g>
    <g id="xtick_18">
     <g id="line2d_18">
      <g>
       <use style="stroke:#000000;stroke-width:0.6;" x="152.443125" xlink:href="#m026c39d701" y="300.672"/>
      </g>
     </g>
    </g>
    <g id="xtick_19">
     <g id="line2d_19">
      <g>
       <use style="stroke:#000000;stroke-width:0.6;" x="164.347125" xlink:href="#m026c39d701" y="300.672"/>
      </g>
     </g>
    </g>
    <g id="xtick_20">
     <g id="line2d_20">
      <g>
       <use style="stroke:#000000;stroke-width:0.6;" x="176.251125" xlink:href="#m026c39d701" y="300.672"/>
      </g>
     </g>
    </g>
    <g id="xtick_21">
     <g id="line2d_21">
      <g>
       <use style="stroke:#000000;stroke-width:0.6;" x="188.155125" xlink:href="#m026c39d701" y="300.672"/>
      </g>
     </g>
    </g>
    <g id="xtick_22">
     <g id="line2d_22">
      <g>
       <use style="stroke:#000000;stroke-width:0.6;" x="200.059125" xlink:href="#m026c39d701" y="300.672"/>
      </g>
     </g>
    </g>
    <g id="xtick_23">
     <g id="line2d_23">
      <g>
       <use style="stroke:#000000;stroke-width:0.6;" x="211.963125" xlink:href="#m026c39d701" y="300.672"/>
      </g>
     </g>
    </g>
    <g id="xtick_24">
     <g id="line2d_24">
      <g>
       <use style="stroke:#000000;stroke-width:0.6;" x="223.867125" xlink:href="#m026c39d701" y="300.672"/>
      </g>
     </g>
    </g>
    <g id="xtick_25">
     <g id="line2d_25">
      <g>
       <use style="stroke:#000000;stroke-width:0.6;" x="235.771125" xlink:href="#m026c39d701" y="300.672"/>
      </g>
     </g>
    </g>
    <g id="xtick_26">
     <g id="line2d_26">
      <g>
       <use style="stroke:#000000;stroke-width:0.6;" x="247.675125" xlink:href="#m026c39d701" y="300.672"/>
      </g>
     </g>
    </g>
    <g id="xtick_27">
     <g id="line2d_27">
      <g>
       <use style="stroke:#000000;stroke-width:0.6;" x="259.579125" xlink:href="#m026c39d701" y="300.672"/>
      </g>
     </g>
    </g>
    <g id="xtick_28">
     <g id="line2d_28">
      <g>
       <use style="stroke:#000000;stroke-width:0.6;" x="271.483125" xlink:href="#m026c39d701" y="300.672"/>
      </g>
     </g>
    </g>
    <g id="xtick_29">
     <g id="line2d_29">
      <g>
       <use style="stroke:#000000;stroke-width:0.6;" x="283.387125" xlink:href="#m026c39d701" y="300.672"/>
      </g>
     </g>
    </g>
    <g id="xtick_30">
     <g id="line2d_30">
      <g>
       <use style="stroke:#000000;stroke-width:0.6;" x="295.291125" xlink:href="#m026c39d701" y="300.672"/>
      </g>
     </g>
    </g>
    <g id="xtick_31">
     <g id="line2d_31">
      <g>
       <use style="stroke:#000000;stroke-width:0.6;" x="307.195125" xlink:href="#m026c39d701" y="300.672"/>
      </g>
     </g>
    </g>
    <g id="xtick_32">
     <g id="line2d_32">
      <g>
       <use style="stroke:#000000;stroke-width:0.6;" x="319.099125" xlink:href="#m026c39d701" y="300.672"/>
      </g>
     </g>
    </g>
    <g id="xtick_33">
     <g id="line2d_33">
      <g>
       <use style="stroke:#000000;stroke-width:0.6;" x="331.003125" xlink:href="#m026c39d701" y="300.672"/>
      </g>
     </g>
    </g>
    <g id="xtick_34">
     <g id="line2d_34">
      <g>
       <use style="stroke:#000000;stroke-width:0.6;" x="342.907125" xlink:href="#m026c39d701" y="300.672"/>
      </g>
     </g>
    </g>
    <g id="xtick_35">
     <g id="line2d_35">
      <g>
       <use style="stroke:#000000;stroke-width:0.6;" x="354.811125" xlink:href="#m026c39d701" y="300.672"/>
      </g>
     </g>
    </g>
    <g id="xtick_36">
     <g id="line2d_36">
      <g>
       <use style="stroke:#000000;stroke-width:0.6;" x="366.715125" xlink:href="#m026c39d701" y="300.672"/>
      </g>
     </g>
    </g>
    <g id="xtick_37">
     <g id="line2d_37">
      <g>
       <use style="stroke:#000000;stroke-width:0.6;" x="378.619125" xlink:href="#m026c39d701" y="300.672"/>
      </g>
     </g>
    </g>
    <g id="xtick_38">
     <g id="line2d_38">
      <g>
       <use style="stroke:#000000;stroke-width:0.6;" x="390.523125" xlink:href="#m026c39d701" y="300.672"/>
      </g>
     </g>
    </g>
    <g id="text_8">
     <!-- Sequence -->
     <defs>
      <path d="M 53.515625 70.515625 
L 53.515625 60.890625 
Q 47.90625 63.578125 42.921875 64.890625 
Q 37.9375 66.21875 33.296875 66.21875 
Q 25.25 66.21875 20.875 63.09375 
Q 16.5 59.96875 16.5 54.203125 
Q 16.5 49.359375 19.40625 46.890625 
Q 22.3125 44.4375 30.421875 42.921875 
L 36.375 41.703125 
Q 47.40625 39.59375 52.65625 34.296875 
Q 57.90625 29 57.90625 20.125 
Q 57.90625 9.515625 50.796875 4.046875 
Q 43.703125 -1.421875 29.984375 -1.421875 
Q 24.8125 -1.421875 18.96875 -0.25 
Q 13.140625 0.921875 6.890625 3.21875 
L 6.890625 13.375 
Q 12.890625 10.015625 18.65625 8.296875 
Q 24.421875 6.59375 29.984375 6.59375 
Q 38.421875 6.59375 43.015625 9.90625 
Q 47.609375 13.234375 47.609375 19.390625 
Q 47.609375 24.75 44.3125 27.78125 
Q 41.015625 30.8125 33.5 32.328125 
L 27.484375 33.5 
Q 16.453125 35.6875 11.515625 40.375 
Q 6.59375 45.0625 6.59375 53.421875 
Q 6.59375 63.09375 13.40625 68.65625 
Q 20.21875 74.21875 32.171875 74.21875 
Q 37.3125 74.21875 42.625 73.28125 
Q 47.953125 72.359375 53.515625 70.515625 
z
" id="DejaVuSans-53"/>
      <path d="M 56.203125 29.59375 
L 56.203125 25.203125 
L 14.890625 25.203125 
Q 15.484375 15.921875 20.484375 11.0625 
Q 25.484375 6.203125 34.421875 6.203125 
Q 39.59375 6.203125 44.453125 7.46875 
Q 49.3125 8.734375 54.109375 11.28125 
L 54.109375 2.78125 
Q 49.265625 0.734375 44.1875 -0.34375 
Q 39.109375 -1.421875 33.890625 -1.421875 
Q 20.796875 -1.421875 13.15625 6.1875 
Q 5.515625 13.8125 5.515625 26.8125 
Q 5.515625 40.234375 12.765625 48.109375 
Q 20.015625 56 32.328125 56 
Q 43.359375 56 49.78125 48.890625 
Q 56.203125 41.796875 56.203125 29.59375 
z
M 47.21875 32.234375 
Q 47.125 39.59375 43.09375 43.984375 
Q 39.0625 48.390625 32.421875 48.390625 
Q 24.90625 48.390625 20.390625 44.140625 
Q 15.875 39.890625 15.1875 32.171875 
z
" id="DejaVuSans-65"/>
      <path d="M 14.796875 27.296875 
Q 14.796875 17.390625 18.875 11.75 
Q 22.953125 6.109375 30.078125 6.109375 
Q 37.203125 6.109375 41.296875 11.75 
Q 45.40625 17.390625 45.40625 27.296875 
Q 45.40625 37.203125 41.296875 42.84375 
Q 37.203125 48.484375 30.078125 48.484375 
Q 22.953125 48.484375 18.875 42.84375 
Q 14.796875 37.203125 14.796875 27.296875 
z
M 45.40625 8.203125 
Q 42.578125 3.328125 38.25 0.953125 
Q 33.9375 -1.421875 27.875 -1.421875 
Q 17.96875 -1.421875 11.734375 6.484375 
Q 5.515625 14.40625 5.515625 27.296875 
Q 5.515625 40.1875 11.734375 48.09375 
Q 17.96875 56 27.875 56 
Q 33.9375 56 38.25 53.625 
Q 42.578125 51.265625 45.40625 46.390625 
L 45.40625 54.6875 
L 54.390625 54.6875 
L 54.390625 -20.796875 
L 45.40625 -20.796875 
z
" id="DejaVuSans-71"/>
      <path d="M 8.5 21.578125 
L 8.5 54.6875 
L 17.484375 54.6875 
L 17.484375 21.921875 
Q 17.484375 14.15625 20.5 10.265625 
Q 23.53125 6.390625 29.59375 6.390625 
Q 36.859375 6.390625 41.078125 11.03125 
Q 45.3125 15.671875 45.3125 23.6875 
L 45.3125 54.6875 
L 54.296875 54.6875 
L 54.296875 0 
L 45.3125 0 
L 45.3125 8.40625 
Q 42.046875 3.421875 37.71875 1 
Q 33.40625 -1.421875 27.6875 -1.421875 
Q 18.265625 -1.421875 13.375 4.4375 
Q 8.5 10.296875 8.5 21.578125 
z
M 31.109375 56 
z
" id="DejaVuSans-75"/>
      <path d="M 54.890625 33.015625 
L 54.890625 0 
L 45.90625 0 
L 45.90625 32.71875 
Q 45.90625 40.484375 42.875 44.328125 
Q 39.84375 48.1875 33.796875 48.1875 
Q 26.515625 48.1875 22.3125 43.546875 
Q 18.109375 38.921875 18.109375 30.90625 
L 18.109375 0 
L 9.078125 0 
L 9.078125 54.6875 
L 18.109375 54.6875 
L 18.109375 46.1875 
Q 21.34375 51.125 25.703125 53.5625 
Q 30.078125 56 35.796875 56 
Q 45.21875 56 50.046875 50.171875 
Q 54.890625 44.34375 54.890625 33.015625 
z
" id="DejaVuSans-6e"/>
      <path d="M 48.78125 52.59375 
L 48.78125 44.1875 
Q 44.96875 46.296875 41.140625 47.34375 
Q 37.3125 48.390625 33.40625 48.390625 
Q 24.65625 48.390625 19.8125 42.84375 
Q 14.984375 37.3125 14.984375 27.296875 
Q 14.984375 17.28125 19.8125 11.734375 
Q 24.65625 6.203125 33.40625 6.203125 
Q 37.3125 6.203125 41.140625 7.25 
Q 44.96875 8.296875 48.78125 10.40625 
L 48.78125 2.09375 
Q 45.015625 0.34375 40.984375 -0.53125 
Q 36.96875 -1.421875 32.421875 -1.421875 
Q 20.0625 -1.421875 12.78125 6.34375 
Q 5.515625 14.109375 5.515625 27.296875 
Q 5.515625 40.671875 12.859375 48.328125 
Q 20.21875 56 33.015625 56 
Q 37.15625 56 41.109375 55.140625 
Q 45.0625 54.296875 48.78125 52.59375 
z
" id="DejaVuSans-63"/>
     </defs>
     <g transform="translate(187.298281 328.948562)scale(0.1 -0.1)">
      <use xlink:href="#DejaVuSans-53"/>
      <use x="63.476562" xlink:href="#DejaVuSans-65"/>
      <use x="125" xlink:href="#DejaVuSans-71"/>
      <use x="188.476562" xlink:href="#DejaVuSans-75"/>
      <use x="251.855469" xlink:href="#DejaVuSans-65"/>
      <use x="313.378906" xlink:href="#DejaVuSans-6e"/>
      <use x="376.757812" xlink:href="#DejaVuSans-63"/>
      <use x="431.738281" xlink:href="#DejaVuSans-65"/>
     </g>
    </g>
   </g>
   <g id="matplotlib.axis_2">
    <g id="ytick_1">
     <g id="line2d_39">
      <defs>
       <path d="M 0 0 
L -3.5 0 
" id="mf1ec6b79a3" style="stroke:#000000;stroke-width:0.8;"/>
      </defs>
      <g>
       <use style="stroke:#000000;stroke-width:0.8;" x="33.403125" xlink:href="#mf1ec6b79a3" y="300.672"/>
      </g>
     </g>
     <g id="text_9">
      <!-- 3 -->
      <g transform="translate(20.040625 304.471219)scale(0.1 -0.1)">
       <use xlink:href="#DejaVuSans-33"/>
      </g>
     </g>
    </g>
    <g id="ytick_2">
     <g id="line2d_40">
      <g>
       <use style="stroke:#000000;stroke-width:0.8;" x="33.403125" xlink:href="#mf1ec6b79a3" y="262.656"/>
      </g>
     </g>
     <g id="text_10">
      <!-- 4 -->
      <defs>
       <path d="M 37.796875 64.3125 
L 12.890625 25.390625 
L 37.796875 25.390625 
z
M 35.203125 72.90625 
L 47.609375 72.90625 
L 47.609375 25.390625 
L 58.015625 25.390625 
L 58.015625 17.1875 
L 47.609375 17.1875 
L 47.609375 0 
L 37.796875 0 
L 37.796875 17.1875 
L 4.890625 17.1875 
L 4.890625 26.703125 
z
" id="DejaVuSans-34"/>
      </defs>
      <g transform="translate(20.040625 266.455219)scale(0.1 -0.1)">
       <use xlink:href="#DejaVuSans-34"/>
      </g>
     </g>
    </g>
    <g id="ytick_3">
     <g id="line2d_41">
      <g>
       <use style="stroke:#000000;stroke-width:0.8;" x="33.403125" xlink:href="#mf1ec6b79a3" y="224.64"/>
      </g>
     </g>
     <g id="text_11">
      <!-- 5 -->
      <g transform="translate(20.040625 228.439219)scale(0.1 -0.1)">
       <use xlink:href="#DejaVuSans-35"/>
      </g>
     </g>
    </g>
    <g id="ytick_4">
     <g id="line2d_42">
      <g>
       <use style="stroke:#000000;stroke-width:0.8;" x="33.403125" xlink:href="#mf1ec6b79a3" y="186.624"/>
      </g>
     </g>
     <g id="text_12">
      <!-- 6 -->
      <defs>
       <path d="M 33.015625 40.375 
Q 26.375 40.375 22.484375 35.828125 
Q 18.609375 31.296875 18.609375 23.390625 
Q 18.609375 15.53125 22.484375 10.953125 
Q 26.375 6.390625 33.015625 6.390625 
Q 39.65625 6.390625 43.53125 10.953125 
Q 47.40625 15.53125 47.40625 23.390625 
Q 47.40625 31.296875 43.53125 35.828125 
Q 39.65625 40.375 33.015625 40.375 
z
M 52.59375 71.296875 
L 52.59375 62.3125 
Q 48.875 64.0625 45.09375 64.984375 
Q 41.3125 65.921875 37.59375 65.921875 
Q 27.828125 65.921875 22.671875 59.328125 
Q 17.53125 52.734375 16.796875 39.40625 
Q 19.671875 43.65625 24.015625 45.921875 
Q 28.375 48.1875 33.59375 48.1875 
Q 44.578125 48.1875 50.953125 41.515625 
Q 57.328125 34.859375 57.328125 23.390625 
Q 57.328125 12.15625 50.6875 5.359375 
Q 44.046875 -1.421875 33.015625 -1.421875 
Q 20.359375 -1.421875 13.671875 8.265625 
Q 6.984375 17.96875 6.984375 36.375 
Q 6.984375 53.65625 15.1875 63.9375 
Q 23.390625 74.21875 37.203125 74.21875 
Q 40.921875 74.21875 44.703125 73.484375 
Q 48.484375 72.75 52.59375 71.296875 
z
" id="DejaVuSans-36"/>
      </defs>
      <g transform="translate(20.040625 190.423219)scale(0.1 -0.1)">
       <use xlink:href="#DejaVuSans-36"/>
      </g>
     </g>
    </g>
    <g id="ytick_5">
     <g id="line2d_43">
      <g>
       <use style="stroke:#000000;stroke-width:0.8;" x="33.403125" xlink:href="#mf1ec6b79a3" y="148.608"/>
      </g>
     </g>
     <g id="text_13">
      <!-- 7 -->
      <defs>
       <path d="M 8.203125 72.90625 
L 55.078125 72.90625 
L 55.078125 68.703125 
L 28.609375 0 
L 18.3125 0 
L 43.21875 64.59375 
L 8.203125 64.59375 
z
" id="DejaVuSans-37"/>
      </defs>
      <g transform="translate(20.040625 152.407219)scale(0.1 -0.1)">
       <use xlink:href="#DejaVuSans-37"/>
      </g>
     </g>
    </g>
    <g id="ytick_6">
     <g id="line2d_44">
      <g>
       <use style="stroke:#000000;stroke-width:0.8;" x="33.403125" xlink:href="#mf1ec6b79a3" y="110.592"/>
      </g>
     </g>
     <g id="text_14">
      <!-- 8 -->
      <defs>
       <path d="M 31.78125 34.625 
Q 24.75 34.625 20.71875 30.859375 
Q 16.703125 27.09375 16.703125 20.515625 
Q 16.703125 13.921875 20.71875 10.15625 
Q 24.75 6.390625 31.78125 6.390625 
Q 38.8125 6.390625 42.859375 10.171875 
Q 46.921875 13.96875 46.921875 20.515625 
Q 46.921875 27.09375 42.890625 30.859375 
Q 38.875 34.625 31.78125 34.625 
z
M 21.921875 38.8125 
Q 15.578125 40.375 12.03125 44.71875 
Q 8.5 49.078125 8.5 55.328125 
Q 8.5 64.0625 14.71875 69.140625 
Q 20.953125 74.21875 31.78125 74.21875 
Q 42.671875 74.21875 48.875 69.140625 
Q 55.078125 64.0625 55.078125 55.328125 
Q 55.078125 49.078125 51.53125 44.71875 
Q 48 40.375 41.703125 38.8125 
Q 48.828125 37.15625 52.796875 32.3125 
Q 56.78125 27.484375 56.78125 20.515625 
Q 56.78125 9.90625 50.3125 4.234375 
Q 43.84375 -1.421875 31.78125 -1.421875 
Q 19.734375 -1.421875 13.25 4.234375 
Q 6.78125 9.90625 6.78125 20.515625 
Q 6.78125 27.484375 10.78125 32.3125 
Q 14.796875 37.15625 21.921875 38.8125 
z
M 18.3125 54.390625 
Q 18.3125 48.734375 21.84375 45.5625 
Q 25.390625 42.390625 31.78125 42.390625 
Q 38.140625 42.390625 41.71875 45.5625 
Q 45.3125 48.734375 45.3125 54.390625 
Q 45.3125 60.0625 41.71875 63.234375 
Q 38.140625 66.40625 31.78125 66.40625 
Q 25.390625 66.40625 21.84375 63.234375 
Q 18.3125 60.0625 18.3125 54.390625 
z
" id="DejaVuSans-38"/>
      </defs>
      <g transform="translate(20.040625 114.391219)scale(0.1 -0.1)">
       <use xlink:href="#DejaVuSans-38"/>
      </g>
     </g>
    </g>
    <g id="ytick_7">
     <g id="line2d_45">
      <g>
       <use style="stroke:#000000;stroke-width:0.8;" x="33.403125" xlink:href="#mf1ec6b79a3" y="72.576"/>
      </g>
     </g>
     <g id="text_15">
      <!-- 9 -->
      <defs>
       <path d="M 10.984375 1.515625 
L 10.984375 10.5 
Q 14.703125 8.734375 18.5 7.8125 
Q 22.3125 6.890625 25.984375 6.890625 
Q 35.75 6.890625 40.890625 13.453125 
Q 46.046875 20.015625 46.78125 33.40625 
Q 43.953125 29.203125 39.59375 26.953125 
Q 35.25 24.703125 29.984375 24.703125 
Q 19.046875 24.703125 12.671875 31.3125 
Q 6.296875 37.9375 6.296875 49.421875 
Q 6.296875 60.640625 12.9375 67.421875 
Q 19.578125 74.21875 30.609375 74.21875 
Q 43.265625 74.21875 49.921875 64.515625 
Q 56.59375 54.828125 56.59375 36.375 
Q 56.59375 19.140625 48.40625 8.859375 
Q 40.234375 -1.421875 26.421875 -1.421875 
Q 22.703125 -1.421875 18.890625 -0.6875 
Q 15.09375 0.046875 10.984375 1.515625 
z
M 30.609375 32.421875 
Q 37.25 32.421875 41.125 36.953125 
Q 45.015625 41.5 45.015625 49.421875 
Q 45.015625 57.28125 41.125 61.84375 
Q 37.25 66.40625 30.609375 66.40625 
Q 23.96875 66.40625 20.09375 61.84375 
Q 16.21875 57.28125 16.21875 49.421875 
Q 16.21875 41.5 20.09375 36.953125 
Q 23.96875 32.421875 30.609375 32.421875 
z
" id="DejaVuSans-39"/>
      </defs>
      <g transform="translate(20.040625 76.375219)scale(0.1 -0.1)">
       <use xlink:href="#DejaVuSans-39"/>
      </g>
     </g>
    </g>
    <g id="ytick_8">
     <g id="line2d_46">
      <g>
       <use style="stroke:#000000;stroke-width:0.8;" x="33.403125" xlink:href="#mf1ec6b79a3" y="34.56"/>
      </g>
     </g>
     <g id="text_16">
      <!-- 10 -->
      <g transform="translate(13.678125 38.359219)scale(0.1 -0.1)">
       <use xlink:href="#DejaVuSans-31"/>
       <use x="63.623047" xlink:href="#DejaVuSans-30"/>
      </g>
     </g>
    </g>
    <g id="text_17">
     <!-- $\lambda_i$ -->
     <defs>
      <path d="M 36.71875 67.4375 
L 48.828125 0 
L 39.3125 0 
L 31.84375 40.4375 
L 5.125 0 
L -4.390625 0 
L 29.734375 52.4375 
L 28.03125 62.109375 
Q 26.953125 68.265625 21.734375 68.265625 
L 17.046875 68.265625 
L 18.5 75.984375 
L 24.21875 75.875 
Q 35.203125 75.734375 36.71875 67.4375 
z
" id="DejaVuSans-Oblique-3bb"/>
      <path d="M 18.3125 75.984375 
L 27.296875 75.984375 
L 25.09375 64.59375 
L 16.109375 64.59375 
z
M 14.203125 54.6875 
L 23.1875 54.6875 
L 12.5 0 
L 3.515625 0 
z
" id="DejaVuSans-Oblique-69"/>
     </defs>
     <g transform="translate(7.598438 171.716)rotate(-90)scale(0.1 -0.1)">
      <use transform="translate(0 0.015625)" xlink:href="#DejaVuSans-Oblique-3bb"/>
      <use transform="translate(59.179688 -16.390625)scale(0.7)" xlink:href="#DejaVuSans-Oblique-69"/>
     </g>
    </g>
   </g>
   <g id="line2d_47">
    <path clip-path="url(#p76e7bac880)" d="M 33.508222 332.02825 
L 33.931486 -1 
M 36.937618 -1 
L 36.974325 0.535663 
L 38.164725 22.109747 
L 39.355125 40.45247 
L 40.545525 55.468771 
L 41.735925 75.99741 
L 42.926325 94.435193 
L 44.116725 106.125108 
L 45.307125 122.37694 
L 47.687925 139.199024 
L 50.068725 154.785578 
L 51.259125 160.773108 
L 52.449525 166.095343 
L 54.830325 174.64894 
L 56.020725 178.64062 
L 57.211125 181.967024 
L 59.591925 187.954536 
L 61.972725 192.231343 
L 63.163125 193.561898 
L 64.353525 195.747831 
L 65.543925 196.603193 
L 66.734325 198.028789 
L 69.115125 199.64447 
L 70.305525 200.879982 
L 71.495925 202.495663 
L 72.686325 202.875831 
L 76.257525 203.065898 
L 77.447925 202.970873 
L 78.638325 203.826217 
L 79.828725 204.111343 
L 81.019125 203.731193 
L 83.399925 204.111343 
L 84.590325 204.111343 
L 85.780725 204.301428 
L 86.971125 204.301428 
L 89.351925 204.586536 
L 91.732725 204.39647 
L 92.923125 204.491512 
L 94.113525 204.39647 
L 95.303925 204.016301 
L 96.494325 198.789108 
L 98.875125 199.264301 
L 100.065525 199.359343 
L 101.255925 199.264301 
L 102.446325 199.454385 
L 104.827125 199.169259 
L 106.017525 199.074217 
L 107.207925 198.789108 
L 108.398325 198.123831 
L 109.588725 196.983343 
L 110.779125 196.127982 
L 113.159925 194.702385 
L 115.540725 193.276789 
L 117.921525 192.991663 
L 119.111925 192.89662 
L 121.492725 192.041259 
L 123.873525 190.805747 
L 126.254325 189.950385 
L 127.444725 189.380151 
L 129.825525 188.90494 
L 131.015925 188.429747 
L 135.777525 187.574385 
L 140.539125 186.148789 
L 146.491125 185.198385 
L 147.681525 185.38847 
L 153.633525 184.343024 
L 157.204725 183.582705 
L 158.395125 183.582705 
L 159.585525 183.202536 
L 160.775925 183.297578 
L 165.537525 182.442217 
L 166.727925 182.157108 
L 171.489525 181.871982 
L 172.679925 182.062066 
L 173.870325 181.586855 
L 176.251125 181.301747 
L 178.631925 181.206705 
L 179.822325 180.826536 
L 185.774325 180.351343 
L 186.964725 180.066217 
L 188.155125 180.161259 
L 189.345525 179.876151 
L 190.535925 179.971175 
L 191.726325 179.686066 
L 194.107125 179.591024 
L 195.297525 179.591024 
L 196.487925 179.115831 
L 197.678325 179.115831 
L 200.059125 178.64062 
L 201.249525 178.830705 
L 202.439925 178.64062 
L 203.630325 178.735663 
L 206.011125 178.450536 
L 208.391925 178.735663 
L 210.772725 178.26047 
L 211.963125 178.355512 
L 214.343925 178.070385 
L 215.534325 176.929898 
L 216.724725 176.454705 
L 217.915125 176.454705 
L 219.105525 177.02494 
L 220.295925 177.119982 
L 221.486325 177.02494 
L 227.438325 175.599343 
L 228.628725 174.839024 
L 229.819125 174.743982 
L 231.009525 174.268789 
L 232.199925 174.173747 
L 233.390325 173.793578 
L 235.771125 171.987831 
L 236.961525 171.13247 
L 238.151925 170.562217 
L 239.342325 169.801898 
L 240.532725 169.516789 
L 241.723125 172.748151 
L 242.913525 171.417578 
L 246.484725 168.091175 
L 248.865525 166.475494 
L 250.055925 166.475494 
L 252.436725 165.810217 
L 253.627125 164.859831 
L 254.817525 164.38462 
L 256.007925 163.719343 
L 257.198325 163.624301 
L 258.388725 163.339175 
L 259.579125 162.863982 
L 260.769525 162.673898 
L 261.959925 162.103663 
L 263.150325 161.343343 
L 265.531125 160.773108 
L 266.721525 160.297898 
L 266.721525 160.297898 
" style="fill:none;stroke:#a9a9a9;stroke-linecap:square;stroke-width:0.5;"/>
   </g>
   <g id="line2d_48">
    <path clip-path="url(#p76e7bac880)" d="M 34.027438 332.02825 
L 34.593525 257.04862 
L 35.783925 258.949428 
L 36.974325 166.855663 
L 38.164725 171.702705 
L 39.355125 170.467175 
L 40.545525 164.859831 
L 41.735925 156.496301 
L 42.926325 150.223663 
L 45.307125 139.864301 
L 46.497525 135.682536 
L 47.687925 135.397428 
L 48.878325 129.695024 
L 50.068725 127.319024 
L 52.449525 124.182705 
L 53.639925 123.232301 
L 54.830325 121.711663 
L 56.020725 120.38109 
L 57.211125 119.620771 
L 58.401525 118.00509 
L 59.591925 115.724132 
L 60.782325 116.389428 
L 61.972725 114.393578 
L 63.163125 113.538217 
L 64.353525 112.207663 
L 65.543925 111.922536 
L 67.924725 110.687024 
L 70.305525 109.831663 
L 71.495925 109.641578 
L 76.257525 109.546554 
L 77.447925 109.831663 
L 78.638325 109.831663 
L 79.828725 110.211831 
L 81.019125 110.306855 
L 82.209525 110.972132 
L 83.399925 111.257259 
L 85.780725 112.302705 
L 86.971125 112.587813 
L 88.161525 113.443175 
L 89.351925 113.823343 
L 94.113525 116.104301 
L 96.494325 117.529898 
L 97.684725 117.815024 
L 98.875125 118.765428 
L 100.065525 119.145578 
L 101.255925 120.095982 
L 102.446325 120.571175 
L 103.636725 121.426536 
L 106.017525 122.471982 
L 107.207925 123.327343 
L 109.588725 124.467813 
L 110.779125 125.323175 
L 113.159925 126.558705 
L 114.350325 127.223982 
L 115.540725 128.079343 
L 116.731125 128.649578 
L 117.921525 129.409898 
L 120.302325 130.550385 
L 121.492725 130.930536 
L 122.683125 131.500771 
L 127.444725 134.447024 
L 128.635125 134.827175 
L 131.015925 135.87262 
L 134.587125 137.298217 
L 135.777525 137.583343 
L 136.967925 138.058536 
L 138.158325 138.818855 
L 139.348725 139.199024 
L 140.539125 139.864301 
L 145.300725 141.479982 
L 147.681525 142.525428 
L 151.252725 144.141108 
L 158.395125 146.897259 
L 160.775925 147.37247 
L 164.347125 148.037747 
L 165.537525 148.322855 
L 169.108725 149.653428 
L 170.299125 149.74847 
L 172.679925 150.508789 
L 173.870325 150.508789 
L 175.060725 151.269108 
L 177.441525 151.364132 
L 178.631925 151.649259 
L 181.012725 151.839343 
L 182.203125 152.314536 
L 184.583925 152.789747 
L 185.774325 153.455024 
L 189.345525 153.740151 
L 190.535925 154.120301 
L 192.916725 154.405428 
L 196.487925 154.785578 
L 201.249525 155.64094 
L 202.439925 156.021108 
L 203.630325 155.926066 
L 204.820725 156.496301 
L 206.011125 156.686385 
L 208.391925 157.351663 
L 209.582325 157.25662 
L 210.772725 158.111982 
L 211.963125 158.111982 
L 213.153525 158.492151 
L 214.343925 158.682217 
L 215.534325 159.347494 
L 216.724725 158.777259 
L 217.915125 159.63262 
L 226.247925 161.058217 
L 227.438325 161.343343 
L 228.628725 161.343343 
L 233.390325 162.198705 
L 234.580725 161.818536 
L 238.151925 161.818536 
L 240.532725 162.293747 
L 242.913525 162.483813 
L 244.103925 162.76894 
L 247.675125 162.76894 
L 248.865525 162.578855 
L 251.246325 163.054066 
L 251.246325 163.054066 
" style="fill:none;stroke:#a9a9a9;stroke-linecap:square;stroke-width:0.5;"/>
   </g>
   <g id="line2d_49">
    <path clip-path="url(#p76e7bac880)" d="M 34.593525 262.941108 
L 35.783925 287.081268 
L 38.164725 230.817578 
L 39.355125 206.487343 
L 40.545525 188.049578 
L 41.735925 173.88862 
L 42.926325 163.054066 
L 44.116725 154.88062 
L 45.307125 149.558385 
L 47.687925 141.575024 
L 48.878325 140.149428 
L 50.068725 140.149428 
L 51.259125 139.579175 
L 52.449525 138.058536 
L 53.639925 138.058536 
L 56.020725 138.818855 
L 57.211125 138.913898 
L 58.401525 139.769259 
L 59.591925 141.194855 
L 60.782325 142.050217 
L 61.972725 143.285747 
L 63.163125 145.091494 
L 64.353525 145.37662 
L 65.543925 146.992301 
L 66.734325 148.417898 
L 67.924725 148.703024 
L 69.115125 151.174066 
L 70.305525 152.029428 
L 71.495925 152.599663 
L 72.686325 153.645108 
L 73.876725 155.355813 
L 75.067125 155.545898 
L 76.257525 157.446705 
L 77.447925 157.541747 
L 78.638325 157.921898 
L 79.828725 159.822705 
L 81.019125 159.727663 
L 82.209525 161.723494 
L 84.590325 161.723494 
L 85.780725 163.529259 
L 86.971125 163.244151 
L 88.161525 163.149108 
L 89.351925 164.38462 
L 92.923125 165.620151 
L 94.113525 166.095343 
L 95.303925 165.905259 
L 96.494325 166.475494 
L 97.684725 166.475494 
L 101.255925 167.235831 
L 102.446325 167.330855 
L 103.636725 167.235831 
L 107.207925 167.806066 
L 108.398325 167.711024 
L 109.588725 167.806066 
L 111.969525 167.52094 
L 113.159925 167.235831 
L 114.350325 167.235831 
L 115.540725 167.52094 
L 117.921525 167.425898 
L 119.111925 167.045747 
L 123.873525 166.285428 
L 127.444725 166.190385 
L 134.587125 165.525108 
L 135.777525 165.335024 
L 136.967925 165.335024 
L 139.348725 165.049898 
L 142.919925 164.669747 
L 144.110325 164.38462 
L 145.300725 164.38462 
L 147.681525 164.00447 
L 148.871925 163.529259 
L 153.633525 162.673898 
L 154.823925 162.103663 
L 156.014325 161.913578 
L 158.395125 161.913578 
L 159.585525 161.62847 
L 164.347125 161.723494 
L 167.918325 162.198705 
L 170.299125 162.293747 
L 171.489525 162.103663 
L 172.679925 162.388789 
L 175.060725 162.673898 
L 176.251125 163.054066 
L 178.631925 163.339175 
L 179.822325 163.339175 
L 184.583925 164.38462 
L 185.774325 164.479663 
L 186.964725 164.764789 
L 188.155125 164.859831 
L 189.345525 165.14494 
L 190.535925 165.620151 
L 191.726325 165.905259 
L 192.916725 166.475494 
L 194.107125 166.570536 
L 195.297525 166.950705 
L 197.678325 167.045747 
L 198.868725 167.52094 
L 202.439925 168.186217 
L 203.630325 168.091175 
L 206.011125 168.566385 
L 207.201525 168.566385 
L 208.391925 168.376301 
L 210.772725 168.566385 
L 211.963125 168.186217 
L 216.724725 167.52094 
L 217.915125 166.950705 
L 219.105525 166.570536 
L 220.295925 165.905259 
L 221.486325 166.000301 
L 225.057525 165.620151 
L 226.247925 165.239982 
L 227.438325 165.14494 
L 231.009525 164.289578 
L 232.199925 164.194536 
L 233.390325 163.814385 
L 234.580725 163.909428 
L 235.771125 163.624301 
L 236.961525 163.624301 
L 238.151925 163.244151 
L 238.151925 163.244151 
" style="fill:none;stroke:#a9a9a9;stroke-linecap:square;stroke-width:0.5;"/>
   </g>
   <g id="line2d_50">
    <path clip-path="url(#p76e7bac880)" d="M 33.43775 332.02825 
L 33.577196 -1 
M 37.465033 -1 
L 38.164725 238.705916 
L 39.355125 228.631663 
L 40.545525 232.053108 
L 41.735925 234.334066 
L 42.926325 236.234873 
L 44.116725 236.519982 
L 45.307125 236.519982 
L 46.497525 235.949747 
L 47.687925 234.334066 
L 48.878325 233.478705 
L 50.068725 231.007663 
L 51.259125 229.391982 
L 52.449525 226.730873 
L 54.830325 223.499512 
L 56.020725 222.073898 
L 58.401525 218.842554 
L 63.163125 216.27647 
L 64.353525 216.086385 
L 66.734325 213.90047 
L 67.924725 214.565747 
L 70.305525 213.615343 
L 71.495925 213.330217 
L 72.686325 212.284789 
L 73.876725 211.714554 
L 75.067125 211.334385 
L 76.257525 210.479024 
L 78.638325 209.14847 
L 79.828725 207.627831 
L 82.209525 207.15262 
L 83.399925 205.822066 
L 86.971125 203.446066 
L 90.542325 200.879982 
L 92.923125 198.789108 
L 94.113525 198.503982 
L 97.684725 195.652789 
L 100.065525 194.797428 
L 101.255925 192.991663 
L 102.446325 193.086705 
L 103.636725 192.231343 
L 104.827125 191.185898 
L 107.207925 190.14047 
L 108.398325 189.570217 
L 109.588725 188.524789 
L 115.540725 184.723193 
L 116.731125 184.818217 
L 120.302325 182.632301 
L 121.492725 182.062066 
L 122.683125 181.301747 
L 123.873525 180.826536 
L 125.063925 180.066217 
L 126.254325 179.781108 
L 128.635125 178.355512 
L 129.825525 177.975343 
L 131.015925 177.119982 
L 132.206325 177.02494 
L 133.396725 176.26462 
L 134.587125 176.169578 
L 135.777525 175.314217 
L 136.967925 175.409259 
L 139.348725 174.173747 
L 140.539125 173.698536 
L 141.729525 173.413428 
L 144.110325 172.082855 
L 145.300725 171.702705 
L 146.491125 171.13247 
L 148.871925 170.562217 
L 151.252725 169.516789 
L 153.633525 169.13662 
L 154.823925 168.566385 
L 156.014325 168.186217 
L 157.204725 168.186217 
L 158.395125 167.235831 
L 159.585525 167.235831 
L 160.775925 166.665578 
L 161.966325 166.475494 
L 165.537525 165.430066 
L 166.727925 165.715175 
L 167.918325 165.335024 
L 169.108725 165.14494 
L 170.299125 164.669747 
L 171.489525 164.00447 
L 172.679925 164.479663 
L 173.870325 163.909428 
L 175.060725 163.814385 
L 176.251125 163.244151 
L 178.631925 163.244151 
L 179.822325 162.863982 
L 181.012725 162.673898 
L 183.393525 162.76894 
L 185.774325 162.388789 
L 186.964725 163.149108 
L 188.155125 162.198705 
L 189.345525 162.483813 
L 190.535925 162.198705 
L 191.726325 162.103663 
L 192.916725 162.388789 
L 194.107125 161.723494 
L 195.297525 161.438385 
L 196.487925 160.963175 
L 198.868725 160.963175 
L 200.059125 160.678066 
L 201.249525 160.678066 
L 202.439925 160.202855 
L 203.630325 160.487982 
L 204.820725 161.62847 
L 206.011125 159.442536 
L 207.201525 158.967343 
L 208.391925 159.442536 
L 209.582325 159.062385 
L 210.772725 159.347494 
L 211.963125 158.872301 
L 213.153525 159.727663 
L 214.343925 158.777259 
L 215.534325 158.967343 
L 216.724725 159.63262 
L 217.915125 158.967343 
L 219.105525 159.157428 
L 220.295925 159.537578 
L 221.486325 159.347494 
L 222.676725 159.537578 
L 223.867125 159.537578 
L 225.057525 159.727663 
L 226.247925 159.442536 
L 227.438325 159.537578 
L 228.628725 159.442536 
L 229.819125 159.917747 
L 231.009525 160.773108 
L 232.199925 159.917747 
L 236.961525 160.583024 
L 238.151925 161.058217 
L 239.342325 160.773108 
L 240.532725 161.058217 
L 242.913525 161.153259 
L 244.103925 161.438385 
L 246.484725 161.343343 
L 247.675125 161.62847 
L 247.675125 161.62847 
" style="fill:none;stroke:#a9a9a9;stroke-linecap:square;stroke-width:0.5;"/>
   </g>
   <g id="line2d_51">
    <path clip-path="url(#p76e7bac880)" d="M 33.520702 332.02825 
L 33.994225 -1 
M 37.683316 -1 
L 38.164725 59.650518 
L 39.355125 100.517747 
L 40.545525 124.277747 
L 41.735925 136.823024 
L 42.926325 142.145259 
L 44.116725 143.76094 
L 45.307125 144.901428 
L 46.497525 144.046066 
L 47.687925 144.901428 
L 48.878325 144.616301 
L 50.068725 144.521259 
L 51.259125 143.855982 
L 52.449525 143.855982 
L 53.639925 144.046066 
L 54.830325 144.426217 
L 56.020725 145.471663 
L 57.211125 145.946855 
L 58.401525 146.612132 
L 59.591925 147.75262 
L 60.782325 150.413747 
L 61.972725 149.463343 
L 63.163125 149.653428 
L 64.353525 151.649259 
L 65.543925 151.459175 
L 66.734325 152.694705 
L 67.924725 153.359982 
L 69.115125 154.405428 
L 70.305525 155.070705 
L 71.495925 155.450855 
L 72.686325 156.116151 
L 73.876725 156.971494 
L 75.067125 157.446705 
L 76.257525 157.731813 
L 77.447925 158.207024 
L 78.638325 159.062385 
L 81.019125 159.537578 
L 82.209525 160.202855 
L 83.399925 160.39294 
L 84.590325 160.868151 
L 85.780725 160.773108 
L 86.971125 161.62847 
L 88.161525 161.248301 
L 89.351925 161.818536 
L 90.542325 161.818536 
L 91.732725 162.76894 
L 92.923125 162.198705 
L 94.113525 162.578855 
L 95.303925 162.483813 
L 96.494325 162.863982 
L 97.684725 162.959024 
L 98.875125 163.244151 
L 100.065525 162.959024 
L 101.255925 163.434217 
L 107.207925 163.434217 
L 108.398325 163.719343 
L 111.969525 163.814385 
L 113.159925 163.529259 
L 115.540725 164.00447 
L 116.731125 163.624301 
L 117.921525 163.909428 
L 119.111925 163.719343 
L 120.302325 164.00447 
L 121.492725 163.529259 
L 122.683125 164.099494 
L 123.873525 163.624301 
L 125.063925 164.099494 
L 126.254325 163.719343 
L 127.444725 163.909428 
L 129.825525 163.434217 
L 131.015925 163.909428 
L 133.396725 163.529259 
L 138.158325 163.529259 
L 139.348725 162.863982 
L 140.539125 163.339175 
L 141.729525 163.434217 
L 144.110325 163.149108 
L 145.300725 163.244151 
L 146.491125 163.149108 
L 147.681525 162.863982 
L 148.871925 162.959024 
L 150.062325 163.339175 
L 152.443125 163.054066 
L 156.014325 163.624301 
L 157.204725 162.673898 
L 158.395125 163.434217 
L 159.585525 163.434217 
L 160.775925 163.719343 
L 164.347125 163.719343 
L 165.537525 164.194536 
L 167.918325 164.099494 
L 169.108725 164.764789 
L 170.299125 164.289578 
L 171.489525 165.049898 
L 172.679925 165.335024 
L 175.060725 165.335024 
L 176.251125 165.14494 
L 177.441525 165.239982 
L 178.631925 166.190385 
L 179.822325 166.285428 
L 181.012725 166.570536 
L 182.203125 166.665578 
L 183.393525 167.52094 
L 185.774325 166.475494 
L 186.964725 167.330855 
L 188.155125 168.946536 
L 189.345525 169.801898 
L 190.535925 169.326705 
L 191.726325 169.13662 
L 192.916725 169.991982 
L 194.107125 169.706855 
L 195.297525 170.087024 
L 196.487925 171.037428 
L 197.678325 170.752301 
L 198.868725 172.177898 
L 200.059125 171.227494 
L 201.249525 171.892789 
L 202.439925 172.27294 
L 206.011125 172.558066 
L 207.201525 173.033259 
L 208.391925 173.128301 
L 209.582325 173.603494 
L 210.772725 173.698536 
L 211.963125 173.033259 
L 213.153525 172.938217 
L 214.343925 173.698536 
L 215.534325 172.938217 
L 216.724725 173.223343 
L 217.915125 173.318385 
L 219.105525 172.748151 
L 220.295925 171.797747 
L 221.486325 171.51262 
L 223.867125 171.417578 
L 225.057525 171.417578 
L 226.247925 170.942385 
L 227.438325 170.942385 
L 228.628725 170.752301 
L 229.819125 170.942385 
L 231.009525 170.277108 
L 232.199925 170.372151 
L 233.390325 170.182066 
L 235.771125 169.421747 
L 236.961525 169.516789 
L 240.532725 168.946536 
L 241.723125 168.946536 
L 248.865525 167.711024 
L 248.865525 167.711024 
" style="fill:none;stroke:#a9a9a9;stroke-linecap:square;stroke-width:0.5;"/>
   </g>
   <g id="line2d_52">
    <path clip-path="url(#p76e7bac880)" d="M 33.627602 332.02825 
L 34.531646 -1 
M 34.983563 -1 
L 35.783925 45.774687 
L 36.974325 130.360301 
L 38.164725 166.76062 
L 39.355125 175.314217 
L 40.545525 174.173747 
L 41.735925 170.562217 
L 42.926325 167.711024 
L 44.116725 165.239982 
L 45.307125 163.529259 
L 46.497525 160.868151 
L 47.687925 160.583024 
L 48.878325 158.967343 
L 51.259125 154.405428 
L 52.449525 152.314536 
L 53.639925 151.269108 
L 54.830325 149.368301 
L 56.020725 148.798066 
L 57.211125 147.467494 
L 58.401525 146.517108 
L 59.591925 146.231982 
L 63.163125 143.095663 
L 64.353525 142.240301 
L 65.543925 141.670066 
L 66.734325 141.575024 
L 67.924725 140.719663 
L 69.115125 140.814705 
L 71.495925 139.484132 
L 72.686325 139.389108 
L 73.876725 138.818855 
L 75.067125 138.533747 
L 76.257525 138.058536 
L 77.447925 138.058536 
L 78.638325 137.678385 
L 79.828725 137.108132 
L 81.019125 137.013108 
L 82.209525 136.537898 
L 83.399925 136.537898 
L 84.590325 135.967663 
L 86.971125 135.777578 
L 88.161525 135.397428 
L 89.351925 135.397428 
L 92.923125 134.922217 
L 94.113525 134.922217 
L 95.303925 135.207343 
L 98.875125 135.017259 
L 101.255925 135.017259 
L 103.636725 135.302385 
L 107.207925 135.682536 
L 108.398325 135.967663 
L 110.779125 136.062705 
L 113.159925 136.727982 
L 115.540725 137.013108 
L 116.731125 137.013108 
L 117.921525 137.203175 
L 119.111925 137.203175 
L 132.206325 139.389108 
L 133.396725 139.674217 
L 134.587125 139.769259 
L 135.777525 140.054385 
L 136.967925 140.149428 
L 139.348725 140.814705 
L 146.491125 141.860132 
L 148.871925 142.145259 
L 150.062325 142.430385 
L 151.252725 142.430385 
L 156.014325 143.285747 
L 160.775925 144.331175 
L 163.156725 144.426217 
L 164.347125 144.711343 
L 165.537525 144.806385 
L 166.727925 145.091494 
L 167.918325 145.186536 
L 169.108725 145.661747 
L 170.299125 145.756789 
L 175.060725 146.802217 
L 176.251125 146.802217 
L 178.631925 147.277428 
L 182.203125 147.467494 
L 184.583925 147.467494 
L 188.155125 148.322855 
L 189.345525 148.417898 
L 190.535925 148.703024 
L 192.916725 148.988132 
L 195.297525 149.273259 
L 196.487925 149.273259 
L 197.678325 149.558385 
L 200.059125 149.558385 
L 201.249525 149.843494 
L 202.439925 149.843494 
L 203.630325 150.033578 
L 206.011125 150.033578 
L 207.201525 150.413747 
L 210.772725 150.698855 
L 211.963125 150.983982 
L 215.534325 151.174066 
L 216.724725 151.174066 
L 217.915125 151.364132 
L 222.676725 151.459175 
L 223.867125 151.649259 
L 229.819125 151.744301 
L 232.199925 152.219494 
L 233.390325 152.12447 
L 238.151925 152.409578 
L 239.342325 152.409578 
L 241.723125 152.789747 
L 246.484725 152.884789 
L 248.865525 152.979813 
L 259.579125 153.074855 
L 261.959925 153.169898 
L 263.150325 153.074855 
L 265.531125 153.455024 
L 270.292725 153.455024 
L 271.483125 153.645108 
L 272.673525 153.550066 
L 273.863925 153.645108 
L 276.244725 153.550066 
L 277.435125 153.645108 
L 278.625525 153.550066 
L 279.815925 153.740151 
L 281.006325 153.550066 
L 283.387125 153.645108 
L 284.577525 153.550066 
L 285.767925 153.645108 
L 286.958325 153.550066 
L 288.148725 153.645108 
L 289.339125 153.455024 
L 291.719925 153.455024 
L 292.910325 152.979813 
L 294.100725 153.074855 
L 295.291125 152.694705 
L 296.481525 152.884789 
L 297.671925 152.789747 
L 298.862325 152.979813 
L 301.243125 153.074855 
L 302.433525 153.169898 
L 303.623925 152.884789 
L 304.814325 152.314536 
L 306.004725 152.314536 
L 307.195125 151.839343 
L 308.385525 151.934385 
L 310.766325 151.269108 
L 311.956725 152.029428 
L 313.147125 151.934385 
L 314.337525 152.219494 
L 315.527925 151.744301 
L 316.718325 151.934385 
L 317.908725 151.744301 
L 319.099125 151.174066 
L 320.289525 151.459175 
L 321.479925 150.983982 
L 322.670325 151.364132 
L 325.051125 150.698855 
L 326.241525 150.88894 
L 327.431925 150.413747 
L 328.622325 150.793898 
L 329.812725 150.508789 
L 331.003125 150.033578 
L 332.193525 150.223663 
L 333.383925 149.558385 
L 334.574325 150.033578 
L 335.764725 149.653428 
L 336.955125 150.033578 
L 338.145525 150.033578 
L 339.335925 149.558385 
L 340.526325 149.843494 
L 341.716725 149.273259 
L 342.907125 149.653428 
L 344.097525 149.653428 
L 345.287925 149.178217 
L 346.478325 149.463343 
L 347.668725 148.988132 
L 348.859125 149.463343 
L 350.049525 148.988132 
L 351.239925 148.798066 
L 352.430325 149.178217 
L 353.620725 148.703024 
L 354.811125 148.988132 
L 356.001525 148.703024 
L 357.191925 149.083175 
L 358.382325 149.083175 
L 359.572725 148.703024 
L 360.763125 148.988132 
L 361.953525 148.51294 
L 363.143925 148.893108 
L 364.334325 148.893108 
L 365.524725 148.51294 
L 366.715125 148.703024 
L 367.905525 148.51294 
L 369.095925 148.988132 
L 370.286325 148.893108 
L 371.476725 148.988132 
L 372.667125 149.273259 
L 373.857525 149.083175 
L 375.047925 149.368301 
L 376.238325 149.368301 
L 377.428725 149.653428 
L 379.809525 149.083175 
L 382.190325 149.463343 
L 388.142325 149.463343 
L 389.332725 149.653428 
L 390.523125 150.12862 
L 391.713525 149.558385 
L 391.713525 149.558385 
" style="fill:none;stroke:#a9a9a9;stroke-linecap:square;stroke-width:0.5;"/>
   </g>
   <g id="line2d_53">
    <path clip-path="url(#p76e7bac880)" d="M 33.631009 332.02825 
L 34.548779 -1 
M 34.863605 -1 
L 35.783925 54.328301 
L 36.974325 116.674536 
L 38.164725 100.612771 
L 39.355125 98.521916 
L 40.545525 98.61694 
L 41.735925 93.389747 
L 42.926325 98.807024 
L 44.116725 101.563193 
L 45.307125 100.897916 
L 46.497525 107.740771 
L 47.687925 106.88541 
L 50.068725 117.054705 
L 51.259125 116.579494 
L 52.449525 121.141428 
L 56.020725 130.170217 
L 57.211125 132.356132 
L 58.401525 135.017259 
L 60.782325 138.628789 
L 61.972725 140.149428 
L 63.163125 143.380789 
L 65.543925 145.566705 
L 66.734325 147.657578 
L 67.924725 148.227813 
L 69.115125 150.318705 
L 70.305525 150.793898 
L 71.495925 152.219494 
L 72.686325 152.314536 
L 73.876725 154.120301 
L 75.067125 154.690536 
L 76.257525 154.405428 
L 77.447925 155.260789 
L 78.638325 155.735982 
L 79.828725 157.351663 
L 81.019125 157.351663 
L 82.209525 158.967343 
L 83.399925 158.967343 
L 84.590325 160.583024 
L 86.971125 160.487982 
L 88.161525 161.723494 
L 89.351925 161.913578 
L 91.732725 161.723494 
L 92.923125 161.438385 
L 94.113525 161.62847 
L 95.303925 162.483813 
L 96.494325 162.863982 
L 101.255925 162.198705 
L 103.636725 162.00862 
L 104.827125 167.045747 
L 107.207925 166.950705 
L 115.540725 165.525108 
L 116.731125 165.239982 
L 117.921525 166.570536 
L 119.111925 167.330855 
L 121.492725 167.996151 
L 122.683125 168.376301 
L 123.873525 169.041578 
L 126.254325 168.566385 
L 127.444725 168.471343 
L 128.635125 168.091175 
L 129.825525 168.091175 
L 131.015925 168.566385 
L 134.587125 169.041578 
L 135.777525 169.13662 
L 138.158325 168.946536 
L 140.539125 168.471343 
L 144.110325 167.901108 
L 148.871925 168.186217 
L 151.252725 168.186217 
L 152.443125 167.901108 
L 157.204725 167.52094 
L 159.585525 167.045747 
L 160.775925 166.855663 
L 169.108725 166.855663 
L 170.299125 166.665578 
L 172.679925 166.950705 
L 173.870325 167.045747 
L 182.203125 166.475494 
L 188.155125 166.950705 
L 190.535925 167.52094 
L 191.726325 167.52094 
L 192.916725 167.901108 
L 194.107125 168.091175 
L 195.297525 168.851494 
L 196.487925 168.851494 
L 197.678325 169.326705 
L 198.868725 169.516789 
L 203.630325 171.51262 
L 204.820725 172.177898 
L 206.011125 172.463024 
L 207.201525 173.033259 
L 208.391925 173.223343 
L 209.582325 173.698536 
L 211.963125 174.173747 
L 213.153525 173.88862 
L 214.343925 174.458855 
L 216.724725 174.743982 
L 217.915125 174.743982 
L 219.105525 175.124151 
L 220.295925 174.553898 
L 221.486325 174.268789 
L 222.676725 174.839024 
L 223.867125 174.268789 
L 226.247925 174.173747 
L 227.438325 173.223343 
L 228.628725 171.987831 
L 231.009525 172.653108 
L 233.390325 173.223343 
L 235.771125 173.413428 
L 236.961525 172.653108 
L 238.151925 172.177898 
L 239.342325 171.987831 
L 240.532725 171.987831 
L 241.723125 171.607663 
L 242.913525 171.51262 
L 244.103925 171.13247 
L 245.294325 170.562217 
L 248.865525 169.991982 
L 250.055925 169.991982 
L 253.627125 169.231663 
L 254.817525 168.661428 
L 254.817525 168.661428 
" style="fill:none;stroke:#a9a9a9;stroke-linecap:square;stroke-width:0.5;"/>
   </g>
   <g id="line2d_54">
    <path clip-path="url(#p76e7bac880)" d="M 33.602689 332.02825 
L 34.4064 -1 
M 36.605981 -1 
L 36.974325 45.964771 
L 38.164725 78.183325 
L 39.355125 98.807024 
L 40.545525 112.967982 
L 41.735925 124.467813 
L 44.116725 142.430385 
L 45.307125 150.698855 
L 46.497525 157.921898 
L 47.687925 161.62847 
L 51.259125 179.781108 
L 54.830325 191.090855 
L 56.020725 193.942066 
L 57.211125 195.177578 
L 58.401525 196.603193 
L 59.591925 199.264301 
L 60.782325 200.02462 
L 61.972725 200.975024 
L 63.163125 202.210536 
L 65.543925 202.780789 
L 66.734325 204.39647 
L 67.924725 204.681578 
L 69.115125 204.016301 
L 73.876725 205.441898 
L 75.067125 205.53694 
L 76.257525 204.491512 
L 78.638325 205.727024 
L 79.828725 205.156789 
L 81.019125 204.39647 
L 82.209525 204.871663 
L 83.399925 205.156789 
L 84.590325 205.156789 
L 85.780725 203.541108 
L 86.971125 203.921259 
L 88.161525 204.111343 
L 89.351925 204.111343 
L 90.542325 202.875831 
L 92.923125 202.590705 
L 94.113525 202.590705 
L 95.303925 201.165108 
L 96.494325 201.070066 
L 97.684725 201.165108 
L 98.875125 200.879982 
L 100.065525 200.975024 
L 101.255925 199.64447 
L 102.446325 199.169259 
L 103.636725 198.979193 
L 106.017525 199.169259 
L 107.207925 198.028789 
L 108.398325 197.363512 
L 109.588725 197.26847 
L 110.779125 197.363512 
L 111.969525 196.983343 
L 113.159925 196.127982 
L 114.350325 195.557747 
L 115.540725 195.177578 
L 116.731125 195.082536 
L 120.302325 193.181747 
L 125.063925 191.28094 
L 126.254325 191.090855 
L 127.444725 190.615663 
L 131.015925 189.760301 
L 132.206325 189.665259 
L 134.587125 188.619831 
L 144.110325 185.578536 
L 145.300725 185.38847 
L 146.491125 184.628151 
L 147.681525 184.438066 
L 148.871925 183.962855 
L 152.443125 183.107512 
L 153.633525 182.347175 
L 154.823925 182.157108 
L 156.014325 181.491831 
L 157.204725 181.206705 
L 158.395125 181.111663 
L 159.585525 180.351343 
L 160.775925 180.351343 
L 161.966325 179.686066 
L 164.347125 179.591024 
L 165.537525 178.830705 
L 167.918325 178.830705 
L 169.108725 178.070385 
L 170.299125 178.070385 
L 171.489525 177.310066 
L 172.679925 177.310066 
L 173.870325 176.739831 
L 175.060725 176.644789 
L 176.251125 176.074536 
L 177.441525 175.979512 
L 179.822325 175.314217 
L 181.012725 174.934066 
L 182.203125 174.743982 
L 183.393525 174.268789 
L 184.583925 174.078705 
L 185.774325 173.698536 
L 186.964725 173.698536 
L 188.155125 173.413428 
L 189.345525 172.938217 
L 190.535925 172.653108 
L 194.107125 171.322536 
L 195.297525 170.467175 
L 202.439925 167.140789 
L 204.820725 166.190385 
L 206.011125 166.38047 
L 208.391925 165.430066 
L 209.582325 165.14494 
L 215.534325 162.388789 
L 217.915125 161.343343 
L 219.105525 160.773108 
L 220.295925 159.917747 
L 221.486325 159.63262 
L 222.676725 158.302066 
L 223.867125 158.01694 
L 225.057525 158.207024 
L 226.247925 156.496301 
L 227.438325 156.686385 
L 231.009525 154.50047 
L 234.580725 152.599663 
L 235.771125 152.12447 
L 238.151925 150.603813 
L 239.342325 150.508789 
L 240.532725 149.843494 
L 241.723125 149.653428 
L 242.913525 148.893108 
L 244.103925 149.083175 
L 245.294325 148.893108 
L 246.484725 148.988132 
L 247.675125 148.607982 
L 248.865525 148.893108 
L 251.246325 148.703024 
L 253.627125 149.558385 
L 257.198325 149.938536 
L 259.579125 150.413747 
L 260.769525 151.364132 
L 261.959925 152.12447 
L 263.150325 152.50462 
L 265.531125 153.550066 
L 266.721525 153.645108 
L 267.911925 154.120301 
L 269.102325 154.215343 
L 270.292725 155.070705 
L 271.483125 155.355813 
L 272.673525 156.116151 
L 277.435125 157.731813 
L 279.815925 158.967343 
L 281.006325 159.25247 
L 282.196725 159.727663 
L 283.387125 160.487982 
L 283.387125 160.487982 
" style="fill:none;stroke:#a9a9a9;stroke-linecap:square;stroke-width:0.5;"/>
   </g>
   <g id="line2d_55">
    <path clip-path="url(#p76e7bac880)" d="M 34.593525 58.890217 
L 35.783925 231.863024 
L 36.974325 235.759663 
L 38.164725 256.573428 
L 39.355125 261.80062 
L 40.545525 250.966066 
L 41.735925 254.767663 
L 42.926325 248.590066 
L 46.497525 226.540789 
L 51.259125 188.999982 
L 53.639925 172.082855 
L 54.830325 164.954855 
L 57.211125 153.074855 
L 58.401525 146.13694 
L 59.591925 142.145259 
L 60.782325 137.678385 
L 61.972725 135.017259 
L 63.163125 131.975982 
L 65.543925 127.984301 
L 66.734325 127.12894 
L 67.924725 125.893428 
L 69.115125 124.943024 
L 72.686325 123.232301 
L 73.876725 122.947175 
L 75.067125 123.232301 
L 76.257525 123.232301 
L 77.447925 122.852132 
L 78.638325 122.852132 
L 79.828725 123.137259 
L 81.019125 123.042217 
L 82.209525 123.517428 
L 84.590325 123.802536 
L 89.351925 124.847982 
L 90.542325 125.608301 
L 91.732725 125.703343 
L 92.923125 126.273578 
L 94.113525 126.653747 
L 97.684725 128.364452 
L 101.255925 129.314855 
L 106.017525 130.930536 
L 108.398325 131.975982 
L 110.779125 132.831343 
L 111.969525 133.401578 
L 113.159925 133.686705 
L 114.350325 134.25694 
L 119.111925 135.777578 
L 121.492725 136.823024 
L 122.683125 137.203175 
L 123.873525 137.773428 
L 126.254325 138.24862 
L 129.825525 139.579175 
L 131.015925 139.864301 
L 133.396725 140.909747 
L 135.777525 141.575024 
L 139.348725 143.190705 
L 142.919925 144.331175 
L 144.110325 144.331175 
L 145.300725 144.616301 
L 146.491125 145.281578 
L 148.871925 145.851813 
L 150.062325 145.946855 
L 151.252725 146.327024 
L 152.443125 146.422066 
L 154.823925 147.277428 
L 156.014325 147.277428 
L 157.204725 147.657578 
L 158.395125 147.75262 
L 161.966325 148.798066 
L 163.156725 149.083175 
L 164.347125 149.178217 
L 166.727925 150.033578 
L 167.918325 150.033578 
L 169.108725 150.413747 
L 172.679925 150.983982 
L 176.251125 152.314536 
L 182.203125 153.359982 
L 183.393525 153.645108 
L 184.583925 153.645108 
L 185.774325 154.120301 
L 186.964725 154.025259 
L 189.345525 154.690536 
L 190.535925 154.50047 
L 191.726325 154.88062 
L 192.916725 154.88062 
L 194.107125 155.260789 
L 195.297525 155.260789 
L 197.678325 155.831024 
L 198.868725 155.831024 
L 200.059125 156.211175 
L 201.249525 156.116151 
L 203.630325 156.87647 
L 204.820725 156.971494 
L 206.011125 157.541747 
L 207.201525 157.636789 
L 208.391925 157.921898 
L 209.582325 157.731813 
L 210.772725 157.826855 
L 211.963125 158.111982 
L 214.343925 158.111982 
L 215.534325 158.587175 
L 217.915125 158.872301 
L 219.105525 158.397108 
L 220.295925 158.777259 
L 221.486325 158.777259 
L 222.676725 159.157428 
L 223.867125 159.062385 
L 225.057525 159.822705 
L 226.247925 159.63262 
L 227.438325 160.202855 
L 231.009525 160.012789 
L 232.199925 160.012789 
L 233.390325 159.63262 
L 235.771125 159.537578 
L 236.961525 161.62847 
L 238.151925 161.913578 
L 240.532725 161.62847 
L 241.723125 161.818536 
L 242.913525 161.723494 
L 244.103925 162.388789 
L 245.294325 162.293747 
L 246.484725 162.76894 
L 247.675125 162.483813 
L 248.865525 162.388789 
L 250.055925 162.578855 
L 251.246325 162.578855 
L 252.436725 163.054066 
L 256.007925 163.149108 
L 257.198325 163.909428 
L 258.388725 163.624301 
L 259.579125 164.099494 
L 260.769525 163.814385 
L 261.959925 164.289578 
L 263.150325 164.099494 
L 264.340725 164.669747 
L 265.531125 164.289578 
L 266.721525 164.859831 
L 267.911925 164.764789 
L 269.102325 165.525108 
L 270.292725 165.239982 
L 271.483125 165.810217 
L 272.673525 165.335024 
L 273.863925 166.000301 
L 275.054325 165.905259 
L 276.244725 166.570536 
L 277.435125 166.285428 
L 278.625525 166.285428 
L 279.815925 166.665578 
L 281.006325 166.665578 
L 282.196725 166.855663 
L 283.387125 166.76062 
L 284.577525 167.330855 
L 285.767925 167.140789 
L 286.958325 167.330855 
L 288.148725 167.330855 
L 289.339125 167.711024 
L 290.529525 167.711024 
L 291.719925 168.186217 
L 292.910325 168.091175 
L 294.100725 168.281259 
L 295.291125 168.186217 
L 296.481525 168.376301 
L 297.671925 168.376301 
L 298.862325 168.851494 
L 300.052725 168.851494 
L 301.243125 169.041578 
L 302.433525 168.946536 
L 303.623925 169.326705 
L 304.814325 169.13662 
L 306.004725 169.421747 
L 307.195125 169.231663 
L 308.385525 169.801898 
L 311.956725 169.231663 
L 317.908725 169.231663 
L 319.099125 169.421747 
L 320.289525 169.421747 
L 321.479925 169.231663 
L 325.051125 169.231663 
L 326.241525 169.421747 
L 329.812725 169.13662 
L 331.003125 169.326705 
L 332.193525 169.326705 
L 333.383925 169.13662 
L 335.764725 169.326705 
L 336.955125 169.231663 
L 338.145525 168.946536 
L 339.335925 169.041578 
L 340.526325 168.946536 
L 341.716725 169.041578 
L 342.907125 168.946536 
L 344.097525 169.231663 
L 345.287925 168.75647 
L 347.668725 168.661428 
L 350.049525 168.75647 
L 352.430325 168.75647 
L 353.620725 168.376301 
L 354.811125 168.376301 
L 356.001525 168.661428 
L 356.001525 168.661428 
" style="fill:none;stroke:#a9a9a9;stroke-linecap:square;stroke-width:0.5;"/>
   </g>
   <g id="line2d_56">
    <path clip-path="url(#p76e7bac880)" d="M 33.715658 332.02825 
L 34.593525 99.75741 
L 35.514702 -1 
M 37.868287 -1 
L 39.355125 199.64447 
L 40.545525 185.958705 
L 41.735925 184.533108 
L 42.926325 182.822385 
L 44.116725 177.595175 
L 45.307125 173.88862 
L 46.497525 175.88447 
L 47.687925 173.128301 
L 50.068725 179.115831 
L 51.259125 181.586855 
L 52.449525 183.39262 
L 53.639925 184.15294 
L 54.830325 185.198385 
L 56.020725 185.863663 
L 57.211125 186.243831 
L 58.401525 184.628151 
L 59.591925 186.243831 
L 60.782325 185.578536 
L 61.972725 183.772789 
L 63.163125 183.962855 
L 64.353525 183.202536 
L 66.734325 180.826536 
L 67.924725 181.301747 
L 69.115125 179.591024 
L 70.305525 178.165428 
L 71.495925 178.165428 
L 72.686325 176.739831 
L 73.876725 175.599343 
L 75.067125 175.029108 
L 76.257525 173.603494 
L 77.447925 172.367982 
L 78.638325 172.082855 
L 79.828725 170.562217 
L 81.019125 170.087024 
L 82.209525 168.851494 
L 83.399925 168.566385 
L 84.590325 166.76062 
L 85.780725 166.76062 
L 86.971125 166.38047 
L 88.161525 165.810217 
L 89.351925 164.194536 
L 90.542325 163.719343 
L 91.732725 163.529259 
L 92.923125 162.00862 
L 94.113525 161.438385 
L 96.494325 161.058217 
L 98.875125 160.39294 
L 100.065525 159.157428 
L 101.255925 158.207024 
L 103.636725 157.921898 
L 104.827125 157.351663 
L 106.017525 157.25662 
L 107.207925 156.591343 
L 108.398325 156.496301 
L 110.779125 156.021108 
L 111.969525 155.926066 
L 114.350325 155.260789 
L 116.731125 154.50047 
L 117.921525 153.930217 
L 121.492725 152.694705 
L 122.683125 153.550066 
L 123.873525 153.169898 
L 125.063925 153.26494 
L 126.254325 152.884789 
L 127.444725 153.074855 
L 132.206325 152.409578 
L 134.587125 152.50462 
L 136.967925 152.219494 
L 138.158325 152.409578 
L 140.539125 152.314536 
L 142.919925 152.219494 
L 145.300725 152.314536 
L 146.491125 152.599663 
L 150.062325 152.50462 
L 151.252725 152.409578 
L 152.443125 152.599663 
L 153.633525 152.314536 
L 154.823925 152.409578 
L 156.014325 152.314536 
L 161.966325 152.789747 
L 163.156725 152.599663 
L 164.347125 152.789747 
L 165.537525 153.169898 
L 167.918325 153.169898 
L 169.108725 153.359982 
L 172.679925 153.455024 
L 173.870325 153.550066 
L 175.060725 153.455024 
L 182.203125 154.025259 
L 184.583925 153.835175 
L 185.774325 154.215343 
L 189.345525 154.785578 
L 194.107125 154.88062 
L 195.297525 155.070705 
L 197.678325 155.165747 
L 198.868725 155.260789 
L 200.059125 155.165747 
L 202.439925 155.450855 
L 206.011125 155.545898 
L 208.391925 155.831024 
L 209.582325 155.735982 
L 210.772725 155.831024 
L 211.963125 156.211175 
L 213.153525 156.116151 
L 214.343925 156.211175 
L 215.534325 156.116151 
L 220.295925 156.401259 
L 221.486325 156.306217 
L 226.247925 156.591343 
L 229.819125 156.401259 
L 233.390325 156.591343 
L 234.580725 156.306217 
L 235.771125 155.64094 
L 236.961525 155.64094 
L 238.151925 156.211175 
L 239.342325 156.306217 
L 240.532725 156.686385 
L 244.103925 156.211175 
L 245.294325 156.211175 
L 246.484725 155.926066 
L 247.675125 155.831024 
L 248.865525 155.926066 
L 252.436725 155.450855 
L 253.627125 154.88062 
L 254.817525 155.070705 
L 256.007925 154.690536 
L 257.198325 153.835175 
L 258.388725 154.025259 
L 259.579125 153.26494 
L 260.769525 153.359982 
L 263.150325 152.50462 
L 264.340725 152.029428 
L 265.531125 151.744301 
L 266.721525 152.12447 
L 267.911925 151.554217 
L 269.102325 151.174066 
L 270.292725 151.079024 
L 271.483125 151.269108 
L 272.673525 150.983982 
L 273.863925 151.079024 
L 275.054325 151.459175 
L 276.244725 150.793898 
L 277.435125 151.174066 
L 278.625525 151.079024 
L 282.196725 151.934385 
L 283.387125 152.029428 
L 285.767925 152.789747 
L 286.958325 152.599663 
L 288.148725 153.074855 
L 289.339125 153.359982 
L 290.529525 154.120301 
L 296.481525 155.64094 
L 297.671925 155.64094 
L 300.052725 156.401259 
L 301.243125 157.066536 
L 303.623925 157.541747 
L 304.814325 158.01694 
L 306.004725 158.682217 
L 308.385525 158.587175 
L 309.575925 158.967343 
L 310.766325 159.157428 
L 311.956725 159.727663 
L 313.147125 160.107813 
L 314.337525 160.107813 
L 315.527925 160.678066 
L 322.670325 161.913578 
L 323.860725 162.293747 
L 325.051125 162.293747 
L 326.241525 162.673898 
L 327.431925 162.76894 
L 327.431925 162.76894 
" style="fill:none;stroke:#a9a9a9;stroke-linecap:square;stroke-width:0.5;"/>
   </g>
   <g id="line2d_57">
    <path clip-path="url(#p76e7bac880)" d="M 33.866956 332.02825 
L 34.593525 202.495663 
L 35.783925 84.931193 
L 36.974325 184.343024 
L 38.164725 197.743663 
L 41.735925 181.871982 
L 42.926325 177.405108 
L 44.116725 174.458855 
L 45.307125 171.13247 
L 47.687925 166.38047 
L 48.878325 163.624301 
L 50.068725 162.103663 
L 51.259125 160.39294 
L 52.449525 159.442536 
L 53.639925 157.636789 
L 54.830325 156.496301 
L 56.020725 154.975663 
L 57.211125 154.215343 
L 58.401525 153.930217 
L 59.591925 151.839343 
L 60.782325 152.884789 
L 61.972725 150.88894 
L 63.163125 152.409578 
L 64.353525 151.839343 
L 65.543925 150.033578 
L 69.115125 149.74847 
L 70.305525 149.843494 
L 71.495925 149.74847 
L 72.686325 149.463343 
L 73.876725 149.463343 
L 75.067125 149.653428 
L 78.638325 149.273259 
L 79.828725 149.463343 
L 85.780725 149.083175 
L 86.971125 148.417898 
L 88.161525 148.607982 
L 89.351925 149.273259 
L 90.542325 149.558385 
L 91.732725 149.178217 
L 92.923125 148.988132 
L 97.684725 149.74847 
L 98.875125 149.558385 
L 101.255925 149.938536 
L 102.446325 150.508789 
L 103.636725 150.223663 
L 104.827125 150.223663 
L 108.398325 149.74847 
L 109.588725 150.033578 
L 110.779125 150.12862 
L 113.159925 150.603813 
L 115.540725 150.88894 
L 116.731125 151.364132 
L 117.921525 150.88894 
L 119.111925 150.793898 
L 121.492725 151.364132 
L 122.683125 151.174066 
L 123.873525 151.554217 
L 125.063925 151.459175 
L 127.444725 151.934385 
L 128.635125 151.744301 
L 131.015925 151.839343 
L 135.777525 152.219494 
L 136.967925 152.599663 
L 139.348725 152.694705 
L 140.539125 153.074855 
L 141.729525 153.26494 
L 142.919925 153.169898 
L 144.110325 152.694705 
L 145.300725 152.884789 
L 150.062325 152.979813 
L 152.443125 153.26494 
L 153.633525 152.884789 
L 154.823925 152.789747 
L 156.014325 152.50462 
L 157.204725 152.50462 
L 158.395125 152.789747 
L 160.775925 152.694705 
L 161.966325 152.884789 
L 164.347125 152.789747 
L 169.108725 152.789747 
L 170.299125 152.599663 
L 171.489525 152.219494 
L 173.870325 152.884789 
L 176.251125 152.979813 
L 177.441525 153.169898 
L 178.631925 153.169898 
L 179.822325 152.979813 
L 182.203125 153.074855 
L 183.393525 152.884789 
L 184.583925 152.50462 
L 185.774325 152.50462 
L 186.964725 152.12447 
L 188.155125 152.314536 
L 189.345525 151.554217 
L 190.535925 151.839343 
L 191.726325 151.364132 
L 192.916725 151.079024 
L 194.107125 150.603813 
L 195.297525 150.318705 
L 196.487925 151.174066 
L 197.678325 150.603813 
L 198.868725 150.223663 
L 202.439925 149.558385 
L 203.630325 149.178217 
L 204.820725 149.463343 
L 206.011125 148.798066 
L 207.201525 148.798066 
L 211.963125 147.75262 
L 213.153525 147.75262 
L 214.343925 147.467494 
L 215.534325 147.75262 
L 216.724725 146.897259 
L 217.915125 146.992301 
L 219.105525 146.517108 
L 220.295925 146.517108 
L 222.676725 146.13694 
L 226.247925 146.897259 
L 229.819125 146.707175 
L 231.009525 146.707175 
L 232.199925 146.13694 
L 233.390325 146.897259 
L 235.771125 146.992301 
L 236.961525 146.802217 
L 238.151925 147.182385 
L 239.342325 146.992301 
L 242.913525 147.277428 
L 244.103925 147.182385 
L 246.484725 147.657578 
L 247.675125 147.37247 
L 248.865525 148.227813 
L 248.865525 148.227813 
" style="fill:none;stroke:#a9a9a9;stroke-linecap:square;stroke-width:0.5;"/>
   </g>
   <g id="line2d_58">
    <path clip-path="url(#p76e7bac880)" d="M 33.403125 156.27168 
L 390.523125 156.27168 
" style="fill:none;stroke:#000000;stroke-linecap:square;"/>
   </g>
   <g id="patch_3">
    <path d="M 33.403125 300.672 
L 33.403125 34.56 
" style="fill:none;stroke:#000000;stroke-linecap:square;stroke-linejoin:miter;stroke-width:0.8;"/>
   </g>
   <g id="patch_4">
    <path d="M 390.523125 300.672 
L 390.523125 34.56 
" style="fill:none;stroke:#000000;stroke-linecap:square;stroke-linejoin:miter;stroke-width:0.8;"/>
   </g>
   <g id="patch_5">
    <path d="M 33.403125 300.672 
L 390.523125 300.672 
" style="fill:none;stroke:#000000;stroke-linecap:square;stroke-linejoin:miter;stroke-width:0.8;"/>
   </g>
   <g id="patch_6">
    <path d="M 33.403125 34.56 
L 390.523125 34.56 
" style="fill:none;stroke:#000000;stroke-linecap:square;stroke-linejoin:miter;stroke-width:0.8;"/>
   </g>
   <g id="text_18">
    <!-- 11 Agents: $K_p=0.5$ $\delta=0.1$ -->
    <defs>
     <path id="DejaVuSans-20"/>
     <path d="M 34.1875 63.1875 
L 20.796875 26.90625 
L 47.609375 26.90625 
z
M 28.609375 72.90625 
L 39.796875 72.90625 
L 67.578125 0 
L 57.328125 0 
L 50.6875 18.703125 
L 17.828125 18.703125 
L 11.1875 0 
L 0.78125 0 
z
" id="DejaVuSans-41"/>
     <path d="M 45.40625 27.984375 
Q 45.40625 37.75 41.375 43.109375 
Q 37.359375 48.484375 30.078125 48.484375 
Q 22.859375 48.484375 18.828125 43.109375 
Q 14.796875 37.75 14.796875 27.984375 
Q 14.796875 18.265625 18.828125 12.890625 
Q 22.859375 7.515625 30.078125 7.515625 
Q 37.359375 7.515625 41.375 12.890625 
Q 45.40625 18.265625 45.40625 27.984375 
z
M 54.390625 6.78125 
Q 54.390625 -7.171875 48.1875 -13.984375 
Q 42 -20.796875 29.203125 -20.796875 
Q 24.46875 -20.796875 20.265625 -20.09375 
Q 16.0625 -19.390625 12.109375 -17.921875 
L 12.109375 -9.1875 
Q 16.0625 -11.328125 19.921875 -12.34375 
Q 23.78125 -13.375 27.78125 -13.375 
Q 36.625 -13.375 41.015625 -8.765625 
Q 45.40625 -4.15625 45.40625 5.171875 
L 45.40625 9.625 
Q 42.625 4.78125 38.28125 2.390625 
Q 33.9375 0 27.875 0 
Q 17.828125 0 11.671875 7.65625 
Q 5.515625 15.328125 5.515625 27.984375 
Q 5.515625 40.671875 11.671875 48.328125 
Q 17.828125 56 27.875 56 
Q 33.9375 56 38.28125 53.609375 
Q 42.625 51.21875 45.40625 46.390625 
L 45.40625 54.6875 
L 54.390625 54.6875 
z
" id="DejaVuSans-67"/>
     <path d="M 18.3125 70.21875 
L 18.3125 54.6875 
L 36.8125 54.6875 
L 36.8125 47.703125 
L 18.3125 47.703125 
L 18.3125 18.015625 
Q 18.3125 11.328125 20.140625 9.421875 
Q 21.96875 7.515625 27.59375 7.515625 
L 36.8125 7.515625 
L 36.8125 0 
L 27.59375 0 
Q 17.1875 0 13.234375 3.875 
Q 9.28125 7.765625 9.28125 18.015625 
L 9.28125 47.703125 
L 2.6875 47.703125 
L 2.6875 54.6875 
L 9.28125 54.6875 
L 9.28125 70.21875 
z
" id="DejaVuSans-74"/>
     <path d="M 44.28125 53.078125 
L 44.28125 44.578125 
Q 40.484375 46.53125 36.375 47.5 
Q 32.28125 48.484375 27.875 48.484375 
Q 21.1875 48.484375 17.84375 46.4375 
Q 14.5 44.390625 14.5 40.28125 
Q 14.5 37.15625 16.890625 35.375 
Q 19.28125 33.59375 26.515625 31.984375 
L 29.59375 31.296875 
Q 39.15625 29.25 43.1875 25.515625 
Q 47.21875 21.78125 47.21875 15.09375 
Q 47.21875 7.46875 41.1875 3.015625 
Q 35.15625 -1.421875 24.609375 -1.421875 
Q 20.21875 -1.421875 15.453125 -0.5625 
Q 10.6875 0.296875 5.421875 2 
L 5.421875 11.28125 
Q 10.40625 8.6875 15.234375 7.390625 
Q 20.0625 6.109375 24.8125 6.109375 
Q 31.15625 6.109375 34.5625 8.28125 
Q 37.984375 10.453125 37.984375 14.40625 
Q 37.984375 18.0625 35.515625 20.015625 
Q 33.0625 21.96875 24.703125 23.78125 
L 21.578125 24.515625 
Q 13.234375 26.265625 9.515625 29.90625 
Q 5.8125 33.546875 5.8125 39.890625 
Q 5.8125 47.609375 11.28125 51.796875 
Q 16.75 56 26.8125 56 
Q 31.78125 56 36.171875 55.265625 
Q 40.578125 54.546875 44.28125 53.078125 
z
" id="DejaVuSans-73"/>
     <path d="M 11.71875 12.40625 
L 22.015625 12.40625 
L 22.015625 0 
L 11.71875 0 
z
M 11.71875 51.703125 
L 22.015625 51.703125 
L 22.015625 39.3125 
L 11.71875 39.3125 
z
" id="DejaVuSans-3a"/>
     <path d="M 16.890625 72.90625 
L 26.8125 72.90625 
L 20.796875 42.1875 
L 59.078125 72.90625 
L 72.21875 72.90625 
L 28.90625 38.09375 
L 60.59375 0 
L 48.578125 0 
L 19.484375 35.5 
L 12.59375 0 
L 2.6875 0 
z
" id="DejaVuSans-Oblique-4b"/>
     <path d="M 49.609375 33.6875 
Q 49.609375 40.875 46.484375 44.671875 
Q 43.359375 48.484375 37.5 48.484375 
Q 33.5 48.484375 29.859375 46.4375 
Q 26.21875 44.390625 23.390625 40.484375 
Q 20.609375 36.625 18.9375 31.15625 
Q 17.28125 25.6875 17.28125 20.3125 
Q 17.28125 13.484375 20.40625 9.796875 
Q 23.53125 6.109375 29.296875 6.109375 
Q 33.546875 6.109375 37.1875 8.109375 
Q 40.828125 10.109375 43.40625 13.921875 
Q 46.1875 17.921875 47.890625 23.34375 
Q 49.609375 28.765625 49.609375 33.6875 
z
M 21.78125 46.390625 
Q 25.390625 51.125 30.296875 53.5625 
Q 35.203125 56 41.21875 56 
Q 49.609375 56 54.25 50.5 
Q 58.890625 45.015625 58.890625 35.109375 
Q 58.890625 27 56 19.65625 
Q 53.125 12.3125 47.703125 6.5 
Q 44.09375 2.640625 39.546875 0.609375 
Q 35.015625 -1.421875 29.984375 -1.421875 
Q 24.171875 -1.421875 20.21875 1 
Q 16.265625 3.421875 14.3125 8.203125 
L 8.6875 -20.796875 
L -0.296875 -20.796875 
L 14.40625 54.6875 
L 23.390625 54.6875 
z
" id="DejaVuSans-Oblique-70"/>
     <path d="M 10.59375 45.40625 
L 73.1875 45.40625 
L 73.1875 37.203125 
L 10.59375 37.203125 
z
M 10.59375 25.484375 
L 73.1875 25.484375 
L 73.1875 17.1875 
L 10.59375 17.1875 
z
" id="DejaVuSans-3d"/>
     <path d="M 10.6875 12.40625 
L 21 12.40625 
L 21 0 
L 10.6875 0 
z
" id="DejaVuSans-2e"/>
     <path d="M 54.25 63.328125 
Q 49.953125 66.75 38.28125 66.75 
Q 25.921875 66.75 24.8125 61.03125 
Q 23.921875 56.546875 36.375 54.203125 
Q 46.140625 52.390625 50.828125 46.921875 
Q 56.5 40.328125 53.859375 26.8125 
Q 51.3125 13.875 43.171875 6.25 
Q 34.96875 -1.421875 23.25 -1.421875 
Q 11.578125 -1.421875 6.34375 6.25 
Q 1.125 13.875 3.765625 27.296875 
Q 5.671875 37.25 13.921875 45.3125 
Q 17.140625 48.4375 21.140625 50.203125 
Q 14.265625 54.046875 15.625 60.9375 
Q 18.21875 74.21875 39.75 74.21875 
Q 50.53125 74.21875 55.71875 70.796875 
z
M 27.390625 47.75 
Q 23.828125 46.34375 20.40625 42.78125 
Q 15.140625 37.25 13.234375 27.296875 
Q 11.28125 17.390625 14.359375 11.8125 
Q 17.484375 6.203125 24.75 6.203125 
Q 31.9375 6.203125 37.203125 11.859375 
Q 42.53125 17.53125 44.34375 26.8125 
Q 46.1875 36.53125 42.671875 41.21875 
Q 38.921875 46.234375 32.859375 46.78125 
Q 29.78125 47.078125 27.390625 47.75 
z
" id="DejaVuSans-Oblique-3b4"/>
    </defs>
    <g transform="translate(131.443125 28.56)scale(0.12 -0.12)">
     <use transform="translate(0 0.78125)" xlink:href="#DejaVuSans-31"/>
     <use transform="translate(63.623047 0.78125)" xlink:href="#DejaVuSans-31"/>
     <use transform="translate(127.246094 0.78125)" xlink:href="#DejaVuSans-20"/>
     <use transform="translate(159.033203 0.78125)" xlink:href="#DejaVuSans-41"/>
     <use transform="translate(227.441406 0.78125)" xlink:href="#DejaVuSans-67"/>
     <use transform="translate(290.917969 0.78125)" xlink:href="#DejaVuSans-65"/>
     <use transform="translate(352.441406 0.78125)" xlink:href="#DejaVuSans-6e"/>
     <use transform="translate(415.820312 0.78125)" xlink:href="#DejaVuSans-74"/>
     <use transform="translate(455.029297 0.78125)" xlink:href="#DejaVuSans-73"/>
     <use transform="translate(507.128906 0.78125)" xlink:href="#DejaVuSans-3a"/>
     <use transform="translate(540.820312 0.78125)" xlink:href="#DejaVuSans-20"/>
     <use transform="translate(572.607422 0.78125)" xlink:href="#DejaVuSans-Oblique-4b"/>
     <use transform="translate(638.183594 -15.625)scale(0.7)" xlink:href="#DejaVuSans-Oblique-70"/>
     <use transform="translate(704.833984 0.78125)" xlink:href="#DejaVuSans-3d"/>
     <use transform="translate(808.105469 0.78125)" xlink:href="#DejaVuSans-30"/>
     <use transform="translate(871.728516 0.78125)" xlink:href="#DejaVuSans-2e"/>
     <use transform="translate(903.515625 0.78125)" xlink:href="#DejaVuSans-35"/>
     <use transform="translate(967.138672 0.78125)" xlink:href="#DejaVuSans-20"/>
     <use transform="translate(998.925781 0.78125)" xlink:href="#DejaVuSans-Oblique-3b4"/>
     <use transform="translate(1079.589844 0.78125)" xlink:href="#DejaVuSans-3d"/>
     <use transform="translate(1182.861328 0.78125)" xlink:href="#DejaVuSans-30"/>
     <use transform="translate(1246.484375 0.78125)" xlink:href="#DejaVuSans-2e"/>
     <use transform="translate(1278.271484 0.78125)" xlink:href="#DejaVuSans-31"/>
    </g>
   </g>
   <g id="legend_1">
    <g id="patch_7">
     <path d="M 343.323125 71.91625 
L 383.523125 71.91625 
Q 385.523125 71.91625 385.523125 69.91625 
L 385.523125 41.56 
Q 385.523125 39.56 383.523125 39.56 
L 343.323125 39.56 
Q 341.323125 39.56 341.323125 41.56 
L 341.323125 69.91625 
Q 341.323125 71.91625 343.323125 71.91625 
z
" style="fill:#ffffff;opacity:0.8;stroke:#cccccc;stroke-linejoin:miter;"/>
    </g>
    <g id="line2d_59">
     <path d="M 345.323125 47.658437 
L 365.323125 47.658437 
" style="fill:none;stroke:#a9a9a9;stroke-linecap:square;stroke-width:0.5;"/>
    </g>
    <g id="line2d_60"/>
    <g id="text_19">
     <!-- $\lambda_i$ -->
     <g transform="translate(373.323125 51.158437)scale(0.1 -0.1)">
      <use transform="translate(0 0.015625)" xlink:href="#DejaVuSans-Oblique-3bb"/>
      <use transform="translate(59.179688 -16.390625)scale(0.7)" xlink:href="#DejaVuSans-Oblique-69"/>
     </g>
    </g>
    <g id="line2d_61">
     <path d="M 345.323125 62.336562 
L 365.323125 62.336562 
" style="fill:none;stroke:#000000;stroke-linecap:square;"/>
    </g>
    <g id="line2d_62"/>
    <g id="text_20">
     <!-- $\bar{\lambda}$ -->
     <defs>
      <path d="M -39.34375 74.515625 
L -10.15625 74.515625 
L -10.15625 67.28125 
L -39.34375 67.28125 
z
" id="DejaVuSans-304"/>
     </defs>
     <g transform="translate(373.323125 65.836562)scale(0.1 -0.1)">
      <use transform="translate(62.138672 21.484375)" xlink:href="#DejaVuSans-304"/>
      <use transform="translate(0 0.28125)" xlink:href="#DejaVuSans-Oblique-3bb"/>
     </g>
    </g>
   </g>
  </g>
  <g id="text_21">
   <!-- Remote $\lambda_i$ Convergence Per Iteration -->
   <defs>
    <path d="M 44.390625 34.1875 
Q 47.5625 33.109375 50.5625 29.59375 
Q 53.5625 26.078125 56.59375 19.921875 
L 66.609375 0 
L 56 0 
L 46.6875 18.703125 
Q 43.0625 26.03125 39.671875 28.421875 
Q 36.28125 30.8125 30.421875 30.8125 
L 19.671875 30.8125 
L 19.671875 0 
L 9.8125 0 
L 9.8125 72.90625 
L 32.078125 72.90625 
Q 44.578125 72.90625 50.734375 67.671875 
Q 56.890625 62.453125 56.890625 51.90625 
Q 56.890625 45.015625 53.6875 40.46875 
Q 50.484375 35.9375 44.390625 34.1875 
z
M 19.671875 64.796875 
L 19.671875 38.921875 
L 32.078125 38.921875 
Q 39.203125 38.921875 42.84375 42.21875 
Q 46.484375 45.515625 46.484375 51.90625 
Q 46.484375 58.296875 42.84375 61.546875 
Q 39.203125 64.796875 32.078125 64.796875 
z
" id="DejaVuSans-52"/>
    <path d="M 52 44.1875 
Q 55.375 50.25 60.0625 53.125 
Q 64.75 56 71.09375 56 
Q 79.640625 56 84.28125 50.015625 
Q 88.921875 44.046875 88.921875 33.015625 
L 88.921875 0 
L 79.890625 0 
L 79.890625 32.71875 
Q 79.890625 40.578125 77.09375 44.375 
Q 74.3125 48.1875 68.609375 48.1875 
Q 61.625 48.1875 57.5625 43.546875 
Q 53.515625 38.921875 53.515625 30.90625 
L 53.515625 0 
L 44.484375 0 
L 44.484375 32.71875 
Q 44.484375 40.625 41.703125 44.40625 
Q 38.921875 48.1875 33.109375 48.1875 
Q 26.21875 48.1875 22.15625 43.53125 
Q 18.109375 38.875 18.109375 30.90625 
L 18.109375 0 
L 9.078125 0 
L 9.078125 54.6875 
L 18.109375 54.6875 
L 18.109375 46.1875 
Q 21.1875 51.21875 25.484375 53.609375 
Q 29.78125 56 35.6875 56 
Q 41.65625 56 45.828125 52.96875 
Q 50 49.953125 52 44.1875 
z
" id="DejaVuSans-6d"/>
    <path d="M 30.609375 48.390625 
Q 23.390625 48.390625 19.1875 42.75 
Q 14.984375 37.109375 14.984375 27.296875 
Q 14.984375 17.484375 19.15625 11.84375 
Q 23.34375 6.203125 30.609375 6.203125 
Q 37.796875 6.203125 41.984375 11.859375 
Q 46.1875 17.53125 46.1875 27.296875 
Q 46.1875 37.015625 41.984375 42.703125 
Q 37.796875 48.390625 30.609375 48.390625 
z
M 30.609375 56 
Q 42.328125 56 49.015625 48.375 
Q 55.71875 40.765625 55.71875 27.296875 
Q 55.71875 13.875 49.015625 6.21875 
Q 42.328125 -1.421875 30.609375 -1.421875 
Q 18.84375 -1.421875 12.171875 6.21875 
Q 5.515625 13.875 5.515625 27.296875 
Q 5.515625 40.765625 12.171875 48.375 
Q 18.84375 56 30.609375 56 
z
" id="DejaVuSans-6f"/>
    <path d="M 64.40625 67.28125 
L 64.40625 56.890625 
Q 59.421875 61.53125 53.78125 63.8125 
Q 48.140625 66.109375 41.796875 66.109375 
Q 29.296875 66.109375 22.65625 58.46875 
Q 16.015625 50.828125 16.015625 36.375 
Q 16.015625 21.96875 22.65625 14.328125 
Q 29.296875 6.6875 41.796875 6.6875 
Q 48.140625 6.6875 53.78125 8.984375 
Q 59.421875 11.28125 64.40625 15.921875 
L 64.40625 5.609375 
Q 59.234375 2.09375 53.4375 0.328125 
Q 47.65625 -1.421875 41.21875 -1.421875 
Q 24.65625 -1.421875 15.125 8.703125 
Q 5.609375 18.84375 5.609375 36.375 
Q 5.609375 53.953125 15.125 64.078125 
Q 24.65625 74.21875 41.21875 74.21875 
Q 47.75 74.21875 53.53125 72.484375 
Q 59.328125 70.75 64.40625 67.28125 
z
" id="DejaVuSans-43"/>
    <path d="M 2.984375 54.6875 
L 12.5 54.6875 
L 29.59375 8.796875 
L 46.6875 54.6875 
L 56.203125 54.6875 
L 35.6875 0 
L 23.484375 0 
z
" id="DejaVuSans-76"/>
    <path d="M 41.109375 46.296875 
Q 39.59375 47.171875 37.8125 47.578125 
Q 36.03125 48 33.890625 48 
Q 26.265625 48 22.1875 43.046875 
Q 18.109375 38.09375 18.109375 28.8125 
L 18.109375 0 
L 9.078125 0 
L 9.078125 54.6875 
L 18.109375 54.6875 
L 18.109375 46.1875 
Q 20.953125 51.171875 25.484375 53.578125 
Q 30.03125 56 36.53125 56 
Q 37.453125 56 38.578125 55.875 
Q 39.703125 55.765625 41.0625 55.515625 
z
" id="DejaVuSans-72"/>
    <path d="M 19.671875 64.796875 
L 19.671875 37.40625 
L 32.078125 37.40625 
Q 38.96875 37.40625 42.71875 40.96875 
Q 46.484375 44.53125 46.484375 51.125 
Q 46.484375 57.671875 42.71875 61.234375 
Q 38.96875 64.796875 32.078125 64.796875 
z
M 9.8125 72.90625 
L 32.078125 72.90625 
Q 44.34375 72.90625 50.609375 67.359375 
Q 56.890625 61.8125 56.890625 51.125 
Q 56.890625 40.328125 50.609375 34.8125 
Q 44.34375 29.296875 32.078125 29.296875 
L 19.671875 29.296875 
L 19.671875 0 
L 9.8125 0 
z
" id="DejaVuSans-50"/>
    <path d="M 9.8125 72.90625 
L 19.671875 72.90625 
L 19.671875 0 
L 9.8125 0 
z
" id="DejaVuSans-49"/>
    <path d="M 34.28125 27.484375 
Q 23.390625 27.484375 19.1875 25 
Q 14.984375 22.515625 14.984375 16.5 
Q 14.984375 11.71875 18.140625 8.90625 
Q 21.296875 6.109375 26.703125 6.109375 
Q 34.1875 6.109375 38.703125 11.40625 
Q 43.21875 16.703125 43.21875 25.484375 
L 43.21875 27.484375 
z
M 52.203125 31.203125 
L 52.203125 0 
L 43.21875 0 
L 43.21875 8.296875 
Q 40.140625 3.328125 35.546875 0.953125 
Q 30.953125 -1.421875 24.3125 -1.421875 
Q 15.921875 -1.421875 10.953125 3.296875 
Q 6 8.015625 6 15.921875 
Q 6 25.140625 12.171875 29.828125 
Q 18.359375 34.515625 30.609375 34.515625 
L 43.21875 34.515625 
L 43.21875 35.40625 
Q 43.21875 41.609375 39.140625 45 
Q 35.0625 48.390625 27.6875 48.390625 
Q 23 48.390625 18.546875 47.265625 
Q 14.109375 46.140625 10.015625 43.890625 
L 10.015625 52.203125 
Q 14.9375 54.109375 19.578125 55.046875 
Q 24.21875 56 28.609375 56 
Q 40.484375 56 46.34375 49.84375 
Q 52.203125 43.703125 52.203125 31.203125 
z
" id="DejaVuSans-61"/>
    <path d="M 9.421875 54.6875 
L 18.40625 54.6875 
L 18.40625 0 
L 9.421875 0 
z
M 9.421875 75.984375 
L 18.40625 75.984375 
L 18.40625 64.59375 
L 9.421875 64.59375 
z
" id="DejaVuSans-69"/>
   </defs>
   <g transform="translate(95.323125 9.12)scale(0.12 -0.12)">
    <use transform="translate(0 0.015625)" xlink:href="#DejaVuSans-52"/>
    <use transform="translate(69.482422 0.015625)" xlink:href="#DejaVuSans-65"/>
    <use transform="translate(131.005859 0.015625)" xlink:href="#DejaVuSans-6d"/>
    <use transform="translate(228.417969 0.015625)" xlink:href="#DejaVuSans-6f"/>
    <use transform="translate(289.599609 0.015625)" xlink:href="#DejaVuSans-74"/>
    <use transform="translate(328.808594 0.015625)" xlink:href="#DejaVuSans-65"/>
    <use transform="translate(390.332031 0.015625)" xlink:href="#DejaVuSans-20"/>
    <use transform="translate(422.119141 0.015625)" xlink:href="#DejaVuSans-Oblique-3bb"/>
    <use transform="translate(481.298828 -16.390625)scale(0.7)" xlink:href="#DejaVuSans-Oblique-69"/>
    <use transform="translate(503.481445 0.015625)" xlink:href="#DejaVuSans-20"/>
    <use transform="translate(535.268555 0.015625)" xlink:href="#DejaVuSans-43"/>
    <use transform="translate(605.092773 0.015625)" xlink:href="#DejaVuSans-6f"/>
    <use transform="translate(666.274414 0.015625)" xlink:href="#DejaVuSans-6e"/>
    <use transform="translate(729.65332 0.015625)" xlink:href="#DejaVuSans-76"/>
    <use transform="translate(788.833008 0.015625)" xlink:href="#DejaVuSans-65"/>
    <use transform="translate(850.356445 0.015625)" xlink:href="#DejaVuSans-72"/>
    <use transform="translate(891.469727 0.015625)" xlink:href="#DejaVuSans-67"/>
    <use transform="translate(954.946289 0.015625)" xlink:href="#DejaVuSans-65"/>
    <use transform="translate(1016.469727 0.015625)" xlink:href="#DejaVuSans-6e"/>
    <use transform="translate(1079.848633 0.015625)" xlink:href="#DejaVuSans-63"/>
    <use transform="translate(1134.829102 0.015625)" xlink:href="#DejaVuSans-65"/>
    <use transform="translate(1196.352539 0.015625)" xlink:href="#DejaVuSans-20"/>
    <use transform="translate(1228.139648 0.015625)" xlink:href="#DejaVuSans-50"/>
    <use transform="translate(1288.442383 0.015625)" xlink:href="#DejaVuSans-65"/>
    <use transform="translate(1349.96582 0.015625)" xlink:href="#DejaVuSans-72"/>
    <use transform="translate(1391.079102 0.015625)" xlink:href="#DejaVuSans-20"/>
    <use transform="translate(1422.866211 0.015625)" xlink:href="#DejaVuSans-49"/>
    <use transform="translate(1452.358398 0.015625)" xlink:href="#DejaVuSans-74"/>
    <use transform="translate(1491.567383 0.015625)" xlink:href="#DejaVuSans-65"/>
    <use transform="translate(1553.09082 0.015625)" xlink:href="#DejaVuSans-72"/>
    <use transform="translate(1594.204102 0.015625)" xlink:href="#DejaVuSans-61"/>
    <use transform="translate(1655.483398 0.015625)" xlink:href="#DejaVuSans-74"/>
    <use transform="translate(1694.692383 0.015625)" xlink:href="#DejaVuSans-69"/>
    <use transform="translate(1722.475586 0.015625)" xlink:href="#DejaVuSans-6f"/>
    <use transform="translate(1783.657227 0.015625)" xlink:href="#DejaVuSans-6e"/>
   </g>
  </g>
 </g>
 <defs>
  <clipPath id="p76e7bac880">
   <rect height="266.112" width="357.12" x="33.403125" y="34.56"/>
  </clipPath>
 </defs>
</svg>
