<?xml version="1.0" encoding="utf-8" standalone="no"?>
<!DOCTYPE svg PUBLIC "-//W3C//DTD SVG 1.1//EN"
  "http://www.w3.org/Graphics/SVG/1.1/DTD/svg11.dtd">
<!-- Created with matplotlib (http://matplotlib.org/) -->
<svg height="332pt" version="1.1" viewBox="0 0 432 332" width="432pt" xmlns="http://www.w3.org/2000/svg" xmlns:xlink="http://www.w3.org/1999/xlink">
 <defs>
  <style type="text/css">
*{stroke-linecap:butt;stroke-linejoin:round;}
  </style>
 </defs>
 <g id="figure_1">
  <g id="patch_1">
   <path d="M 0 332.963875 
L 432.91125 332.963875 
L 432.91125 0 
L 0 0 
z
" style="fill:#ffffff;"/>
  </g>
  <g id="axes_1">
   <g id="patch_2">
    <path d="M 36.306562 300.672 
L 393.426563 300.672 
L 393.426563 34.56 
L 36.306562 34.56 
z
" style="fill:#ffffff;"/>
   </g>
   <g id="matplotlib.axis_1">
    <g id="xtick_1">
     <g id="line2d_1">
      <defs>
       <path d="M 0 0 
L 0 3.5 
" id="m46bb797147" style="stroke:#000000;stroke-width:0.8;"/>
      </defs>
      <g>
       <use style="stroke:#000000;stroke-width:0.8;" x="36.306562" xlink:href="#m46bb797147" y="300.672"/>
      </g>
     </g>
     <g id="text_1">
      <!-- 0 -->
      <defs>
       <path d="M 31.78125 66.40625 
Q 24.171875 66.40625 20.328125 58.90625 
Q 16.5 51.421875 16.5 36.375 
Q 16.5 21.390625 20.328125 13.890625 
Q 24.171875 6.390625 31.78125 6.390625 
Q 39.453125 6.390625 43.28125 13.890625 
Q 47.125 21.390625 47.125 36.375 
Q 47.125 51.421875 43.28125 58.90625 
Q 39.453125 66.40625 31.78125 66.40625 
z
M 31.78125 74.21875 
Q 44.046875 74.21875 50.515625 64.515625 
Q 56.984375 54.828125 56.984375 36.375 
Q 56.984375 17.96875 50.515625 8.265625 
Q 44.046875 -1.421875 31.78125 -1.421875 
Q 19.53125 -1.421875 13.0625 8.265625 
Q 6.59375 17.96875 6.59375 36.375 
Q 6.59375 54.828125 13.0625 64.515625 
Q 19.53125 74.21875 31.78125 74.21875 
z
" id="DejaVuSans-30"/>
      </defs>
      <g transform="translate(33.125312 315.270437)scale(0.1 -0.1)">
       <use xlink:href="#DejaVuSans-30"/>
      </g>
     </g>
    </g>
    <g id="xtick_2">
     <g id="line2d_2">
      <g>
       <use style="stroke:#000000;stroke-width:0.8;" x="95.826563" xlink:href="#m46bb797147" y="300.672"/>
      </g>
     </g>
     <g id="text_2">
      <!-- 50 -->
      <defs>
       <path d="M 10.796875 72.90625 
L 49.515625 72.90625 
L 49.515625 64.59375 
L 19.828125 64.59375 
L 19.828125 46.734375 
Q 21.96875 47.46875 24.109375 47.828125 
Q 26.265625 48.1875 28.421875 48.1875 
Q 40.625 48.1875 47.75 41.5 
Q 54.890625 34.8125 54.890625 23.390625 
Q 54.890625 11.625 47.5625 5.09375 
Q 40.234375 -1.421875 26.90625 -1.421875 
Q 22.3125 -1.421875 17.546875 -0.640625 
Q 12.796875 0.140625 7.71875 1.703125 
L 7.71875 11.625 
Q 12.109375 9.234375 16.796875 8.0625 
Q 21.484375 6.890625 26.703125 6.890625 
Q 35.15625 6.890625 40.078125 11.328125 
Q 45.015625 15.765625 45.015625 23.390625 
Q 45.015625 31 40.078125 35.4375 
Q 35.15625 39.890625 26.703125 39.890625 
Q 22.75 39.890625 18.8125 39.015625 
Q 14.890625 38.140625 10.796875 36.28125 
z
" id="DejaVuSans-35"/>
      </defs>
      <g transform="translate(89.464063 315.270437)scale(0.1 -0.1)">
       <use xlink:href="#DejaVuSans-35"/>
       <use x="63.623047" xlink:href="#DejaVuSans-30"/>
      </g>
     </g>
    </g>
    <g id="xtick_3">
     <g id="line2d_3">
      <g>
       <use style="stroke:#000000;stroke-width:0.8;" x="155.346563" xlink:href="#m46bb797147" y="300.672"/>
      </g>
     </g>
     <g id="text_3">
      <!-- 100 -->
      <defs>
       <path d="M 12.40625 8.296875 
L 28.515625 8.296875 
L 28.515625 63.921875 
L 10.984375 60.40625 
L 10.984375 69.390625 
L 28.421875 72.90625 
L 38.28125 72.90625 
L 38.28125 8.296875 
L 54.390625 8.296875 
L 54.390625 0 
L 12.40625 0 
z
" id="DejaVuSans-31"/>
      </defs>
      <g transform="translate(145.802813 315.270437)scale(0.1 -0.1)">
       <use xlink:href="#DejaVuSans-31"/>
       <use x="63.623047" xlink:href="#DejaVuSans-30"/>
       <use x="127.246094" xlink:href="#DejaVuSans-30"/>
      </g>
     </g>
    </g>
    <g id="xtick_4">
     <g id="line2d_4">
      <g>
       <use style="stroke:#000000;stroke-width:0.8;" x="214.866563" xlink:href="#m46bb797147" y="300.672"/>
      </g>
     </g>
     <g id="text_4">
      <!-- 150 -->
      <g transform="translate(205.322813 315.270437)scale(0.1 -0.1)">
       <use xlink:href="#DejaVuSans-31"/>
       <use x="63.623047" xlink:href="#DejaVuSans-35"/>
       <use x="127.246094" xlink:href="#DejaVuSans-30"/>
      </g>
     </g>
    </g>
    <g id="xtick_5">
     <g id="line2d_5">
      <g>
       <use style="stroke:#000000;stroke-width:0.8;" x="274.386563" xlink:href="#m46bb797147" y="300.672"/>
      </g>
     </g>
     <g id="text_5">
      <!-- 200 -->
      <defs>
       <path d="M 19.1875 8.296875 
L 53.609375 8.296875 
L 53.609375 0 
L 7.328125 0 
L 7.328125 8.296875 
Q 12.9375 14.109375 22.625 23.890625 
Q 32.328125 33.6875 34.8125 36.53125 
Q 39.546875 41.84375 41.421875 45.53125 
Q 43.3125 49.21875 43.3125 52.78125 
Q 43.3125 58.59375 39.234375 62.25 
Q 35.15625 65.921875 28.609375 65.921875 
Q 23.96875 65.921875 18.8125 64.3125 
Q 13.671875 62.703125 7.8125 59.421875 
L 7.8125 69.390625 
Q 13.765625 71.78125 18.9375 73 
Q 24.125 74.21875 28.421875 74.21875 
Q 39.75 74.21875 46.484375 68.546875 
Q 53.21875 62.890625 53.21875 53.421875 
Q 53.21875 48.921875 51.53125 44.890625 
Q 49.859375 40.875 45.40625 35.40625 
Q 44.1875 33.984375 37.640625 27.21875 
Q 31.109375 20.453125 19.1875 8.296875 
z
" id="DejaVuSans-32"/>
      </defs>
      <g transform="translate(264.842813 315.270437)scale(0.1 -0.1)">
       <use xlink:href="#DejaVuSans-32"/>
       <use x="63.623047" xlink:href="#DejaVuSans-30"/>
       <use x="127.246094" xlink:href="#DejaVuSans-30"/>
      </g>
     </g>
    </g>
    <g id="xtick_6">
     <g id="line2d_6">
      <g>
       <use style="stroke:#000000;stroke-width:0.8;" x="333.906563" xlink:href="#m46bb797147" y="300.672"/>
      </g>
     </g>
     <g id="text_6">
      <!-- 250 -->
      <g transform="translate(324.362813 315.270437)scale(0.1 -0.1)">
       <use xlink:href="#DejaVuSans-32"/>
       <use x="63.623047" xlink:href="#DejaVuSans-35"/>
       <use x="127.246094" xlink:href="#DejaVuSans-30"/>
      </g>
     </g>
    </g>
    <g id="xtick_7">
     <g id="line2d_7">
      <g>
       <use style="stroke:#000000;stroke-width:0.8;" x="393.426563" xlink:href="#m46bb797147" y="300.672"/>
      </g>
     </g>
     <g id="text_7">
      <!-- 300 -->
      <defs>
       <path d="M 40.578125 39.3125 
Q 47.65625 37.796875 51.625 33 
Q 55.609375 28.21875 55.609375 21.1875 
Q 55.609375 10.40625 48.1875 4.484375 
Q 40.765625 -1.421875 27.09375 -1.421875 
Q 22.515625 -1.421875 17.65625 -0.515625 
Q 12.796875 0.390625 7.625 2.203125 
L 7.625 11.71875 
Q 11.71875 9.328125 16.59375 8.109375 
Q 21.484375 6.890625 26.8125 6.890625 
Q 36.078125 6.890625 40.9375 10.546875 
Q 45.796875 14.203125 45.796875 21.1875 
Q 45.796875 27.640625 41.28125 31.265625 
Q 36.765625 34.90625 28.71875 34.90625 
L 20.21875 34.90625 
L 20.21875 43.015625 
L 29.109375 43.015625 
Q 36.375 43.015625 40.234375 45.921875 
Q 44.09375 48.828125 44.09375 54.296875 
Q 44.09375 59.90625 40.109375 62.90625 
Q 36.140625 65.921875 28.71875 65.921875 
Q 24.65625 65.921875 20.015625 65.03125 
Q 15.375 64.15625 9.8125 62.3125 
L 9.8125 71.09375 
Q 15.4375 72.65625 20.34375 73.4375 
Q 25.25 74.21875 29.59375 74.21875 
Q 40.828125 74.21875 47.359375 69.109375 
Q 53.90625 64.015625 53.90625 55.328125 
Q 53.90625 49.265625 50.4375 45.09375 
Q 46.96875 40.921875 40.578125 39.3125 
z
" id="DejaVuSans-33"/>
      </defs>
      <g transform="translate(383.882813 315.270437)scale(0.1 -0.1)">
       <use xlink:href="#DejaVuSans-33"/>
       <use x="63.623047" xlink:href="#DejaVuSans-30"/>
       <use x="127.246094" xlink:href="#DejaVuSans-30"/>
      </g>
     </g>
    </g>
    <g id="xtick_8">
     <g id="line2d_8">
      <defs>
       <path d="M 0 0 
L 0 2 
" id="m06b751d6a0" style="stroke:#000000;stroke-width:0.6;"/>
      </defs>
      <g>
       <use style="stroke:#000000;stroke-width:0.6;" x="36.306562" xlink:href="#m06b751d6a0" y="300.672"/>
      </g>
     </g>
    </g>
    <g id="xtick_9">
     <g id="line2d_9">
      <g>
       <use style="stroke:#000000;stroke-width:0.6;" x="48.210563" xlink:href="#m06b751d6a0" y="300.672"/>
      </g>
     </g>
    </g>
    <g id="xtick_10">
     <g id="line2d_10">
      <g>
       <use style="stroke:#000000;stroke-width:0.6;" x="60.114563" xlink:href="#m06b751d6a0" y="300.672"/>
      </g>
     </g>
    </g>
    <g id="xtick_11">
     <g id="line2d_11">
      <g>
       <use style="stroke:#000000;stroke-width:0.6;" x="72.018563" xlink:href="#m06b751d6a0" y="300.672"/>
      </g>
     </g>
    </g>
    <g id="xtick_12">
     <g id="line2d_12">
      <g>
       <use style="stroke:#000000;stroke-width:0.6;" x="83.922563" xlink:href="#m06b751d6a0" y="300.672"/>
      </g>
     </g>
    </g>
    <g id="xtick_13">
     <g id="line2d_13">
      <g>
       <use style="stroke:#000000;stroke-width:0.6;" x="95.826563" xlink:href="#m06b751d6a0" y="300.672"/>
      </g>
     </g>
    </g>
    <g id="xtick_14">
     <g id="line2d_14">
      <g>
       <use style="stroke:#000000;stroke-width:0.6;" x="107.730563" xlink:href="#m06b751d6a0" y="300.672"/>
      </g>
     </g>
    </g>
    <g id="xtick_15">
     <g id="line2d_15">
      <g>
       <use style="stroke:#000000;stroke-width:0.6;" x="119.634563" xlink:href="#m06b751d6a0" y="300.672"/>
      </g>
     </g>
    </g>
    <g id="xtick_16">
     <g id="line2d_16">
      <g>
       <use style="stroke:#000000;stroke-width:0.6;" x="131.538563" xlink:href="#m06b751d6a0" y="300.672"/>
      </g>
     </g>
    </g>
    <g id="xtick_17">
     <g id="line2d_17">
      <g>
       <use style="stroke:#000000;stroke-width:0.6;" x="143.442563" xlink:href="#m06b751d6a0" y="300.672"/>
      </g>
     </g>
    </g>
    <g id="xtick_18">
     <g id="line2d_18">
      <g>
       <use style="stroke:#000000;stroke-width:0.6;" x="155.346563" xlink:href="#m06b751d6a0" y="300.672"/>
      </g>
     </g>
    </g>
    <g id="xtick_19">
     <g id="line2d_19">
      <g>
       <use style="stroke:#000000;stroke-width:0.6;" x="167.250563" xlink:href="#m06b751d6a0" y="300.672"/>
      </g>
     </g>
    </g>
    <g id="xtick_20">
     <g id="line2d_20">
      <g>
       <use style="stroke:#000000;stroke-width:0.6;" x="179.154563" xlink:href="#m06b751d6a0" y="300.672"/>
      </g>
     </g>
    </g>
    <g id="xtick_21">
     <g id="line2d_21">
      <g>
       <use style="stroke:#000000;stroke-width:0.6;" x="191.058563" xlink:href="#m06b751d6a0" y="300.672"/>
      </g>
     </g>
    </g>
    <g id="xtick_22">
     <g id="line2d_22">
      <g>
       <use style="stroke:#000000;stroke-width:0.6;" x="202.962563" xlink:href="#m06b751d6a0" y="300.672"/>
      </g>
     </g>
    </g>
    <g id="xtick_23">
     <g id="line2d_23">
      <g>
       <use style="stroke:#000000;stroke-width:0.6;" x="214.866563" xlink:href="#m06b751d6a0" y="300.672"/>
      </g>
     </g>
    </g>
    <g id="xtick_24">
     <g id="line2d_24">
      <g>
       <use style="stroke:#000000;stroke-width:0.6;" x="226.770563" xlink:href="#m06b751d6a0" y="300.672"/>
      </g>
     </g>
    </g>
    <g id="xtick_25">
     <g id="line2d_25">
      <g>
       <use style="stroke:#000000;stroke-width:0.6;" x="238.674563" xlink:href="#m06b751d6a0" y="300.672"/>
      </g>
     </g>
    </g>
    <g id="xtick_26">
     <g id="line2d_26">
      <g>
       <use style="stroke:#000000;stroke-width:0.6;" x="250.578563" xlink:href="#m06b751d6a0" y="300.672"/>
      </g>
     </g>
    </g>
    <g id="xtick_27">
     <g id="line2d_27">
      <g>
       <use style="stroke:#000000;stroke-width:0.6;" x="262.482563" xlink:href="#m06b751d6a0" y="300.672"/>
      </g>
     </g>
    </g>
    <g id="xtick_28">
     <g id="line2d_28">
      <g>
       <use style="stroke:#000000;stroke-width:0.6;" x="274.386563" xlink:href="#m06b751d6a0" y="300.672"/>
      </g>
     </g>
    </g>
    <g id="xtick_29">
     <g id="line2d_29">
      <g>
       <use style="stroke:#000000;stroke-width:0.6;" x="286.290563" xlink:href="#m06b751d6a0" y="300.672"/>
      </g>
     </g>
    </g>
    <g id="xtick_30">
     <g id="line2d_30">
      <g>
       <use style="stroke:#000000;stroke-width:0.6;" x="298.194563" xlink:href="#m06b751d6a0" y="300.672"/>
      </g>
     </g>
    </g>
    <g id="xtick_31">
     <g id="line2d_31">
      <g>
       <use style="stroke:#000000;stroke-width:0.6;" x="310.098563" xlink:href="#m06b751d6a0" y="300.672"/>
      </g>
     </g>
    </g>
    <g id="xtick_32">
     <g id="line2d_32">
      <g>
       <use style="stroke:#000000;stroke-width:0.6;" x="322.002563" xlink:href="#m06b751d6a0" y="300.672"/>
      </g>
     </g>
    </g>
    <g id="xtick_33">
     <g id="line2d_33">
      <g>
       <use style="stroke:#000000;stroke-width:0.6;" x="333.906563" xlink:href="#m06b751d6a0" y="300.672"/>
      </g>
     </g>
    </g>
    <g id="xtick_34">
     <g id="line2d_34">
      <g>
       <use style="stroke:#000000;stroke-width:0.6;" x="345.810563" xlink:href="#m06b751d6a0" y="300.672"/>
      </g>
     </g>
    </g>
    <g id="xtick_35">
     <g id="line2d_35">
      <g>
       <use style="stroke:#000000;stroke-width:0.6;" x="357.714563" xlink:href="#m06b751d6a0" y="300.672"/>
      </g>
     </g>
    </g>
    <g id="xtick_36">
     <g id="line2d_36">
      <g>
       <use style="stroke:#000000;stroke-width:0.6;" x="369.618563" xlink:href="#m06b751d6a0" y="300.672"/>
      </g>
     </g>
    </g>
    <g id="xtick_37">
     <g id="line2d_37">
      <g>
       <use style="stroke:#000000;stroke-width:0.6;" x="381.522563" xlink:href="#m06b751d6a0" y="300.672"/>
      </g>
     </g>
    </g>
    <g id="xtick_38">
     <g id="line2d_38">
      <g>
       <use style="stroke:#000000;stroke-width:0.6;" x="393.426563" xlink:href="#m06b751d6a0" y="300.672"/>
      </g>
     </g>
    </g>
    <g id="text_8">
     <!-- Iteration -->
     <defs>
      <path d="M 9.8125 72.90625 
L 19.671875 72.90625 
L 19.671875 0 
L 9.8125 0 
z
" id="DejaVuSans-49"/>
      <path d="M 18.3125 70.21875 
L 18.3125 54.6875 
L 36.8125 54.6875 
L 36.8125 47.703125 
L 18.3125 47.703125 
L 18.3125 18.015625 
Q 18.3125 11.328125 20.140625 9.421875 
Q 21.96875 7.515625 27.59375 7.515625 
L 36.8125 7.515625 
L 36.8125 0 
L 27.59375 0 
Q 17.1875 0 13.234375 3.875 
Q 9.28125 7.765625 9.28125 18.015625 
L 9.28125 47.703125 
L 2.6875 47.703125 
L 2.6875 54.6875 
L 9.28125 54.6875 
L 9.28125 70.21875 
z
" id="DejaVuSans-74"/>
      <path d="M 56.203125 29.59375 
L 56.203125 25.203125 
L 14.890625 25.203125 
Q 15.484375 15.921875 20.484375 11.0625 
Q 25.484375 6.203125 34.421875 6.203125 
Q 39.59375 6.203125 44.453125 7.46875 
Q 49.3125 8.734375 54.109375 11.28125 
L 54.109375 2.78125 
Q 49.265625 0.734375 44.1875 -0.34375 
Q 39.109375 -1.421875 33.890625 -1.421875 
Q 20.796875 -1.421875 13.15625 6.1875 
Q 5.515625 13.8125 5.515625 26.8125 
Q 5.515625 40.234375 12.765625 48.109375 
Q 20.015625 56 32.328125 56 
Q 43.359375 56 49.78125 48.890625 
Q 56.203125 41.796875 56.203125 29.59375 
z
M 47.21875 32.234375 
Q 47.125 39.59375 43.09375 43.984375 
Q 39.0625 48.390625 32.421875 48.390625 
Q 24.90625 48.390625 20.390625 44.140625 
Q 15.875 39.890625 15.1875 32.171875 
z
" id="DejaVuSans-65"/>
      <path d="M 41.109375 46.296875 
Q 39.59375 47.171875 37.8125 47.578125 
Q 36.03125 48 33.890625 48 
Q 26.265625 48 22.1875 43.046875 
Q 18.109375 38.09375 18.109375 28.8125 
L 18.109375 0 
L 9.078125 0 
L 9.078125 54.6875 
L 18.109375 54.6875 
L 18.109375 46.1875 
Q 20.953125 51.171875 25.484375 53.578125 
Q 30.03125 56 36.53125 56 
Q 37.453125 56 38.578125 55.875 
Q 39.703125 55.765625 41.0625 55.515625 
z
" id="DejaVuSans-72"/>
      <path d="M 34.28125 27.484375 
Q 23.390625 27.484375 19.1875 25 
Q 14.984375 22.515625 14.984375 16.5 
Q 14.984375 11.71875 18.140625 8.90625 
Q 21.296875 6.109375 26.703125 6.109375 
Q 34.1875 6.109375 38.703125 11.40625 
Q 43.21875 16.703125 43.21875 25.484375 
L 43.21875 27.484375 
z
M 52.203125 31.203125 
L 52.203125 0 
L 43.21875 0 
L 43.21875 8.296875 
Q 40.140625 3.328125 35.546875 0.953125 
Q 30.953125 -1.421875 24.3125 -1.421875 
Q 15.921875 -1.421875 10.953125 3.296875 
Q 6 8.015625 6 15.921875 
Q 6 25.140625 12.171875 29.828125 
Q 18.359375 34.515625 30.609375 34.515625 
L 43.21875 34.515625 
L 43.21875 35.40625 
Q 43.21875 41.609375 39.140625 45 
Q 35.0625 48.390625 27.6875 48.390625 
Q 23 48.390625 18.546875 47.265625 
Q 14.109375 46.140625 10.015625 43.890625 
L 10.015625 52.203125 
Q 14.9375 54.109375 19.578125 55.046875 
Q 24.21875 56 28.609375 56 
Q 40.484375 56 46.34375 49.84375 
Q 52.203125 43.703125 52.203125 31.203125 
z
" id="DejaVuSans-61"/>
      <path d="M 9.421875 54.6875 
L 18.40625 54.6875 
L 18.40625 0 
L 9.421875 0 
z
M 9.421875 75.984375 
L 18.40625 75.984375 
L 18.40625 64.59375 
L 9.421875 64.59375 
z
" id="DejaVuSans-69"/>
      <path d="M 30.609375 48.390625 
Q 23.390625 48.390625 19.1875 42.75 
Q 14.984375 37.109375 14.984375 27.296875 
Q 14.984375 17.484375 19.15625 11.84375 
Q 23.34375 6.203125 30.609375 6.203125 
Q 37.796875 6.203125 41.984375 11.859375 
Q 46.1875 17.53125 46.1875 27.296875 
Q 46.1875 37.015625 41.984375 42.703125 
Q 37.796875 48.390625 30.609375 48.390625 
z
M 30.609375 56 
Q 42.328125 56 49.015625 48.375 
Q 55.71875 40.765625 55.71875 27.296875 
Q 55.71875 13.875 49.015625 6.21875 
Q 42.328125 -1.421875 30.609375 -1.421875 
Q 18.84375 -1.421875 12.171875 6.21875 
Q 5.515625 13.875 5.515625 27.296875 
Q 5.515625 40.765625 12.171875 48.375 
Q 18.84375 56 30.609375 56 
z
" id="DejaVuSans-6f"/>
      <path d="M 54.890625 33.015625 
L 54.890625 0 
L 45.90625 0 
L 45.90625 32.71875 
Q 45.90625 40.484375 42.875 44.328125 
Q 39.84375 48.1875 33.796875 48.1875 
Q 26.515625 48.1875 22.3125 43.546875 
Q 18.109375 38.921875 18.109375 30.90625 
L 18.109375 0 
L 9.078125 0 
L 9.078125 54.6875 
L 18.109375 54.6875 
L 18.109375 46.1875 
Q 21.34375 51.125 25.703125 53.5625 
Q 30.078125 56 35.796875 56 
Q 45.21875 56 50.046875 50.171875 
Q 54.890625 44.34375 54.890625 33.015625 
z
" id="DejaVuSans-6e"/>
     </defs>
     <g transform="translate(189.41625 330.46825)scale(0.12 -0.12)">
      <use xlink:href="#DejaVuSans-49"/>
      <use x="29.492188" xlink:href="#DejaVuSans-74"/>
      <use x="68.701172" xlink:href="#DejaVuSans-65"/>
      <use x="130.224609" xlink:href="#DejaVuSans-72"/>
      <use x="171.337891" xlink:href="#DejaVuSans-61"/>
      <use x="232.617188" xlink:href="#DejaVuSans-74"/>
      <use x="271.826172" xlink:href="#DejaVuSans-69"/>
      <use x="299.609375" xlink:href="#DejaVuSans-6f"/>
      <use x="360.791016" xlink:href="#DejaVuSans-6e"/>
     </g>
    </g>
   </g>
   <g id="matplotlib.axis_2">
    <g id="ytick_1">
     <g id="line2d_39">
      <defs>
       <path d="M 0 0 
L -3.5 0 
" id="m5e3f427f60" style="stroke:#000000;stroke-width:0.8;"/>
      </defs>
      <g>
       <use style="stroke:#000000;stroke-width:0.8;" x="36.306562" xlink:href="#m5e3f427f60" y="300.672"/>
      </g>
     </g>
     <g id="text_9">
      <!-- 3 -->
      <g transform="translate(22.944062 304.471219)scale(0.1 -0.1)">
       <use xlink:href="#DejaVuSans-33"/>
      </g>
     </g>
    </g>
    <g id="ytick_2">
     <g id="line2d_40">
      <g>
       <use style="stroke:#000000;stroke-width:0.8;" x="36.306562" xlink:href="#m5e3f427f60" y="262.656"/>
      </g>
     </g>
     <g id="text_10">
      <!-- 4 -->
      <defs>
       <path d="M 37.796875 64.3125 
L 12.890625 25.390625 
L 37.796875 25.390625 
z
M 35.203125 72.90625 
L 47.609375 72.90625 
L 47.609375 25.390625 
L 58.015625 25.390625 
L 58.015625 17.1875 
L 47.609375 17.1875 
L 47.609375 0 
L 37.796875 0 
L 37.796875 17.1875 
L 4.890625 17.1875 
L 4.890625 26.703125 
z
" id="DejaVuSans-34"/>
      </defs>
      <g transform="translate(22.944062 266.455219)scale(0.1 -0.1)">
       <use xlink:href="#DejaVuSans-34"/>
      </g>
     </g>
    </g>
    <g id="ytick_3">
     <g id="line2d_41">
      <g>
       <use style="stroke:#000000;stroke-width:0.8;" x="36.306562" xlink:href="#m5e3f427f60" y="224.64"/>
      </g>
     </g>
     <g id="text_11">
      <!-- 5 -->
      <g transform="translate(22.944062 228.439219)scale(0.1 -0.1)">
       <use xlink:href="#DejaVuSans-35"/>
      </g>
     </g>
    </g>
    <g id="ytick_4">
     <g id="line2d_42">
      <g>
       <use style="stroke:#000000;stroke-width:0.8;" x="36.306562" xlink:href="#m5e3f427f60" y="186.624"/>
      </g>
     </g>
     <g id="text_12">
      <!-- 6 -->
      <defs>
       <path d="M 33.015625 40.375 
Q 26.375 40.375 22.484375 35.828125 
Q 18.609375 31.296875 18.609375 23.390625 
Q 18.609375 15.53125 22.484375 10.953125 
Q 26.375 6.390625 33.015625 6.390625 
Q 39.65625 6.390625 43.53125 10.953125 
Q 47.40625 15.53125 47.40625 23.390625 
Q 47.40625 31.296875 43.53125 35.828125 
Q 39.65625 40.375 33.015625 40.375 
z
M 52.59375 71.296875 
L 52.59375 62.3125 
Q 48.875 64.0625 45.09375 64.984375 
Q 41.3125 65.921875 37.59375 65.921875 
Q 27.828125 65.921875 22.671875 59.328125 
Q 17.53125 52.734375 16.796875 39.40625 
Q 19.671875 43.65625 24.015625 45.921875 
Q 28.375 48.1875 33.59375 48.1875 
Q 44.578125 48.1875 50.953125 41.515625 
Q 57.328125 34.859375 57.328125 23.390625 
Q 57.328125 12.15625 50.6875 5.359375 
Q 44.046875 -1.421875 33.015625 -1.421875 
Q 20.359375 -1.421875 13.671875 8.265625 
Q 6.984375 17.96875 6.984375 36.375 
Q 6.984375 53.65625 15.1875 63.9375 
Q 23.390625 74.21875 37.203125 74.21875 
Q 40.921875 74.21875 44.703125 73.484375 
Q 48.484375 72.75 52.59375 71.296875 
z
" id="DejaVuSans-36"/>
      </defs>
      <g transform="translate(22.944062 190.423219)scale(0.1 -0.1)">
       <use xlink:href="#DejaVuSans-36"/>
      </g>
     </g>
    </g>
    <g id="ytick_5">
     <g id="line2d_43">
      <g>
       <use style="stroke:#000000;stroke-width:0.8;" x="36.306562" xlink:href="#m5e3f427f60" y="148.608"/>
      </g>
     </g>
     <g id="text_13">
      <!-- 7 -->
      <defs>
       <path d="M 8.203125 72.90625 
L 55.078125 72.90625 
L 55.078125 68.703125 
L 28.609375 0 
L 18.3125 0 
L 43.21875 64.59375 
L 8.203125 64.59375 
z
" id="DejaVuSans-37"/>
      </defs>
      <g transform="translate(22.944062 152.407219)scale(0.1 -0.1)">
       <use xlink:href="#DejaVuSans-37"/>
      </g>
     </g>
    </g>
    <g id="ytick_6">
     <g id="line2d_44">
      <g>
       <use style="stroke:#000000;stroke-width:0.8;" x="36.306562" xlink:href="#m5e3f427f60" y="110.592"/>
      </g>
     </g>
     <g id="text_14">
      <!-- 8 -->
      <defs>
       <path d="M 31.78125 34.625 
Q 24.75 34.625 20.71875 30.859375 
Q 16.703125 27.09375 16.703125 20.515625 
Q 16.703125 13.921875 20.71875 10.15625 
Q 24.75 6.390625 31.78125 6.390625 
Q 38.8125 6.390625 42.859375 10.171875 
Q 46.921875 13.96875 46.921875 20.515625 
Q 46.921875 27.09375 42.890625 30.859375 
Q 38.875 34.625 31.78125 34.625 
z
M 21.921875 38.8125 
Q 15.578125 40.375 12.03125 44.71875 
Q 8.5 49.078125 8.5 55.328125 
Q 8.5 64.0625 14.71875 69.140625 
Q 20.953125 74.21875 31.78125 74.21875 
Q 42.671875 74.21875 48.875 69.140625 
Q 55.078125 64.0625 55.078125 55.328125 
Q 55.078125 49.078125 51.53125 44.71875 
Q 48 40.375 41.703125 38.8125 
Q 48.828125 37.15625 52.796875 32.3125 
Q 56.78125 27.484375 56.78125 20.515625 
Q 56.78125 9.90625 50.3125 4.234375 
Q 43.84375 -1.421875 31.78125 -1.421875 
Q 19.734375 -1.421875 13.25 4.234375 
Q 6.78125 9.90625 6.78125 20.515625 
Q 6.78125 27.484375 10.78125 32.3125 
Q 14.796875 37.15625 21.921875 38.8125 
z
M 18.3125 54.390625 
Q 18.3125 48.734375 21.84375 45.5625 
Q 25.390625 42.390625 31.78125 42.390625 
Q 38.140625 42.390625 41.71875 45.5625 
Q 45.3125 48.734375 45.3125 54.390625 
Q 45.3125 60.0625 41.71875 63.234375 
Q 38.140625 66.40625 31.78125 66.40625 
Q 25.390625 66.40625 21.84375 63.234375 
Q 18.3125 60.0625 18.3125 54.390625 
z
" id="DejaVuSans-38"/>
      </defs>
      <g transform="translate(22.944062 114.391219)scale(0.1 -0.1)">
       <use xlink:href="#DejaVuSans-38"/>
      </g>
     </g>
    </g>
    <g id="ytick_7">
     <g id="line2d_45">
      <g>
       <use style="stroke:#000000;stroke-width:0.8;" x="36.306562" xlink:href="#m5e3f427f60" y="72.576"/>
      </g>
     </g>
     <g id="text_15">
      <!-- 9 -->
      <defs>
       <path d="M 10.984375 1.515625 
L 10.984375 10.5 
Q 14.703125 8.734375 18.5 7.8125 
Q 22.3125 6.890625 25.984375 6.890625 
Q 35.75 6.890625 40.890625 13.453125 
Q 46.046875 20.015625 46.78125 33.40625 
Q 43.953125 29.203125 39.59375 26.953125 
Q 35.25 24.703125 29.984375 24.703125 
Q 19.046875 24.703125 12.671875 31.3125 
Q 6.296875 37.9375 6.296875 49.421875 
Q 6.296875 60.640625 12.9375 67.421875 
Q 19.578125 74.21875 30.609375 74.21875 
Q 43.265625 74.21875 49.921875 64.515625 
Q 56.59375 54.828125 56.59375 36.375 
Q 56.59375 19.140625 48.40625 8.859375 
Q 40.234375 -1.421875 26.421875 -1.421875 
Q 22.703125 -1.421875 18.890625 -0.6875 
Q 15.09375 0.046875 10.984375 1.515625 
z
M 30.609375 32.421875 
Q 37.25 32.421875 41.125 36.953125 
Q 45.015625 41.5 45.015625 49.421875 
Q 45.015625 57.28125 41.125 61.84375 
Q 37.25 66.40625 30.609375 66.40625 
Q 23.96875 66.40625 20.09375 61.84375 
Q 16.21875 57.28125 16.21875 49.421875 
Q 16.21875 41.5 20.09375 36.953125 
Q 23.96875 32.421875 30.609375 32.421875 
z
" id="DejaVuSans-39"/>
      </defs>
      <g transform="translate(22.944062 76.375219)scale(0.1 -0.1)">
       <use xlink:href="#DejaVuSans-39"/>
      </g>
     </g>
    </g>
    <g id="ytick_8">
     <g id="line2d_46">
      <g>
       <use style="stroke:#000000;stroke-width:0.8;" x="36.306562" xlink:href="#m5e3f427f60" y="34.56"/>
      </g>
     </g>
     <g id="text_16">
      <!-- 10 -->
      <g transform="translate(16.581562 38.359219)scale(0.1 -0.1)">
       <use xlink:href="#DejaVuSans-31"/>
       <use x="63.623047" xlink:href="#DejaVuSans-30"/>
      </g>
     </g>
    </g>
    <g id="text_17">
     <!-- $\lambda_i$ -->
     <defs>
      <path d="M 36.71875 67.4375 
L 48.828125 0 
L 39.3125 0 
L 31.84375 40.4375 
L 5.125 0 
L -4.390625 0 
L 29.734375 52.4375 
L 28.03125 62.109375 
Q 26.953125 68.265625 21.734375 68.265625 
L 17.046875 68.265625 
L 18.5 75.984375 
L 24.21875 75.875 
Q 35.203125 75.734375 36.71875 67.4375 
z
" id="DejaVuSans-Oblique-3bb"/>
      <path d="M 18.3125 75.984375 
L 27.296875 75.984375 
L 25.09375 64.59375 
L 16.109375 64.59375 
z
M 14.203125 54.6875 
L 23.1875 54.6875 
L 12.5 0 
L 3.515625 0 
z
" id="DejaVuSans-Oblique-69"/>
     </defs>
     <g transform="translate(9.877969 172.946)rotate(-90)scale(0.13 -0.13)">
      <use transform="translate(0 0.015625)" xlink:href="#DejaVuSans-Oblique-3bb"/>
      <use transform="translate(59.179688 -16.390625)scale(0.7)" xlink:href="#DejaVuSans-Oblique-69"/>
     </g>
    </g>
   </g>
   <g id="line2d_47">
    <path clip-path="url(#pedf03a3f03)" d="M 37.496962 60.410855 
L 38.616594 -1 
M 45.327856 -1 
L 47.020162 22.870048 
L 48.210563 37.98141 
L 50.591363 64.307494 
L 51.781762 75.237108 
L 54.162563 93.769879 
L 55.352963 101.658217 
L 57.733763 115.058855 
L 58.924163 121.141428 
L 60.114563 126.178536 
L 63.685763 139.294066 
L 66.066563 146.13694 
L 68.447363 152.12447 
L 69.637763 154.690536 
L 70.828163 156.971494 
L 75.589763 164.859831 
L 76.780163 166.38047 
L 80.351363 170.277108 
L 81.541763 171.227494 
L 82.732163 172.367982 
L 85.112963 174.268789 
L 86.303363 174.743982 
L 88.684163 176.359663 
L 91.064963 177.595175 
L 94.636163 178.735663 
L 101.778563 179.876151 
L 102.968963 179.591024 
L 104.159363 179.781108 
L 105.349763 180.161259 
L 106.540163 179.781108 
L 107.730563 179.971175 
L 108.920963 179.971175 
L 110.111363 179.591024 
L 112.492163 179.686066 
L 113.682563 179.495982 
L 116.063363 179.495982 
L 117.253763 179.305898 
L 118.444163 179.40094 
L 123.205763 178.735663 
L 125.586563 178.545578 
L 126.776963 178.165428 
L 129.157763 177.690217 
L 130.348163 177.785259 
L 138.680963 176.549747 
L 139.871363 176.549747 
L 144.632963 175.694385 
L 145.823363 175.409259 
L 147.013763 175.409259 
L 156.536963 173.88862 
L 157.727363 173.983663 
L 158.917763 173.698536 
L 163.679363 173.223343 
L 166.060163 172.748151 
L 170.821763 172.27294 
L 174.392963 171.797747 
L 175.583363 171.797747 
L 180.344963 171.13247 
L 182.725763 170.942385 
L 185.106563 170.467175 
L 187.487363 170.372151 
L 191.058563 169.801898 
L 193.439363 169.706855 
L 199.391363 169.13662 
L 200.581763 168.851494 
L 205.343363 168.75647 
L 207.724163 168.471343 
L 210.104963 168.376301 
L 218.437763 167.806066 
L 220.818563 167.806066 
L 224.389763 167.235831 
L 226.770563 167.140789 
L 229.151363 166.855663 
L 231.532163 166.76062 
L 235.103363 166.76062 
L 236.293763 166.38047 
L 239.864963 166.285428 
L 243.436163 166.095343 
L 248.197763 166.000301 
L 249.388163 165.810217 
L 251.768963 165.715175 
L 254.149763 165.430066 
L 258.911363 165.14494 
L 272.005763 165.049898 
L 276.767363 164.764789 
L 281.528963 164.669747 
L 291.052163 163.814385 
L 292.242563 163.624301 
L 301.765763 163.529259 
L 304.146563 163.434217 
L 313.669763 163.339175 
L 316.050563 163.244151 
L 345.810563 163.149108 
L 354.143363 162.578855 
L 364.856963 162.483813 
L 367.237763 162.388789 
L 392.236163 162.293747 
L 392.236163 162.293747 
" style="fill:none;stroke:#a9a9a9;stroke-linecap:square;stroke-width:0.5;"/>
   </g>
   <g id="line2d_48">
    <path clip-path="url(#pedf03a3f03)" d="M 37.099889 333.963875 
L 37.496962 293.543991 
L 38.687362 254.387512 
L 39.877763 228.15647 
L 41.068162 212.66494 
L 42.258562 204.206385 
L 43.448963 200.309747 
L 44.639363 198.123831 
L 45.829763 196.888301 
L 47.020162 197.173428 
L 48.210563 196.318066 
L 49.400963 196.413108 
L 50.591363 195.842873 
L 51.781762 194.512301 
L 52.972163 191.28094 
L 54.162563 189.855343 
L 55.352963 189.190066 
L 56.543363 186.243831 
L 58.924163 182.917428 
L 60.114563 180.731512 
L 61.304963 179.495982 
L 63.685763 176.549747 
L 64.876163 175.219175 
L 67.256963 173.223343 
L 68.447363 172.748151 
L 69.637763 172.082855 
L 70.828163 171.702705 
L 72.018563 171.037428 
L 73.208963 170.657259 
L 74.399363 170.657259 
L 75.589763 169.89694 
L 76.780163 169.326705 
L 77.970563 169.326705 
L 79.160963 168.566385 
L 80.351363 169.611831 
L 82.732163 168.661428 
L 83.922563 168.471343 
L 85.112963 168.566385 
L 86.303363 169.611831 
L 87.493763 168.566385 
L 88.684163 168.471343 
L 89.874563 168.851494 
L 91.064963 168.471343 
L 92.255363 168.566385 
L 93.445763 168.851494 
L 94.636163 168.376301 
L 95.826563 168.75647 
L 97.016963 168.75647 
L 98.207363 168.566385 
L 100.588163 168.661428 
L 104.159363 169.231663 
L 105.349763 169.231663 
L 106.540163 168.946536 
L 107.730563 169.421747 
L 108.920963 169.231663 
L 110.111363 169.706855 
L 111.301763 169.231663 
L 112.492163 168.946536 
L 113.682563 169.13662 
L 114.872963 168.851494 
L 116.063363 169.041578 
L 118.444163 168.75647 
L 119.634563 168.75647 
L 120.824963 168.566385 
L 122.015363 168.75647 
L 124.396163 168.091175 
L 127.967363 168.091175 
L 131.538563 167.425898 
L 132.728963 167.140789 
L 133.919363 167.52094 
L 136.300163 167.615982 
L 137.490563 167.615982 
L 139.871363 167.235831 
L 147.013763 167.235831 
L 150.584963 166.285428 
L 152.965763 166.190385 
L 154.156163 165.810217 
L 157.727363 166.285428 
L 158.917763 166.095343 
L 160.108163 165.335024 
L 161.298563 165.525108 
L 163.679363 165.525108 
L 167.250563 165.049898 
L 168.440963 165.049898 
L 169.631363 165.335024 
L 173.202563 165.525108 
L 174.392963 165.335024 
L 177.964163 165.620151 
L 179.154563 165.525108 
L 180.344963 165.239982 
L 181.535363 165.335024 
L 182.725763 165.239982 
L 183.916163 165.525108 
L 186.296963 165.049898 
L 188.677763 165.14494 
L 189.868163 165.239982 
L 191.058563 164.954855 
L 193.439363 164.764789 
L 195.820163 164.859831 
L 198.200963 164.38462 
L 200.581763 164.669747 
L 201.772163 164.669747 
L 204.152963 164.38462 
L 207.724163 164.669747 
L 213.676163 163.719343 
L 216.056963 163.909428 
L 219.628163 163.719343 
L 220.818563 163.814385 
L 222.008963 163.719343 
L 223.199363 163.814385 
L 224.389763 163.624301 
L 230.341763 163.624301 
L 231.532163 163.434217 
L 232.722563 163.909428 
L 233.912963 163.529259 
L 235.103363 163.624301 
L 236.293763 163.339175 
L 238.674563 163.434217 
L 239.864963 163.624301 
L 241.055363 163.434217 
L 258.911363 163.339175 
L 263.672963 162.959024 
L 264.863363 163.149108 
L 279.148163 163.054066 
L 280.338563 162.959024 
L 281.528963 163.054066 
L 283.909763 162.959024 
L 286.290563 162.863982 
L 287.480963 162.76894 
L 288.671363 162.863982 
L 292.242563 162.673898 
L 301.765763 162.578855 
L 305.336963 162.388789 
L 307.717763 162.483813 
L 308.908163 162.388789 
L 311.288963 162.483813 
L 313.669763 162.388789 
L 318.431363 162.293747 
L 319.621763 162.103663 
L 324.383363 162.388789 
L 325.573763 162.293747 
L 327.954563 162.388789 
L 331.525763 162.198705 
L 341.048963 162.103663 
L 343.429763 161.723494 
L 345.810563 161.818536 
L 349.381763 162.00862 
L 351.762563 161.913578 
L 354.143363 162.00862 
L 356.524163 162.103663 
L 358.904963 162.00862 
L 375.570563 161.913578 
L 377.951363 161.62847 
L 379.141763 161.533428 
L 381.522563 161.723494 
L 383.903363 161.62847 
L 392.236163 161.62847 
L 392.236163 161.62847 
" style="fill:none;stroke:#a9a9a9;stroke-linecap:square;stroke-width:0.5;"/>
   </g>
   <g id="line2d_49">
    <path clip-path="url(#pedf03a3f03)" d="M 36.487996 333.963875 
L 37.240553 -1 
M 41.47121 -1 
L 42.258562 21.064301 
L 43.448963 45.679663 
L 44.639363 62.311663 
L 45.829763 74.951964 
L 47.020162 84.170855 
L 48.210563 91.203831 
L 50.591363 101.848301 
L 51.781762 106.030048 
L 54.162563 113.443175 
L 55.352963 116.769578 
L 56.543363 120.476132 
L 61.304963 131.405747 
L 62.495363 133.781747 
L 63.685763 135.87262 
L 64.876163 139.00894 
L 66.066563 140.244452 
L 68.447363 144.901428 
L 72.018563 150.223663 
L 75.589763 154.975663 
L 76.780163 156.306217 
L 77.970563 157.826855 
L 79.160963 159.062385 
L 81.541763 161.153259 
L 82.732163 162.388789 
L 85.112963 164.38462 
L 86.303363 165.335024 
L 87.493763 166.000301 
L 88.684163 167.045747 
L 94.636163 170.752301 
L 97.016963 171.987831 
L 98.207363 172.27294 
L 99.397763 173.033259 
L 100.588163 173.318385 
L 101.778563 173.793578 
L 102.968963 174.458855 
L 104.159363 174.553898 
L 105.349763 174.839024 
L 106.540163 175.504301 
L 107.730563 175.504301 
L 108.920963 176.169578 
L 110.111363 176.074536 
L 112.492163 177.02494 
L 116.063363 177.975343 
L 117.253763 177.880301 
L 120.824963 178.355512 
L 123.205763 178.545578 
L 124.396163 178.26047 
L 125.586563 178.545578 
L 126.776963 178.64062 
L 127.967363 178.545578 
L 129.157763 178.735663 
L 130.348163 178.545578 
L 132.728963 178.64062 
L 135.109763 178.355512 
L 136.300163 178.450536 
L 137.490563 178.165428 
L 138.680963 178.165428 
L 141.061763 177.880301 
L 142.252163 177.880301 
L 144.632963 177.405108 
L 147.013763 177.215024 
L 148.204163 176.834855 
L 149.394563 176.739831 
L 151.775363 176.169578 
L 152.965763 176.169578 
L 162.488963 174.743982 
L 164.869763 174.458855 
L 167.250563 173.793578 
L 168.440963 173.793578 
L 169.631363 173.603494 
L 170.821763 173.128301 
L 173.202563 172.938217 
L 174.392963 172.463024 
L 177.964163 171.607663 
L 182.725763 171.13247 
L 183.916163 170.942385 
L 185.106563 170.467175 
L 188.677763 169.991982 
L 191.058563 169.706855 
L 193.439363 169.421747 
L 199.391363 168.946536 
L 200.581763 168.661428 
L 201.772163 168.186217 
L 205.343363 167.711024 
L 207.724163 167.711024 
L 208.914563 167.52094 
L 211.295363 167.425898 
L 213.676163 167.140789 
L 214.866563 167.045747 
L 216.056963 166.665578 
L 220.818563 166.000301 
L 223.199363 166.095343 
L 226.770563 165.905259 
L 229.151363 165.810217 
L 231.532163 165.525108 
L 235.103363 165.525108 
L 236.293763 165.239982 
L 238.674563 165.14494 
L 242.245763 165.049898 
L 244.626563 164.764789 
L 257.720963 164.764789 
L 260.101763 164.479663 
L 264.863363 164.38462 
L 266.053763 164.194536 
L 283.909763 164.099494 
L 287.480963 163.909428 
L 298.194563 163.814385 
L 299.384963 163.434217 
L 306.527363 163.339175 
L 308.908163 163.244151 
L 316.050563 163.149108 
L 318.431363 163.054066 
L 337.477763 162.959024 
L 342.239363 162.673898 
L 344.620163 162.673898 
L 345.810563 162.483813 
L 377.951363 162.388789 
L 380.332163 162.293747 
L 391.045763 162.198705 
L 392.236163 162.103663 
L 392.236163 162.103663 
" style="fill:none;stroke:#a9a9a9;stroke-linecap:square;stroke-width:0.5;"/>
   </g>
   <g id="line2d_50">
    <path clip-path="url(#pedf03a3f03)" d="M 36.810544 333.963875 
L 37.496962 223.974705 
L 38.687362 197.363512 
L 42.258562 127.414066 
L 43.448963 109.926687 
L 44.639363 100.422687 
L 45.829763 96.811193 
L 47.020162 95.670687 
L 49.400963 99.85247 
L 50.591363 102.893747 
L 51.781762 106.505241 
L 52.972163 111.067175 
L 54.162563 114.583663 
L 55.352963 118.670385 
L 56.543363 123.327343 
L 57.733763 126.463663 
L 61.304963 137.108132 
L 64.876163 146.041898 
L 66.066563 147.847663 
L 67.256963 151.269108 
L 68.447363 153.169898 
L 69.637763 155.355813 
L 70.828163 156.971494 
L 72.018563 158.967343 
L 73.208963 160.107813 
L 74.399363 161.62847 
L 75.589763 162.959024 
L 79.160963 166.095343 
L 80.351363 166.855663 
L 82.732163 168.091175 
L 83.922563 168.75647 
L 85.112963 169.13662 
L 86.303363 169.89694 
L 91.064963 171.322536 
L 92.255363 171.51262 
L 93.445763 172.082855 
L 94.636163 171.987831 
L 97.016963 172.558066 
L 98.207363 172.463024 
L 102.968963 172.843175 
L 104.159363 172.653108 
L 108.920963 172.938217 
L 116.063363 172.843175 
L 117.253763 173.128301 
L 118.444163 172.748151 
L 122.015363 172.558066 
L 126.776963 172.558066 
L 130.348163 172.082855 
L 132.728963 172.177898 
L 133.919363 172.558066 
L 135.109763 172.558066 
L 136.300163 171.987831 
L 138.680963 171.892789 
L 141.061763 171.417578 
L 142.252163 171.417578 
L 143.442563 171.227494 
L 144.632963 171.227494 
L 148.204163 170.752301 
L 154.156163 170.372151 
L 155.346563 170.372151 
L 157.727363 169.991982 
L 163.679363 169.991982 
L 164.869763 169.611831 
L 166.060163 168.851494 
L 168.440963 168.376301 
L 172.012163 167.996151 
L 174.392963 167.615982 
L 175.583363 167.711024 
L 180.344963 167.235831 
L 182.725763 166.950705 
L 189.868163 166.285428 
L 191.058563 166.095343 
L 192.248963 166.190385 
L 193.439363 166.000301 
L 195.820163 165.905259 
L 197.010563 165.620151 
L 200.581763 165.525108 
L 201.772163 165.239982 
L 204.152963 165.239982 
L 206.533763 164.859831 
L 208.914563 164.764789 
L 211.295363 164.669747 
L 212.485763 164.289578 
L 216.056963 164.194536 
L 219.628163 164.00447 
L 222.008963 163.909428 
L 224.389763 163.814385 
L 226.770563 163.909428 
L 227.960963 163.529259 
L 232.722563 163.434217 
L 238.674563 163.054066 
L 241.055363 163.149108 
L 243.436163 163.054066 
L 245.816963 163.149108 
L 252.959363 162.673898 
L 260.101763 163.149108 
L 267.244163 162.673898 
L 282.719363 162.76894 
L 285.100163 162.863982 
L 288.671363 162.388789 
L 294.623363 162.483813 
L 297.004163 162.578855 
L 306.527363 162.483813 
L 311.288963 162.198705 
L 313.669763 162.103663 
L 316.050563 162.00862 
L 323.192963 161.913578 
L 325.573763 161.818536 
L 342.239363 161.818536 
L 343.429763 161.343343 
L 352.952963 161.438385 
L 356.524163 161.62847 
L 369.618563 161.533428 
L 373.189763 161.343343 
L 377.951363 161.62847 
L 383.903363 161.533428 
L 386.284163 161.438385 
L 392.236163 161.438385 
L 392.236163 161.438385 
" style="fill:none;stroke:#a9a9a9;stroke-linecap:square;stroke-width:0.5;"/>
   </g>
   <g id="line2d_51">
    <path clip-path="url(#pedf03a3f03)" d="M 36.673843 333.963875 
L 37.496962 152.979813 
L 38.687362 247.54462 
L 39.877763 259.04447 
L 41.068162 261.135343 
L 42.258562 258.379193 
L 44.639363 248.780151 
L 47.020162 240.321596 
L 49.400963 231.387831 
L 50.591363 227.015982 
L 52.972163 217.131831 
L 56.543363 203.541108 
L 60.114563 191.375982 
L 64.876163 178.735663 
L 69.637763 169.326705 
L 72.018563 165.239982 
L 75.589763 160.297898 
L 76.780163 159.157428 
L 77.970563 157.541747 
L 79.160963 156.686385 
L 80.351363 155.260789 
L 83.922563 152.50462 
L 85.112963 151.839343 
L 86.303363 150.88894 
L 89.874563 149.178217 
L 91.064963 148.798066 
L 92.255363 148.227813 
L 93.445763 147.942705 
L 94.636163 147.467494 
L 100.588163 145.946855 
L 102.968963 145.851813 
L 104.159363 145.661747 
L 105.349763 145.756789 
L 112.492163 145.281578 
L 116.063363 145.37662 
L 117.253763 145.471663 
L 118.444163 145.37662 
L 120.824963 145.661747 
L 123.205763 145.661747 
L 124.396163 146.041898 
L 131.538563 146.13694 
L 132.728963 146.327024 
L 138.680963 146.422066 
L 139.871363 146.707175 
L 142.252163 146.897259 
L 143.442563 147.277428 
L 144.632963 147.37247 
L 147.013763 147.182385 
L 152.965763 147.562536 
L 154.156163 147.562536 
L 156.536963 147.847663 
L 157.727363 147.75262 
L 160.108163 148.227813 
L 168.440963 148.988132 
L 169.631363 149.178217 
L 170.821763 149.178217 
L 173.202563 149.463343 
L 174.392963 149.463343 
L 175.583363 149.74847 
L 179.154563 149.843494 
L 187.487363 150.413747 
L 189.868163 150.413747 
L 192.248963 150.698855 
L 202.962563 151.554217 
L 204.152963 151.934385 
L 206.533763 152.029428 
L 207.724163 152.029428 
L 208.914563 152.219494 
L 210.104963 152.599663 
L 225.580163 153.930217 
L 226.770563 154.120301 
L 229.151363 154.215343 
L 237.484163 154.785578 
L 238.674563 154.785578 
L 239.864963 154.975663 
L 242.245763 154.975663 
L 244.626563 155.355813 
L 247.007363 155.355813 
L 249.388163 155.64094 
L 254.149763 155.735982 
L 256.530563 155.831024 
L 257.720963 155.831024 
L 258.911363 156.116151 
L 261.292163 156.211175 
L 263.672963 156.306217 
L 268.434563 156.591343 
L 274.386563 156.686385 
L 280.338563 157.066536 
L 283.909763 157.161578 
L 285.100163 157.351663 
L 291.052163 157.446705 
L 297.004163 157.826855 
L 304.146563 157.921898 
L 308.908163 158.207024 
L 310.098563 158.207024 
L 311.288963 158.397108 
L 322.002563 158.492151 
L 324.383363 158.587175 
L 329.144963 158.682217 
L 336.287363 159.157428 
L 337.477763 159.157428 
L 338.668163 159.347494 
L 341.048963 159.25247 
L 347.000963 159.63262 
L 351.762563 159.727663 
L 354.143363 159.822705 
L 377.951363 159.917747 
L 381.522563 160.107813 
L 392.236163 160.202855 
L 392.236163 160.202855 
" style="fill:none;stroke:#a9a9a9;stroke-linecap:square;stroke-width:0.5;"/>
   </g>
   <g id="line2d_52">
    <path clip-path="url(#pedf03a3f03)" d="M 39.746214 -1 
L 39.877763 7.853747 
L 41.068162 58.319964 
L 42.258562 91.679024 
L 43.448963 114.108452 
L 44.639363 131.405747 
L 45.829763 144.521259 
L 47.020162 154.405428 
L 48.210563 162.578855 
L 50.591363 174.363831 
L 51.781762 178.735663 
L 52.972163 181.681898 
L 54.162563 186.053747 
L 55.352963 188.429747 
L 57.733763 192.51647 
L 58.924163 193.561898 
L 60.114563 193.942066 
L 62.495363 195.937898 
L 63.685763 195.177578 
L 64.876163 195.557747 
L 66.066563 194.417259 
L 67.256963 195.937898 
L 68.447363 194.417259 
L 72.018563 193.086705 
L 73.208963 192.801578 
L 74.399363 192.231343 
L 75.589763 191.090855 
L 76.780163 190.710705 
L 77.970563 189.950385 
L 80.351363 188.999982 
L 81.541763 187.954536 
L 82.732163 187.479343 
L 83.922563 187.289259 
L 85.112963 186.338855 
L 86.303363 185.863663 
L 89.874563 183.867831 
L 91.064963 183.677747 
L 92.255363 183.107512 
L 93.445763 183.202536 
L 94.636163 182.252151 
L 95.826563 182.157108 
L 98.207363 180.731512 
L 99.397763 180.63647 
L 100.588163 179.971175 
L 101.778563 179.781108 
L 104.159363 178.925747 
L 105.349763 178.545578 
L 106.540163 178.735663 
L 107.730563 178.355512 
L 108.920963 177.405108 
L 110.111363 177.595175 
L 112.492163 176.739831 
L 113.682563 176.359663 
L 114.872963 176.359663 
L 117.253763 175.504301 
L 118.444163 175.504301 
L 119.634563 175.124151 
L 120.824963 175.314217 
L 123.205763 174.64894 
L 124.396163 174.64894 
L 126.776963 173.793578 
L 127.967363 173.88862 
L 130.348163 173.413428 
L 138.680963 172.177898 
L 139.871363 172.082855 
L 142.252163 171.607663 
L 143.442563 171.702705 
L 144.632963 171.322536 
L 145.823363 171.417578 
L 149.394563 171.037428 
L 150.584963 171.227494 
L 151.775363 170.942385 
L 156.536963 170.562217 
L 157.727363 170.277108 
L 160.108163 170.087024 
L 161.298563 169.706855 
L 163.679363 169.611831 
L 164.869763 169.421747 
L 166.060163 169.421747 
L 170.821763 168.75647 
L 172.012163 168.946536 
L 174.392963 168.661428 
L 175.583363 168.471343 
L 177.964163 168.376301 
L 179.154563 168.281259 
L 181.535363 168.471343 
L 182.725763 168.186217 
L 183.916163 168.186217 
L 186.296963 167.901108 
L 189.868163 167.806066 
L 191.058563 167.711024 
L 192.248963 167.330855 
L 197.010563 166.950705 
L 198.200963 167.615982 
L 199.391363 167.52094 
L 201.772163 166.950705 
L 202.962563 167.045747 
L 204.152963 166.855663 
L 205.343363 166.855663 
L 206.533763 166.665578 
L 207.724163 166.855663 
L 210.104963 166.475494 
L 213.676163 166.570536 
L 214.866563 166.665578 
L 217.247363 166.190385 
L 218.437763 166.285428 
L 220.818563 166.000301 
L 226.770563 165.620151 
L 230.341763 165.525108 
L 233.912963 165.335024 
L 235.103363 165.430066 
L 237.484163 165.14494 
L 238.674563 165.049898 
L 241.055363 165.239982 
L 243.436163 165.14494 
L 245.816963 165.14494 
L 249.388163 164.669747 
L 251.768963 164.764789 
L 254.149763 164.669747 
L 255.340163 164.764789 
L 260.101763 164.289578 
L 261.292163 164.099494 
L 262.482563 164.099494 
L 263.672963 163.909428 
L 269.624963 164.00447 
L 272.005763 164.099494 
L 277.957763 164.00447 
L 280.338563 163.719343 
L 281.528963 163.529259 
L 287.480963 163.909428 
L 288.671363 163.814385 
L 289.861763 163.909428 
L 291.052163 163.624301 
L 294.623363 163.624301 
L 295.813763 163.434217 
L 302.956163 163.339175 
L 310.098563 162.76894 
L 313.669763 162.959024 
L 324.383363 162.863982 
L 326.764163 162.76894 
L 336.287363 162.673898 
L 338.668163 162.578855 
L 354.143363 162.483813 
L 356.524163 162.388789 
L 358.904963 162.483813 
L 370.808963 162.388789 
L 373.189763 162.293747 
L 379.141763 162.198705 
L 381.522563 162.103663 
L 392.236163 162.00862 
L 392.236163 162.00862 
" style="fill:none;stroke:#a9a9a9;stroke-linecap:square;stroke-width:0.5;"/>
   </g>
   <g id="line2d_53">
    <path clip-path="url(#pedf03a3f03)" d="M 37.496962 261.515512 
L 38.687362 305.233916 
L 39.877763 304.18847 
L 41.068162 300.386873 
L 42.258562 293.448949 
L 45.829763 266.077428 
L 47.020162 253.437108 
L 49.400963 233.478705 
L 51.781762 216.466554 
L 54.162563 202.02047 
L 56.543363 190.235512 
L 58.924163 180.731512 
L 60.114563 176.739831 
L 61.304963 173.223343 
L 62.495363 170.182066 
L 63.685763 166.76062 
L 64.876163 165.525108 
L 66.066563 162.483813 
L 67.256963 160.678066 
L 68.447363 158.207024 
L 69.637763 158.111982 
L 70.828163 156.021108 
L 72.018563 155.831024 
L 73.208963 154.025259 
L 74.399363 153.740151 
L 75.589763 153.169898 
L 77.970563 152.314536 
L 79.160963 151.839343 
L 81.541763 151.744301 
L 82.732163 152.599663 
L 87.493763 152.50462 
L 88.684163 152.409578 
L 89.874563 152.694705 
L 91.064963 153.26494 
L 93.445763 154.120301 
L 94.636163 154.215343 
L 104.159363 156.591343 
L 105.349763 156.591343 
L 106.540163 157.066536 
L 107.730563 157.066536 
L 111.301763 157.541747 
L 114.872963 157.541747 
L 116.063363 157.826855 
L 119.634563 157.636789 
L 122.015363 157.541747 
L 123.205763 157.351663 
L 126.776963 157.351663 
L 130.348163 156.87647 
L 131.538563 156.87647 
L 133.919363 156.401259 
L 145.823363 154.595494 
L 151.775363 154.215343 
L 154.156163 153.550066 
L 157.727363 152.694705 
L 158.917763 152.694705 
L 161.298563 152.409578 
L 166.060163 152.50462 
L 168.440963 152.599663 
L 172.012163 152.314536 
L 176.773763 152.599663 
L 183.916163 152.599663 
L 185.106563 152.789747 
L 195.820163 152.884789 
L 200.581763 153.169898 
L 202.962563 153.074855 
L 205.343363 153.074855 
L 206.533763 153.26494 
L 208.914563 153.074855 
L 224.389763 154.215343 
L 225.580163 154.120301 
L 227.960963 154.405428 
L 230.341763 154.785578 
L 233.912963 154.595494 
L 236.293763 154.595494 
L 238.674563 155.165747 
L 267.244163 157.541747 
L 269.624963 157.826855 
L 274.386563 157.921898 
L 276.767363 158.01694 
L 281.528963 158.111982 
L 286.290563 158.397108 
L 291.052163 158.397108 
L 293.432963 158.682217 
L 314.860163 158.777259 
L 316.050563 158.967343 
L 317.240963 158.872301 
L 319.621763 158.967343 
L 324.383363 159.062385 
L 326.764163 159.25247 
L 327.954563 159.062385 
L 330.335363 158.967343 
L 331.525763 159.25247 
L 335.096963 159.062385 
L 336.287363 159.25247 
L 338.668163 159.157428 
L 347.000963 159.25247 
L 350.572163 159.442536 
L 354.143363 159.537578 
L 355.333763 159.63262 
L 357.714563 159.537578 
L 369.618563 159.63262 
L 374.380163 159.917747 
L 376.760963 160.012789 
L 377.951363 160.202855 
L 392.236163 160.107813 
L 392.236163 160.107813 
" style="fill:none;stroke:#a9a9a9;stroke-linecap:square;stroke-width:0.5;"/>
   </g>
   <g id="line2d_54">
    <path clip-path="url(#pedf03a3f03)" d="M 36.47929 333.963875 
L 37.195736 -1 
M 38.166915 -1 
L 38.687362 108.406048 
L 39.877763 111.63741 
L 41.068162 111.827494 
L 42.258562 108.025916 
L 43.448963 108.501108 
L 44.639363 105.935024 
L 45.829763 104.699494 
L 47.020162 105.079663 
L 48.210563 106.315193 
L 49.400963 108.025916 
L 50.591363 111.352301 
L 51.781762 113.823343 
L 58.924163 132.736301 
L 60.114563 134.922217 
L 61.304963 137.773428 
L 64.876163 144.806385 
L 67.256963 148.322855 
L 69.637763 151.269108 
L 72.018563 154.405428 
L 73.208963 154.690536 
L 74.399363 155.926066 
L 75.589763 156.87647 
L 77.970563 158.302066 
L 80.351363 159.062385 
L 82.732163 160.107813 
L 87.493763 161.533428 
L 88.684163 161.723494 
L 89.874563 161.62847 
L 91.064963 162.103663 
L 92.255363 162.00862 
L 93.445763 162.388789 
L 95.826563 162.578855 
L 97.016963 162.293747 
L 98.207363 162.578855 
L 99.397763 162.673898 
L 100.588163 162.483813 
L 101.778563 162.863982 
L 104.159363 162.673898 
L 105.349763 163.054066 
L 106.540163 162.673898 
L 107.730563 161.913578 
L 108.920963 163.149108 
L 110.111363 162.673898 
L 111.301763 162.578855 
L 112.492163 162.959024 
L 117.253763 163.054066 
L 118.444163 163.339175 
L 119.634563 162.863982 
L 120.824963 162.578855 
L 122.015363 162.673898 
L 123.205763 163.054066 
L 124.396163 163.149108 
L 126.776963 162.673898 
L 127.967363 162.76894 
L 129.157763 163.054066 
L 138.680963 162.959024 
L 139.871363 162.76894 
L 141.061763 163.054066 
L 142.252163 162.863982 
L 144.632963 162.959024 
L 150.584963 162.959024 
L 152.965763 162.673898 
L 155.346563 162.959024 
L 157.727363 162.863982 
L 160.108163 162.863982 
L 161.298563 162.578855 
L 164.869763 162.76894 
L 175.583363 162.673898 
L 176.773763 162.578855 
L 179.154563 162.673898 
L 180.344963 162.578855 
L 181.535363 162.863982 
L 182.725763 162.578855 
L 183.916163 162.76894 
L 186.296963 162.578855 
L 187.487363 162.76894 
L 194.629763 162.76894 
L 195.820163 162.578855 
L 199.391363 162.673898 
L 202.962563 162.863982 
L 204.152963 162.76894 
L 205.343363 162.959024 
L 207.724163 162.863982 
L 208.914563 163.054066 
L 218.437763 163.149108 
L 219.628163 163.244151 
L 220.818563 163.149108 
L 222.008963 163.244151 
L 223.199363 162.959024 
L 231.532163 162.863982 
L 233.912963 162.76894 
L 237.484163 162.673898 
L 239.864963 162.578855 
L 243.436163 162.483813 
L 245.816963 162.388789 
L 250.578563 162.483813 
L 255.340163 162.76894 
L 256.530563 162.673898 
L 257.720963 162.76894 
L 258.911363 162.673898 
L 260.101763 162.76894 
L 262.482563 162.673898 
L 267.244163 162.578855 
L 269.624963 162.483813 
L 281.528963 162.388789 
L 285.100163 162.103663 
L 286.290563 162.198705 
L 288.671363 162.103663 
L 289.861763 162.293747 
L 291.052163 162.198705 
L 293.432963 162.293747 
L 316.050563 162.198705 
L 320.812163 161.913578 
L 327.954563 162.00862 
L 330.335363 162.103663 
L 333.906563 161.913578 
L 349.381763 161.818536 
L 350.572163 161.62847 
L 362.476163 161.533428 
L 364.856963 161.438385 
L 374.380163 161.533428 
L 376.760963 161.62847 
L 393.426563 161.62847 
L 393.426563 161.62847 
" style="fill:none;stroke:#a9a9a9;stroke-linecap:square;stroke-width:0.5;"/>
   </g>
   <g id="line2d_55">
    <path clip-path="url(#pedf03a3f03)" d="M 36.848917 333.963875 
L 37.496962 237.470385 
L 38.456935 333.963875 
M 40.151457 333.963875 
L 44.639363 275.961587 
L 47.020162 248.399982 
L 48.210563 237.565428 
L 49.400963 228.251512 
L 50.591363 220.363193 
L 51.781762 213.90047 
L 52.972163 208.578217 
L 54.162563 204.016301 
L 55.352963 200.214705 
L 56.543363 196.983343 
L 57.733763 194.132151 
L 58.924163 191.661108 
L 64.876163 182.537259 
L 66.066563 181.396789 
L 67.256963 179.495982 
L 68.447363 178.070385 
L 69.637763 177.500151 
L 70.828163 174.743982 
L 72.018563 174.839024 
L 73.208963 172.558066 
L 74.399363 172.558066 
L 76.780163 169.801898 
L 77.970563 168.851494 
L 80.351363 167.330855 
L 81.541763 166.38047 
L 82.732163 165.715175 
L 85.112963 163.909428 
L 86.303363 162.388789 
L 87.493763 162.198705 
L 88.684163 161.438385 
L 89.874563 160.868151 
L 91.064963 160.487982 
L 93.445763 159.347494 
L 94.636163 158.967343 
L 95.826563 158.207024 
L 98.207363 157.161578 
L 99.397763 156.686385 
L 100.588163 156.686385 
L 102.968963 155.450855 
L 104.159363 154.975663 
L 106.540163 154.405428 
L 107.730563 153.740151 
L 108.920963 153.645108 
L 110.111363 152.884789 
L 111.301763 152.884789 
L 112.492163 152.694705 
L 113.682563 152.314536 
L 116.063363 152.029428 
L 117.253763 151.839343 
L 118.444163 151.079024 
L 120.824963 151.554217 
L 122.015363 151.459175 
L 124.396163 151.744301 
L 125.586563 151.459175 
L 126.776963 151.649259 
L 129.157763 151.744301 
L 132.728963 152.029428 
L 133.919363 151.934385 
L 135.109763 152.029428 
L 136.300163 152.50462 
L 138.680963 152.599663 
L 139.871363 152.979813 
L 141.061763 153.169898 
L 143.442563 153.169898 
L 147.013763 153.835175 
L 150.584963 154.785578 
L 151.775363 154.785578 
L 152.965763 155.070705 
L 154.156163 155.545898 
L 156.536963 155.831024 
L 158.917763 156.211175 
L 160.108163 156.781428 
L 162.488963 156.87647 
L 163.679363 157.066536 
L 166.060163 157.921898 
L 170.821763 158.01694 
L 174.392963 158.872301 
L 176.773763 158.967343 
L 182.725763 159.822705 
L 183.916163 159.822705 
L 185.106563 160.202855 
L 188.677763 160.297898 
L 189.868163 160.39294 
L 191.058563 160.678066 
L 195.820163 160.678066 
L 197.010563 160.868151 
L 201.772163 160.868151 
L 202.962563 161.153259 
L 204.152963 161.248301 
L 208.914563 160.963175 
L 211.295363 161.533428 
L 220.818563 161.438385 
L 223.199363 161.343343 
L 226.770563 161.62847 
L 229.151363 161.438385 
L 230.341763 161.153259 
L 235.103363 161.62847 
L 236.293763 161.818536 
L 237.484163 161.62847 
L 238.674563 161.62847 
L 239.864963 161.438385 
L 243.436163 161.723494 
L 244.626563 161.533428 
L 245.816963 161.533428 
L 248.197763 161.248301 
L 250.578563 161.438385 
L 251.768963 161.343343 
L 254.149763 161.438385 
L 255.340163 161.438385 
L 256.530563 161.248301 
L 260.101763 161.153259 
L 262.482563 161.058217 
L 266.053763 161.058217 
L 267.244163 161.248301 
L 273.196163 160.773108 
L 274.386563 160.868151 
L 276.767363 160.773108 
L 279.148163 160.868151 
L 281.528963 160.773108 
L 289.861763 160.868151 
L 293.432963 161.058217 
L 299.384963 160.963175 
L 301.765763 160.868151 
L 316.050563 160.963175 
L 320.812163 161.248301 
L 325.573763 160.963175 
L 333.906563 160.868151 
L 335.096963 160.678066 
L 337.477763 160.773108 
L 345.810563 160.678066 
L 347.000963 161.058217 
L 348.191363 161.153259 
L 354.143363 160.773108 
L 356.524163 160.868151 
L 363.666563 160.773108 
L 366.047363 160.678066 
L 368.428163 160.773108 
L 373.189763 160.868151 
L 375.570563 160.963175 
L 376.760963 160.868151 
L 379.141763 160.963175 
L 393.426563 161.058217 
L 393.426563 161.058217 
" style="fill:none;stroke:#a9a9a9;stroke-linecap:square;stroke-width:0.5;"/>
   </g>
   <g id="line2d_56">
    <path clip-path="url(#pedf03a3f03)" d="M 36.990927 333.963875 
L 37.496962 274.250873 
L 38.687362 222.073898 
L 39.877763 206.012151 
L 41.068162 202.875831 
L 42.258562 204.491512 
L 43.448963 204.39647 
L 44.639363 203.065898 
L 45.829763 200.689898 
L 49.400963 192.611512 
L 50.591363 189.190066 
L 51.781762 186.52894 
L 52.972163 183.39262 
L 55.352963 178.26047 
L 57.733763 173.793578 
L 60.114563 169.89694 
L 61.304963 167.140789 
L 62.495363 166.095343 
L 63.685763 164.194536 
L 64.876163 163.339175 
L 66.066563 160.487982 
L 67.256963 160.107813 
L 68.447363 158.587175 
L 69.637763 157.446705 
L 70.828163 156.591343 
L 73.208963 154.405428 
L 74.399363 153.835175 
L 75.589763 153.645108 
L 76.780163 151.174066 
L 77.970563 151.934385 
L 80.351363 150.12862 
L 81.541763 150.223663 
L 82.732163 149.843494 
L 83.922563 149.653428 
L 85.112963 149.178217 
L 86.303363 147.562536 
L 87.493763 147.467494 
L 88.684163 147.182385 
L 89.874563 147.277428 
L 91.064963 146.992301 
L 92.255363 146.422066 
L 95.826563 146.041898 
L 98.207363 145.471663 
L 99.397763 145.471663 
L 100.588163 145.281578 
L 101.778563 145.566705 
L 102.968963 145.091494 
L 104.159363 144.806385 
L 105.349763 145.186536 
L 106.540163 144.901428 
L 107.730563 144.901428 
L 108.920963 145.471663 
L 110.111363 144.711343 
L 111.301763 144.806385 
L 112.492163 145.281578 
L 114.872963 145.091494 
L 116.063363 145.471663 
L 120.824963 145.851813 
L 122.015363 146.422066 
L 123.205763 146.327024 
L 125.586563 146.612132 
L 126.776963 146.802217 
L 130.348163 147.847663 
L 131.538563 147.75262 
L 132.728963 147.942705 
L 136.300163 149.083175 
L 138.680963 149.273259 
L 139.871363 149.558385 
L 141.061763 149.653428 
L 143.442563 150.508789 
L 144.632963 150.793898 
L 145.823363 150.88894 
L 147.013763 151.174066 
L 149.394563 151.459175 
L 150.584963 151.744301 
L 152.965763 151.934385 
L 154.156163 152.50462 
L 155.346563 152.884789 
L 156.536963 153.074855 
L 158.917763 153.169898 
L 160.108163 153.26494 
L 161.298563 153.169898 
L 164.869763 154.025259 
L 166.060163 153.930217 
L 167.250563 154.310385 
L 168.440963 154.215343 
L 169.631363 154.785578 
L 170.821763 154.88062 
L 172.012163 155.260789 
L 173.202563 155.260789 
L 174.392963 155.450855 
L 175.583363 155.450855 
L 176.773763 155.831024 
L 177.964163 155.831024 
L 185.106563 156.87647 
L 195.820163 157.636789 
L 198.200963 157.731813 
L 199.391363 158.111982 
L 201.772163 158.302066 
L 204.152963 158.207024 
L 206.533763 158.397108 
L 207.724163 158.682217 
L 208.914563 158.492151 
L 211.295363 158.492151 
L 212.485763 158.777259 
L 214.866563 158.872301 
L 216.056963 158.682217 
L 217.247363 158.777259 
L 219.628163 159.25247 
L 224.389763 158.967343 
L 225.580163 159.25247 
L 230.341763 159.537578 
L 232.722563 159.63262 
L 237.484163 159.917747 
L 239.864963 159.822705 
L 241.055363 159.537578 
L 248.197763 160.012789 
L 251.768963 159.727663 
L 255.340163 159.917747 
L 256.530563 159.822705 
L 258.911363 159.917747 
L 267.244163 159.822705 
L 268.434563 159.727663 
L 272.005763 159.917747 
L 273.196163 159.917747 
L 274.386563 160.107813 
L 281.528963 160.012789 
L 282.719363 159.822705 
L 286.290563 160.012789 
L 288.671363 160.012789 
L 289.861763 160.202855 
L 297.004163 160.107813 
L 299.384963 159.917747 
L 307.717763 160.487982 
L 311.288963 160.297898 
L 316.050563 160.39294 
L 318.431363 160.487982 
L 342.239363 160.583024 
L 343.429763 160.773108 
L 354.143363 160.678066 
L 356.524163 160.583024 
L 376.760963 160.678066 
L 380.332163 160.868151 
L 392.236163 160.773108 
L 392.236163 160.773108 
" style="fill:none;stroke:#a9a9a9;stroke-linecap:square;stroke-width:0.5;"/>
   </g>
   <g id="line2d_57">
    <path clip-path="url(#pedf03a3f03)" d="M 37.230298 333.963875 
L 37.496962 310.651193 
L 38.687362 284.705268 
L 39.877763 263.511352 
L 41.068162 246.119024 
L 42.258562 230.53247 
L 43.448963 217.226873 
L 44.639363 206.012151 
L 45.829763 196.318066 
L 48.210563 181.396789 
L 49.400963 175.599343 
L 50.591363 170.657259 
L 51.781762 166.38047 
L 52.972163 162.673898 
L 54.162563 159.537578 
L 56.543363 154.405428 
L 58.924163 150.603813 
L 60.114563 148.798066 
L 64.876163 143.570855 
L 66.066563 142.905578 
L 67.256963 141.575024 
L 69.637763 139.959343 
L 70.828163 139.389108 
L 72.018563 138.628789 
L 74.399363 137.583343 
L 75.589763 137.013108 
L 76.780163 136.918066 
L 77.970563 136.347813 
L 79.160963 135.587494 
L 80.351363 135.587494 
L 82.732163 134.922217 
L 83.922563 134.922217 
L 85.112963 134.637108 
L 86.303363 134.637108 
L 88.684163 134.25694 
L 89.874563 134.351982 
L 92.255363 134.066855 
L 93.445763 133.876789 
L 95.826563 133.876789 
L 97.016963 134.066855 
L 98.207363 133.876789 
L 99.397763 134.25694 
L 100.588163 134.066855 
L 101.778563 134.25694 
L 102.968963 134.637108 
L 104.159363 134.25694 
L 105.349763 134.637108 
L 107.730563 134.637108 
L 108.920963 134.827175 
L 110.111363 135.302385 
L 111.301763 135.207343 
L 113.682563 135.87262 
L 114.872963 135.777578 
L 116.063363 136.347813 
L 117.253763 136.347813 
L 120.824963 137.108132 
L 124.396163 137.678385 
L 127.967363 139.103982 
L 129.157763 139.103982 
L 130.348163 139.579175 
L 132.728963 140.054385 
L 133.919363 140.529578 
L 137.490563 141.289898 
L 138.680963 141.479982 
L 141.061763 142.145259 
L 143.442563 142.810536 
L 148.204163 144.236132 
L 158.917763 146.707175 
L 160.108163 146.897259 
L 162.488963 147.562536 
L 169.631363 148.607982 
L 170.821763 148.703024 
L 172.012163 149.273259 
L 173.202563 149.273259 
L 188.677763 151.839343 
L 189.868163 152.12447 
L 191.058563 152.219494 
L 193.439363 152.694705 
L 197.010563 153.169898 
L 199.391363 153.455024 
L 201.772163 153.740151 
L 207.724163 154.310385 
L 208.914563 154.50047 
L 210.104963 154.50047 
L 211.295363 154.785578 
L 216.056963 155.260789 
L 218.437763 155.545898 
L 222.008963 155.926066 
L 223.199363 156.211175 
L 226.770563 156.401259 
L 227.960963 156.306217 
L 231.532163 156.781428 
L 236.293763 157.066536 
L 238.674563 157.066536 
L 239.864963 157.351663 
L 243.436163 157.541747 
L 245.816963 157.446705 
L 252.959363 157.541747 
L 255.340163 157.826855 
L 262.482563 158.302066 
L 276.767363 158.397108 
L 280.338563 158.587175 
L 283.909763 158.682217 
L 286.290563 158.777259 
L 292.242563 158.872301 
L 294.623363 158.967343 
L 298.194563 159.062385 
L 300.575363 159.157428 
L 305.336963 159.25247 
L 307.717763 159.347494 
L 310.098563 159.442536 
L 312.479363 159.537578 
L 324.383363 159.63262 
L 330.335363 160.012789 
L 342.239363 160.107813 
L 345.810563 160.297898 
L 360.095363 160.39294 
L 363.666563 160.583024 
L 392.236163 160.678066 
L 392.236163 160.678066 
" style="fill:none;stroke:#a9a9a9;stroke-linecap:square;stroke-width:0.5;"/>
   </g>
   <g id="line2d_58">
    <path clip-path="url(#pedf03a3f03)" d="M 36.306562 156.27168 
L 393.426563 156.27168 
" style="fill:none;stroke:#000000;stroke-linecap:square;"/>
   </g>
   <g id="patch_3">
    <path d="M 36.306562 300.672 
L 36.306562 34.56 
" style="fill:none;stroke:#000000;stroke-linecap:square;stroke-linejoin:miter;stroke-width:0.8;"/>
   </g>
   <g id="patch_4">
    <path d="M 393.426563 300.672 
L 393.426563 34.56 
" style="fill:none;stroke:#000000;stroke-linecap:square;stroke-linejoin:miter;stroke-width:0.8;"/>
   </g>
   <g id="patch_5">
    <path d="M 36.306562 300.672 
L 393.426563 300.672 
" style="fill:none;stroke:#000000;stroke-linecap:square;stroke-linejoin:miter;stroke-width:0.8;"/>
   </g>
   <g id="patch_6">
    <path d="M 36.306562 34.56 
L 393.426563 34.56 
" style="fill:none;stroke:#000000;stroke-linecap:square;stroke-linejoin:miter;stroke-width:0.8;"/>
   </g>
   <g id="legend_1">
    <g id="patch_7">
     <path d="M 328.626563 97.00125 
L 385.026563 97.00125 
Q 387.426563 97.00125 387.426563 94.60125 
L 387.426563 42.96 
Q 387.426563 40.56 385.026563 40.56 
L 328.626563 40.56 
Q 326.226563 40.56 326.226563 42.96 
L 326.226563 94.60125 
Q 326.226563 97.00125 328.626563 97.00125 
z
" style="fill:#ffffff;opacity:0.8;stroke:#cccccc;stroke-linejoin:miter;"/>
    </g>
    <g id="line2d_59">
     <path d="M 331.026563 50.278125 
L 355.026563 50.278125 
" style="fill:none;stroke:#dc143c;stroke-linecap:square;stroke-width:1.5;"/>
    </g>
    <g id="line2d_60"/>
    <g id="text_18">
     <!-- $\epsilon$% -->
     <defs>
      <path d="M 19.734375 29.5 
Q 14.453125 30.671875 12.15625 33.84375 
Q 10.453125 36.078125 10.453125 39.109375 
Q 10.453125 47.40625 18.359375 52.25 
Q 24.609375 56.0625 34.1875 56.0625 
Q 37.890625 56.0625 41.9375 55.46875 
Q 46 54.890625 50.53125 53.71875 
L 48.96875 45.5625 
Q 44.484375 46.96875 40.71875 47.609375 
Q 36.859375 48.25 33.40625 48.25 
Q 27.59375 48.25 23.78125 46 
Q 19.1875 43.3125 19.1875 39.40625 
Q 19.1875 36.8125 21.578125 35.015625 
Q 24.421875 32.859375 30.078125 32.859375 
L 37.640625 32.859375 
L 36.234375 25.4375 
L 29 25.4375 
Q 22.265625 25.4375 18.3125 22.953125 
Q 12.9375 19.578125 12.9375 14.3125 
Q 12.9375 10.984375 15.828125 8.796875 
Q 19.4375 6.0625 26.8125 6.0625 
Q 31.34375 6.0625 35.6875 6.9375 
Q 40.046875 7.859375 43.84375 9.671875 
L 42.1875 1.3125 
Q 37.546875 -0.046875 33.296875 -0.734375 
Q 29.046875 -1.421875 25.140625 -1.421875 
Q 13.53125 -1.421875 8.0625 3.03125 
Q 3.90625 6.453125 3.90625 12.203125 
Q 3.90625 19.96875 9.375 24.75 
Q 13.421875 28.328125 19.734375 29.5 
z
" id="DejaVuSans-Oblique-3b5"/>
      <path d="M 72.703125 32.078125 
Q 68.453125 32.078125 66.03125 28.46875 
Q 63.625 24.859375 63.625 18.40625 
Q 63.625 12.0625 66.03125 8.421875 
Q 68.453125 4.78125 72.703125 4.78125 
Q 76.859375 4.78125 79.265625 8.421875 
Q 81.6875 12.0625 81.6875 18.40625 
Q 81.6875 24.8125 79.265625 28.4375 
Q 76.859375 32.078125 72.703125 32.078125 
z
M 72.703125 38.28125 
Q 80.421875 38.28125 84.953125 32.90625 
Q 89.5 27.546875 89.5 18.40625 
Q 89.5 9.28125 84.9375 3.921875 
Q 80.375 -1.421875 72.703125 -1.421875 
Q 64.890625 -1.421875 60.34375 3.921875 
Q 55.8125 9.28125 55.8125 18.40625 
Q 55.8125 27.59375 60.375 32.9375 
Q 64.9375 38.28125 72.703125 38.28125 
z
M 22.3125 68.015625 
Q 18.109375 68.015625 15.6875 64.375 
Q 13.28125 60.75 13.28125 54.390625 
Q 13.28125 47.953125 15.671875 44.328125 
Q 18.0625 40.71875 22.3125 40.71875 
Q 26.5625 40.71875 28.96875 44.328125 
Q 31.390625 47.953125 31.390625 54.390625 
Q 31.390625 60.6875 28.953125 64.34375 
Q 26.515625 68.015625 22.3125 68.015625 
z
M 66.40625 74.21875 
L 74.21875 74.21875 
L 28.609375 -1.421875 
L 20.796875 -1.421875 
z
M 22.3125 74.21875 
Q 30.03125 74.21875 34.609375 68.875 
Q 39.203125 63.53125 39.203125 54.390625 
Q 39.203125 45.171875 34.640625 39.84375 
Q 30.078125 34.515625 22.3125 34.515625 
Q 14.546875 34.515625 10.03125 39.859375 
Q 5.515625 45.21875 5.515625 54.390625 
Q 5.515625 63.484375 10.046875 68.84375 
Q 14.59375 74.21875 22.3125 74.21875 
z
" id="DejaVuSans-25"/>
     </defs>
     <g transform="translate(364.626563 54.478125)scale(0.12 -0.12)">
      <use transform="translate(0 0.78125)" xlink:href="#DejaVuSans-Oblique-3b5"/>
      <use transform="translate(54.052734 0.78125)" xlink:href="#DejaVuSans-25"/>
     </g>
    </g>
    <g id="line2d_61">
     <path d="M 331.026563 67.891875 
L 355.026563 67.891875 
" style="fill:none;stroke:#a9a9a9;stroke-linecap:square;stroke-width:0.5;"/>
    </g>
    <g id="line2d_62"/>
    <g id="text_19">
     <!-- $\lambda_i$ -->
     <g transform="translate(364.626563 72.091875)scale(0.12 -0.12)">
      <use transform="translate(0 0.015625)" xlink:href="#DejaVuSans-Oblique-3bb"/>
      <use transform="translate(59.179688 -16.390625)scale(0.7)" xlink:href="#DejaVuSans-Oblique-69"/>
     </g>
    </g>
    <g id="line2d_63">
     <path d="M 331.026563 85.505625 
L 355.026563 85.505625 
" style="fill:none;stroke:#000000;stroke-linecap:square;"/>
    </g>
    <g id="line2d_64"/>
    <g id="text_20">
     <!-- $\bar{\lambda}$ -->
     <defs>
      <path d="M -39.34375 74.515625 
L -10.15625 74.515625 
L -10.15625 67.28125 
L -39.34375 67.28125 
z
" id="DejaVuSans-304"/>
     </defs>
     <g transform="translate(364.626563 89.705625)scale(0.12 -0.12)">
      <use transform="translate(62.138672 21.484375)" xlink:href="#DejaVuSans-304"/>
      <use transform="translate(0 0.28125)" xlink:href="#DejaVuSans-Oblique-3bb"/>
     </g>
    </g>
   </g>
  </g>
  <g id="axes_2">
   <g id="matplotlib.axis_3">
    <g id="ytick_9">
     <g id="line2d_65">
      <defs>
       <path d="M 0 0 
L 3.5 0 
" id="ma240fe1c30" style="stroke:#000000;stroke-width:0.8;"/>
      </defs>
      <g>
       <use style="stroke:#000000;stroke-width:0.8;" x="393.426563" xlink:href="#ma240fe1c30" y="300.672"/>
      </g>
     </g>
     <g id="text_21">
      <!-- 0.0 -->
      <defs>
       <path d="M 10.6875 12.40625 
L 21 12.40625 
L 21 0 
L 10.6875 0 
z
" id="DejaVuSans-2e"/>
      </defs>
      <g transform="translate(400.426563 304.471219)scale(0.1 -0.1)">
       <use xlink:href="#DejaVuSans-30"/>
       <use x="63.623047" xlink:href="#DejaVuSans-2e"/>
       <use x="95.410156" xlink:href="#DejaVuSans-30"/>
      </g>
     </g>
    </g>
    <g id="ytick_10">
     <g id="line2d_66">
      <g>
       <use style="stroke:#000000;stroke-width:0.8;" x="393.426563" xlink:href="#ma240fe1c30" y="247.4496"/>
      </g>
     </g>
     <g id="text_22">
      <!-- 0.1 -->
      <g transform="translate(400.426563 251.248819)scale(0.1 -0.1)">
       <use xlink:href="#DejaVuSans-30"/>
       <use x="63.623047" xlink:href="#DejaVuSans-2e"/>
       <use x="95.410156" xlink:href="#DejaVuSans-31"/>
      </g>
     </g>
    </g>
    <g id="ytick_11">
     <g id="line2d_67">
      <g>
       <use style="stroke:#000000;stroke-width:0.8;" x="393.426563" xlink:href="#ma240fe1c30" y="194.2272"/>
      </g>
     </g>
     <g id="text_23">
      <!-- 0.2 -->
      <g transform="translate(400.426563 198.026419)scale(0.1 -0.1)">
       <use xlink:href="#DejaVuSans-30"/>
       <use x="63.623047" xlink:href="#DejaVuSans-2e"/>
       <use x="95.410156" xlink:href="#DejaVuSans-32"/>
      </g>
     </g>
    </g>
    <g id="ytick_12">
     <g id="line2d_68">
      <g>
       <use style="stroke:#000000;stroke-width:0.8;" x="393.426563" xlink:href="#ma240fe1c30" y="141.0048"/>
      </g>
     </g>
     <g id="text_24">
      <!-- 0.3 -->
      <g transform="translate(400.426563 144.804019)scale(0.1 -0.1)">
       <use xlink:href="#DejaVuSans-30"/>
       <use x="63.623047" xlink:href="#DejaVuSans-2e"/>
       <use x="95.410156" xlink:href="#DejaVuSans-33"/>
      </g>
     </g>
    </g>
    <g id="ytick_13">
     <g id="line2d_69">
      <g>
       <use style="stroke:#000000;stroke-width:0.8;" x="393.426563" xlink:href="#ma240fe1c30" y="87.7824"/>
      </g>
     </g>
     <g id="text_25">
      <!-- 0.4 -->
      <g transform="translate(400.426563 91.581619)scale(0.1 -0.1)">
       <use xlink:href="#DejaVuSans-30"/>
       <use x="63.623047" xlink:href="#DejaVuSans-2e"/>
       <use x="95.410156" xlink:href="#DejaVuSans-34"/>
      </g>
     </g>
    </g>
    <g id="ytick_14">
     <g id="line2d_70">
      <g>
       <use style="stroke:#000000;stroke-width:0.8;" x="393.426563" xlink:href="#ma240fe1c30" y="34.56"/>
      </g>
     </g>
     <g id="text_26">
      <!-- 0.5 -->
      <g transform="translate(400.426563 38.359219)scale(0.1 -0.1)">
       <use xlink:href="#DejaVuSans-30"/>
       <use x="63.623047" xlink:href="#DejaVuSans-2e"/>
       <use x="95.410156" xlink:href="#DejaVuSans-35"/>
      </g>
     </g>
    </g>
    <g id="ytick_15">
     <g id="line2d_71">
      <defs>
       <path d="M 0 0 
L 2 0 
" id="mab5b1c9dbd" style="stroke:#000000;stroke-width:0.6;"/>
      </defs>
      <g>
       <use style="stroke:#000000;stroke-width:0.6;" x="393.426563" xlink:href="#mab5b1c9dbd" y="300.672"/>
      </g>
     </g>
    </g>
    <g id="text_27">
     <!-- $\epsilon$% -->
     <g transform="translate(430.207656 177.366)rotate(-90)scale(0.13 -0.13)">
      <use transform="translate(0 0.78125)" xlink:href="#DejaVuSans-Oblique-3b5"/>
      <use transform="translate(54.052734 0.78125)" xlink:href="#DejaVuSans-25"/>
     </g>
    </g>
   </g>
   <g id="line2d_72">
    <path clip-path="url(#pedf03a3f03)" d="M 36.306562 300.672 
L 36.515805 -1 
M 51.794502 -1 
L 54.162563 56.026491 
L 56.543363 105.151306 
L 58.924163 147.621799 
L 60.114563 161.126202 
L 61.304963 168.172003 
L 62.495363 172.673509 
L 64.876163 184.22074 
L 66.066563 189.11365 
L 67.256963 188.722246 
L 68.447363 190.092254 
L 69.637763 189.505092 
L 70.828163 189.505092 
L 72.018563 188.526525 
L 73.208963 188.135083 
L 74.399363 188.135083 
L 75.589763 189.309408 
L 76.780163 189.896533 
L 77.970563 190.287938 
L 79.160963 189.700775 
L 80.351363 190.679379 
L 81.541763 192.049425 
L 83.922563 192.832272 
L 85.112963 194.202318 
L 87.493763 196.159451 
L 88.684163 196.942298 
L 89.874563 198.703748 
L 91.064963 198.899469 
L 92.255363 199.682315 
L 93.445763 199.095227 
L 94.636163 201.052361 
L 95.826563 201.248082 
L 97.016963 203.009495 
L 98.207363 204.18382 
L 100.588163 206.140991 
L 101.778563 206.728116 
L 102.968963 208.098162 
L 104.159363 206.923837 
L 105.349763 206.923875 
L 106.540163 207.706721 
L 107.730563 207.315316 
L 108.920963 207.706721 
L 110.111363 209.468171 
L 111.301763 209.076729 
L 112.492163 209.859575 
L 113.682563 210.83818 
L 114.872963 210.642459 
L 116.063363 211.816747 
L 118.444163 212.59963 
L 119.634563 213.382514 
L 120.824963 214.361043 
L 122.015363 214.948206 
L 123.205763 215.731089 
L 124.396163 216.318252 
L 125.586563 217.49254 
L 126.776963 218.079702 
L 127.967363 219.449711 
L 129.157763 219.058269 
L 130.348163 220.428278 
L 131.538563 220.623999 
L 132.728963 221.211161 
L 133.919363 222.58117 
L 135.109763 223.364016 
L 136.300163 223.755458 
L 137.490563 224.734025 
L 138.680963 225.125466 
L 139.871363 226.299754 
L 141.061763 227.082638 
L 142.252163 227.6698 
L 143.442563 229.039809 
L 145.823363 231.388384 
L 147.013763 232.171268 
L 148.204163 233.541277 
L 149.394563 234.324123 
L 150.584963 235.694169 
L 151.775363 236.477052 
L 152.965763 237.064177 
L 154.156163 238.238465 
L 155.346563 238.82559 
L 156.536963 240.195636 
L 157.727363 241.369962 
L 158.917763 241.761366 
L 160.108163 242.544212 
L 161.298563 243.718537 
L 162.488963 244.697104 
L 163.679363 245.284267 
L 164.869763 246.06715 
L 166.060163 247.045717 
L 167.250563 248.220005 
L 168.440963 248.415726 
L 169.631363 249.198609 
L 170.821763 250.372897 
L 172.012163 251.742906 
L 173.202563 251.938626 
L 174.392963 253.308635 
L 175.583363 254.091519 
L 176.773763 255.070086 
L 177.964163 255.852932 
L 179.154563 256.048652 
L 180.344963 256.440094 
L 181.535363 257.222978 
L 182.725763 257.22294 
L 183.916163 258.005824 
L 185.106563 258.984428 
L 186.296963 259.37587 
L 187.487363 259.571553 
L 189.868163 260.354437 
L 191.058563 261.137283 
L 192.248963 261.333004 
L 195.820163 262.507291 
L 197.010563 262.507291 
L 198.200963 263.290175 
L 200.581763 264.4645 
L 201.772163 264.660184 
L 202.962563 265.051625 
L 204.152963 265.834509 
L 206.533763 266.617355 
L 207.724163 266.813076 
L 208.914563 267.20448 
L 210.104963 268.183084 
L 211.295363 268.574526 
L 213.676163 268.965968 
L 216.056963 270.140218 
L 217.247363 270.140218 
L 218.437763 270.53166 
L 219.628163 270.727381 
L 220.818563 271.118823 
L 222.008963 271.705985 
L 223.199363 272.684589 
L 224.389763 272.880273 
L 225.580163 273.271677 
L 226.770563 273.85884 
L 230.341763 275.033165 
L 233.912963 275.62029 
L 235.103363 275.62029 
L 236.293763 276.403136 
L 237.484163 276.794578 
L 238.674563 276.990299 
L 239.864963 277.381741 
L 241.055363 277.577461 
L 242.245763 277.577461 
L 243.436163 278.164624 
L 244.626563 278.556028 
L 247.007363 278.556028 
L 249.388163 279.730354 
L 250.578563 279.730354 
L 251.768963 279.926074 
L 255.340163 281.100362 
L 256.530563 281.296083 
L 257.720963 281.296083 
L 258.911363 282.078967 
L 260.101763 282.27465 
L 262.482563 282.27465 
L 264.863363 282.666092 
L 266.053763 282.666092 
L 268.434563 283.057533 
L 269.624963 283.057533 
L 274.386563 283.84038 
L 276.767363 284.623226 
L 279.148163 285.014667 
L 281.528963 285.014667 
L 282.719363 285.210388 
L 286.290563 286.384713 
L 287.480963 286.971876 
L 289.861763 287.36328 
L 291.052163 287.16756 
L 292.242563 287.36328 
L 293.432963 287.950406 
L 294.623363 287.950406 
L 295.813763 288.146126 
L 297.004163 288.146126 
L 298.194563 288.341847 
L 299.384963 288.92901 
L 300.575363 288.92901 
L 302.956163 289.320452 
L 304.146563 289.320452 
L 305.336963 289.516172 
L 306.527363 289.907614 
L 310.098563 289.907614 
L 311.288963 290.299056 
L 312.479363 290.299056 
L 314.860163 290.69046 
L 317.240963 290.69046 
L 318.431363 290.886181 
L 319.621763 290.886181 
L 320.812163 291.081902 
L 322.002563 291.081902 
L 323.192963 291.277586 
L 325.573763 291.277586 
L 326.764163 291.473306 
L 329.144963 291.473306 
L 330.335363 291.669027 
L 331.525763 291.669027 
L 332.716163 292.060469 
L 333.906563 292.060469 
L 336.287363 292.451911 
L 339.858563 292.451911 
L 341.048963 292.647632 
L 342.239363 292.451911 
L 345.810563 292.451911 
L 349.381763 293.626198 
L 355.333763 294.604803 
L 356.524163 294.409082 
L 368.428163 294.409082 
L 369.618563 294.800524 
L 370.808963 294.996244 
L 371.999363 295.387686 
L 376.760963 295.387686 
L 379.141763 295.779091 
L 380.332163 295.779091 
L 381.522563 295.974774 
L 391.045763 295.974774 
L 392.236163 296.170495 
L 393.426563 299.497675 
L 393.426563 299.497675 
" style="fill:none;stroke:#dc143c;stroke-linecap:square;stroke-width:1.5;"/>
   </g>
   <g id="patch_8">
    <path d="M 36.306562 300.672 
L 36.306562 34.56 
" style="fill:none;stroke:#000000;stroke-linecap:square;stroke-linejoin:miter;stroke-width:0.8;"/>
   </g>
   <g id="patch_9">
    <path d="M 393.426563 300.672 
L 393.426563 34.56 
" style="fill:none;stroke:#000000;stroke-linecap:square;stroke-linejoin:miter;stroke-width:0.8;"/>
   </g>
   <g id="patch_10">
    <path d="M 36.306562 300.672 
L 393.426563 300.672 
" style="fill:none;stroke:#000000;stroke-linecap:square;stroke-linejoin:miter;stroke-width:0.8;"/>
   </g>
   <g id="patch_11">
    <path d="M 36.306562 34.56 
L 393.426563 34.56 
" style="fill:none;stroke:#000000;stroke-linecap:square;stroke-linejoin:miter;stroke-width:0.8;"/>
   </g>
   <g id="text_28">
    <!-- 11 Agents: $K_p=0.5$ $\delta=0.1$ -->
    <defs>
     <path id="DejaVuSans-20"/>
     <path d="M 34.1875 63.1875 
L 20.796875 26.90625 
L 47.609375 26.90625 
z
M 28.609375 72.90625 
L 39.796875 72.90625 
L 67.578125 0 
L 57.328125 0 
L 50.6875 18.703125 
L 17.828125 18.703125 
L 11.1875 0 
L 0.78125 0 
z
" id="DejaVuSans-41"/>
     <path d="M 45.40625 27.984375 
Q 45.40625 37.75 41.375 43.109375 
Q 37.359375 48.484375 30.078125 48.484375 
Q 22.859375 48.484375 18.828125 43.109375 
Q 14.796875 37.75 14.796875 27.984375 
Q 14.796875 18.265625 18.828125 12.890625 
Q 22.859375 7.515625 30.078125 7.515625 
Q 37.359375 7.515625 41.375 12.890625 
Q 45.40625 18.265625 45.40625 27.984375 
z
M 54.390625 6.78125 
Q 54.390625 -7.171875 48.1875 -13.984375 
Q 42 -20.796875 29.203125 -20.796875 
Q 24.46875 -20.796875 20.265625 -20.09375 
Q 16.0625 -19.390625 12.109375 -17.921875 
L 12.109375 -9.1875 
Q 16.0625 -11.328125 19.921875 -12.34375 
Q 23.78125 -13.375 27.78125 -13.375 
Q 36.625 -13.375 41.015625 -8.765625 
Q 45.40625 -4.15625 45.40625 5.171875 
L 45.40625 9.625 
Q 42.625 4.78125 38.28125 2.390625 
Q 33.9375 0 27.875 0 
Q 17.828125 0 11.671875 7.65625 
Q 5.515625 15.328125 5.515625 27.984375 
Q 5.515625 40.671875 11.671875 48.328125 
Q 17.828125 56 27.875 56 
Q 33.9375 56 38.28125 53.609375 
Q 42.625 51.21875 45.40625 46.390625 
L 45.40625 54.6875 
L 54.390625 54.6875 
z
" id="DejaVuSans-67"/>
     <path d="M 44.28125 53.078125 
L 44.28125 44.578125 
Q 40.484375 46.53125 36.375 47.5 
Q 32.28125 48.484375 27.875 48.484375 
Q 21.1875 48.484375 17.84375 46.4375 
Q 14.5 44.390625 14.5 40.28125 
Q 14.5 37.15625 16.890625 35.375 
Q 19.28125 33.59375 26.515625 31.984375 
L 29.59375 31.296875 
Q 39.15625 29.25 43.1875 25.515625 
Q 47.21875 21.78125 47.21875 15.09375 
Q 47.21875 7.46875 41.1875 3.015625 
Q 35.15625 -1.421875 24.609375 -1.421875 
Q 20.21875 -1.421875 15.453125 -0.5625 
Q 10.6875 0.296875 5.421875 2 
L 5.421875 11.28125 
Q 10.40625 8.6875 15.234375 7.390625 
Q 20.0625 6.109375 24.8125 6.109375 
Q 31.15625 6.109375 34.5625 8.28125 
Q 37.984375 10.453125 37.984375 14.40625 
Q 37.984375 18.0625 35.515625 20.015625 
Q 33.0625 21.96875 24.703125 23.78125 
L 21.578125 24.515625 
Q 13.234375 26.265625 9.515625 29.90625 
Q 5.8125 33.546875 5.8125 39.890625 
Q 5.8125 47.609375 11.28125 51.796875 
Q 16.75 56 26.8125 56 
Q 31.78125 56 36.171875 55.265625 
Q 40.578125 54.546875 44.28125 53.078125 
z
" id="DejaVuSans-73"/>
     <path d="M 11.71875 12.40625 
L 22.015625 12.40625 
L 22.015625 0 
L 11.71875 0 
z
M 11.71875 51.703125 
L 22.015625 51.703125 
L 22.015625 39.3125 
L 11.71875 39.3125 
z
" id="DejaVuSans-3a"/>
     <path d="M 16.890625 72.90625 
L 26.8125 72.90625 
L 20.796875 42.1875 
L 59.078125 72.90625 
L 72.21875 72.90625 
L 28.90625 38.09375 
L 60.59375 0 
L 48.578125 0 
L 19.484375 35.5 
L 12.59375 0 
L 2.6875 0 
z
" id="DejaVuSans-Oblique-4b"/>
     <path d="M 49.609375 33.6875 
Q 49.609375 40.875 46.484375 44.671875 
Q 43.359375 48.484375 37.5 48.484375 
Q 33.5 48.484375 29.859375 46.4375 
Q 26.21875 44.390625 23.390625 40.484375 
Q 20.609375 36.625 18.9375 31.15625 
Q 17.28125 25.6875 17.28125 20.3125 
Q 17.28125 13.484375 20.40625 9.796875 
Q 23.53125 6.109375 29.296875 6.109375 
Q 33.546875 6.109375 37.1875 8.109375 
Q 40.828125 10.109375 43.40625 13.921875 
Q 46.1875 17.921875 47.890625 23.34375 
Q 49.609375 28.765625 49.609375 33.6875 
z
M 21.78125 46.390625 
Q 25.390625 51.125 30.296875 53.5625 
Q 35.203125 56 41.21875 56 
Q 49.609375 56 54.25 50.5 
Q 58.890625 45.015625 58.890625 35.109375 
Q 58.890625 27 56 19.65625 
Q 53.125 12.3125 47.703125 6.5 
Q 44.09375 2.640625 39.546875 0.609375 
Q 35.015625 -1.421875 29.984375 -1.421875 
Q 24.171875 -1.421875 20.21875 1 
Q 16.265625 3.421875 14.3125 8.203125 
L 8.6875 -20.796875 
L -0.296875 -20.796875 
L 14.40625 54.6875 
L 23.390625 54.6875 
z
" id="DejaVuSans-Oblique-70"/>
     <path d="M 10.59375 45.40625 
L 73.1875 45.40625 
L 73.1875 37.203125 
L 10.59375 37.203125 
z
M 10.59375 25.484375 
L 73.1875 25.484375 
L 73.1875 17.1875 
L 10.59375 17.1875 
z
" id="DejaVuSans-3d"/>
     <path d="M 54.25 63.328125 
Q 49.953125 66.75 38.28125 66.75 
Q 25.921875 66.75 24.8125 61.03125 
Q 23.921875 56.546875 36.375 54.203125 
Q 46.140625 52.390625 50.828125 46.921875 
Q 56.5 40.328125 53.859375 26.8125 
Q 51.3125 13.875 43.171875 6.25 
Q 34.96875 -1.421875 23.25 -1.421875 
Q 11.578125 -1.421875 6.34375 6.25 
Q 1.125 13.875 3.765625 27.296875 
Q 5.671875 37.25 13.921875 45.3125 
Q 17.140625 48.4375 21.140625 50.203125 
Q 14.265625 54.046875 15.625 60.9375 
Q 18.21875 74.21875 39.75 74.21875 
Q 50.53125 74.21875 55.71875 70.796875 
z
M 27.390625 47.75 
Q 23.828125 46.34375 20.40625 42.78125 
Q 15.140625 37.25 13.234375 27.296875 
Q 11.28125 17.390625 14.359375 11.8125 
Q 17.484375 6.203125 24.75 6.203125 
Q 31.9375 6.203125 37.203125 11.859375 
Q 42.53125 17.53125 44.34375 26.8125 
Q 46.1875 36.53125 42.671875 41.21875 
Q 38.921875 46.234375 32.859375 46.78125 
Q 29.78125 47.078125 27.390625 47.75 
z
" id="DejaVuSans-Oblique-3b4"/>
    </defs>
    <g transform="translate(120.926563 28.56)scale(0.14 -0.14)">
     <use transform="translate(0 0.78125)" xlink:href="#DejaVuSans-31"/>
     <use transform="translate(63.623047 0.78125)" xlink:href="#DejaVuSans-31"/>
     <use transform="translate(127.246094 0.78125)" xlink:href="#DejaVuSans-20"/>
     <use transform="translate(159.033203 0.78125)" xlink:href="#DejaVuSans-41"/>
     <use transform="translate(227.441406 0.78125)" xlink:href="#DejaVuSans-67"/>
     <use transform="translate(290.917969 0.78125)" xlink:href="#DejaVuSans-65"/>
     <use transform="translate(352.441406 0.78125)" xlink:href="#DejaVuSans-6e"/>
     <use transform="translate(415.820312 0.78125)" xlink:href="#DejaVuSans-74"/>
     <use transform="translate(455.029297 0.78125)" xlink:href="#DejaVuSans-73"/>
     <use transform="translate(507.128906 0.78125)" xlink:href="#DejaVuSans-3a"/>
     <use transform="translate(540.820312 0.78125)" xlink:href="#DejaVuSans-20"/>
     <use transform="translate(572.607422 0.78125)" xlink:href="#DejaVuSans-Oblique-4b"/>
     <use transform="translate(638.183594 -15.625)scale(0.7)" xlink:href="#DejaVuSans-Oblique-70"/>
     <use transform="translate(704.833984 0.78125)" xlink:href="#DejaVuSans-3d"/>
     <use transform="translate(808.105469 0.78125)" xlink:href="#DejaVuSans-30"/>
     <use transform="translate(871.728516 0.78125)" xlink:href="#DejaVuSans-2e"/>
     <use transform="translate(903.515625 0.78125)" xlink:href="#DejaVuSans-35"/>
     <use transform="translate(967.138672 0.78125)" xlink:href="#DejaVuSans-20"/>
     <use transform="translate(998.925781 0.78125)" xlink:href="#DejaVuSans-Oblique-3b4"/>
     <use transform="translate(1079.589844 0.78125)" xlink:href="#DejaVuSans-3d"/>
     <use transform="translate(1182.861328 0.78125)" xlink:href="#DejaVuSans-30"/>
     <use transform="translate(1246.484375 0.78125)" xlink:href="#DejaVuSans-2e"/>
     <use transform="translate(1278.271484 0.78125)" xlink:href="#DejaVuSans-31"/>
    </g>
   </g>
  </g>
  <g id="text_29">
   <!-- Local $\lambda_i$ and $\epsilon$% Convergence Per Iteration -->
   <defs>
    <path d="M 9.8125 72.90625 
L 19.671875 72.90625 
L 19.671875 8.296875 
L 55.171875 8.296875 
L 55.171875 0 
L 9.8125 0 
z
" id="DejaVuSans-4c"/>
    <path d="M 48.78125 52.59375 
L 48.78125 44.1875 
Q 44.96875 46.296875 41.140625 47.34375 
Q 37.3125 48.390625 33.40625 48.390625 
Q 24.65625 48.390625 19.8125 42.84375 
Q 14.984375 37.3125 14.984375 27.296875 
Q 14.984375 17.28125 19.8125 11.734375 
Q 24.65625 6.203125 33.40625 6.203125 
Q 37.3125 6.203125 41.140625 7.25 
Q 44.96875 8.296875 48.78125 10.40625 
L 48.78125 2.09375 
Q 45.015625 0.34375 40.984375 -0.53125 
Q 36.96875 -1.421875 32.421875 -1.421875 
Q 20.0625 -1.421875 12.78125 6.34375 
Q 5.515625 14.109375 5.515625 27.296875 
Q 5.515625 40.671875 12.859375 48.328125 
Q 20.21875 56 33.015625 56 
Q 37.15625 56 41.109375 55.140625 
Q 45.0625 54.296875 48.78125 52.59375 
z
" id="DejaVuSans-63"/>
    <path d="M 9.421875 75.984375 
L 18.40625 75.984375 
L 18.40625 0 
L 9.421875 0 
z
" id="DejaVuSans-6c"/>
    <path d="M 45.40625 46.390625 
L 45.40625 75.984375 
L 54.390625 75.984375 
L 54.390625 0 
L 45.40625 0 
L 45.40625 8.203125 
Q 42.578125 3.328125 38.25 0.953125 
Q 33.9375 -1.421875 27.875 -1.421875 
Q 17.96875 -1.421875 11.734375 6.484375 
Q 5.515625 14.40625 5.515625 27.296875 
Q 5.515625 40.1875 11.734375 48.09375 
Q 17.96875 56 27.875 56 
Q 33.9375 56 38.25 53.625 
Q 42.578125 51.265625 45.40625 46.390625 
z
M 14.796875 27.296875 
Q 14.796875 17.390625 18.875 11.75 
Q 22.953125 6.109375 30.078125 6.109375 
Q 37.203125 6.109375 41.296875 11.75 
Q 45.40625 17.390625 45.40625 27.296875 
Q 45.40625 37.203125 41.296875 42.84375 
Q 37.203125 48.484375 30.078125 48.484375 
Q 22.953125 48.484375 18.875 42.84375 
Q 14.796875 37.203125 14.796875 27.296875 
z
" id="DejaVuSans-64"/>
    <path d="M 64.40625 67.28125 
L 64.40625 56.890625 
Q 59.421875 61.53125 53.78125 63.8125 
Q 48.140625 66.109375 41.796875 66.109375 
Q 29.296875 66.109375 22.65625 58.46875 
Q 16.015625 50.828125 16.015625 36.375 
Q 16.015625 21.96875 22.65625 14.328125 
Q 29.296875 6.6875 41.796875 6.6875 
Q 48.140625 6.6875 53.78125 8.984375 
Q 59.421875 11.28125 64.40625 15.921875 
L 64.40625 5.609375 
Q 59.234375 2.09375 53.4375 0.328125 
Q 47.65625 -1.421875 41.21875 -1.421875 
Q 24.65625 -1.421875 15.125 8.703125 
Q 5.609375 18.84375 5.609375 36.375 
Q 5.609375 53.953125 15.125 64.078125 
Q 24.65625 74.21875 41.21875 74.21875 
Q 47.75 74.21875 53.53125 72.484375 
Q 59.328125 70.75 64.40625 67.28125 
z
" id="DejaVuSans-43"/>
    <path d="M 2.984375 54.6875 
L 12.5 54.6875 
L 29.59375 8.796875 
L 46.6875 54.6875 
L 56.203125 54.6875 
L 35.6875 0 
L 23.484375 0 
z
" id="DejaVuSans-76"/>
    <path d="M 19.671875 64.796875 
L 19.671875 37.40625 
L 32.078125 37.40625 
Q 38.96875 37.40625 42.71875 40.96875 
Q 46.484375 44.53125 46.484375 51.125 
Q 46.484375 57.671875 42.71875 61.234375 
Q 38.96875 64.796875 32.078125 64.796875 
z
M 9.8125 72.90625 
L 32.078125 72.90625 
Q 44.34375 72.90625 50.609375 67.359375 
Q 56.890625 61.8125 56.890625 51.125 
Q 56.890625 40.328125 50.609375 34.8125 
Q 44.34375 29.296875 32.078125 29.296875 
L 19.671875 29.296875 
L 19.671875 0 
L 9.8125 0 
z
" id="DejaVuSans-50"/>
   </defs>
   <g transform="translate(60.776562 10.64)scale(0.14 -0.14)">
    <use transform="translate(0 0.015625)" xlink:href="#DejaVuSans-4c"/>
    <use transform="translate(55.712891 0.015625)" xlink:href="#DejaVuSans-6f"/>
    <use transform="translate(116.894531 0.015625)" xlink:href="#DejaVuSans-63"/>
    <use transform="translate(171.875 0.015625)" xlink:href="#DejaVuSans-61"/>
    <use transform="translate(233.154297 0.015625)" xlink:href="#DejaVuSans-6c"/>
    <use transform="translate(260.9375 0.015625)" xlink:href="#DejaVuSans-20"/>
    <use transform="translate(292.724609 0.015625)" xlink:href="#DejaVuSans-Oblique-3bb"/>
    <use transform="translate(351.904297 -16.390625)scale(0.7)" xlink:href="#DejaVuSans-Oblique-69"/>
    <use transform="translate(374.086914 0.015625)" xlink:href="#DejaVuSans-20"/>
    <use transform="translate(405.874023 0.015625)" xlink:href="#DejaVuSans-61"/>
    <use transform="translate(467.15332 0.015625)" xlink:href="#DejaVuSans-6e"/>
    <use transform="translate(530.532227 0.015625)" xlink:href="#DejaVuSans-64"/>
    <use transform="translate(594.008789 0.015625)" xlink:href="#DejaVuSans-20"/>
    <use transform="translate(625.795898 0.015625)" xlink:href="#DejaVuSans-Oblique-3b5"/>
    <use transform="translate(679.848633 0.015625)" xlink:href="#DejaVuSans-25"/>
    <use transform="translate(774.868164 0.015625)" xlink:href="#DejaVuSans-20"/>
    <use transform="translate(806.655273 0.015625)" xlink:href="#DejaVuSans-43"/>
    <use transform="translate(876.479492 0.015625)" xlink:href="#DejaVuSans-6f"/>
    <use transform="translate(937.661133 0.015625)" xlink:href="#DejaVuSans-6e"/>
    <use transform="translate(1001.040039 0.015625)" xlink:href="#DejaVuSans-76"/>
    <use transform="translate(1060.219727 0.015625)" xlink:href="#DejaVuSans-65"/>
    <use transform="translate(1121.743164 0.015625)" xlink:href="#DejaVuSans-72"/>
    <use transform="translate(1162.856445 0.015625)" xlink:href="#DejaVuSans-67"/>
    <use transform="translate(1226.333008 0.015625)" xlink:href="#DejaVuSans-65"/>
    <use transform="translate(1287.856445 0.015625)" xlink:href="#DejaVuSans-6e"/>
    <use transform="translate(1351.235352 0.015625)" xlink:href="#DejaVuSans-63"/>
    <use transform="translate(1406.21582 0.015625)" xlink:href="#DejaVuSans-65"/>
    <use transform="translate(1467.739258 0.015625)" xlink:href="#DejaVuSans-20"/>
    <use transform="translate(1499.526367 0.015625)" xlink:href="#DejaVuSans-50"/>
    <use transform="translate(1559.829102 0.015625)" xlink:href="#DejaVuSans-65"/>
    <use transform="translate(1621.352539 0.015625)" xlink:href="#DejaVuSans-72"/>
    <use transform="translate(1662.46582 0.015625)" xlink:href="#DejaVuSans-20"/>
    <use transform="translate(1694.25293 0.015625)" xlink:href="#DejaVuSans-49"/>
    <use transform="translate(1723.745117 0.015625)" xlink:href="#DejaVuSans-74"/>
    <use transform="translate(1762.954102 0.015625)" xlink:href="#DejaVuSans-65"/>
    <use transform="translate(1824.477539 0.015625)" xlink:href="#DejaVuSans-72"/>
    <use transform="translate(1865.59082 0.015625)" xlink:href="#DejaVuSans-61"/>
    <use transform="translate(1926.870117 0.015625)" xlink:href="#DejaVuSans-74"/>
    <use transform="translate(1966.079102 0.015625)" xlink:href="#DejaVuSans-69"/>
    <use transform="translate(1993.862305 0.015625)" xlink:href="#DejaVuSans-6f"/>
    <use transform="translate(2055.043945 0.015625)" xlink:href="#DejaVuSans-6e"/>
   </g>
  </g>
 </g>
 <defs>
  <clipPath id="pedf03a3f03">
   <rect height="266.112" width="357.12" x="36.306562" y="34.56"/>
  </clipPath>
 </defs>
</svg>
